<svg xmlns="http://www.w3.org/2000/svg" xmlns:xlink="http://www.w3.org/1999/xlink" width="27.331" height="20.379" viewBox="0 0 27.331 20.379">
  <defs>
    <clipPath id="clip-path">
      <path id="Clip_2" data-name="Clip 2" d="M0,0H27.331V20.379H0Z" transform="translate(0 0)" fill="none"/>
    </clipPath>
  </defs>
  <g id="Group_3" data-name="Group 3" transform="translate(0)">
    <path id="Clip_2-2" data-name="Clip 2" d="M0,0H27.331V20.379H0Z" transform="translate(0 0)" fill="none"/>
    <g id="Group_3-2" data-name="Group 3" clip-path="url(#clip-path)">
      <path id="Fill_1" data-name="Fill 1" d="M25.617,20.379H1.714A1.708,1.708,0,0,1,0,18.68V5.013a1.711,1.711,0,0,1,1.558-1.7H7.886l.429-2.228A1.337,1.337,0,0,1,9.61,0h8.11a1.338,1.338,0,0,1,1.3,1.085l.43,2.228h6.323a1.692,1.692,0,0,1,1.562,1.7V18.68A1.708,1.708,0,0,1,25.617,20.379ZM13.664,5.641a6.147,6.147,0,0,0-2.366.472A6.325,6.325,0,0,0,9.276,7.451v.015A6.27,6.27,0,0,0,7.927,9.473a6.062,6.062,0,0,0-.476,2.365,6.129,6.129,0,0,0,.476,2.384,6.286,6.286,0,0,0,1.349,2v.015A6.447,6.447,0,0,0,11.3,17.579a6.156,6.156,0,0,0,4.735,0,6.448,6.448,0,0,0,2.02-1.337v-.015a6.285,6.285,0,0,0,1.352-2,6.193,6.193,0,0,0,.473-2.384A6.125,6.125,0,0,0,19.4,9.473a6.271,6.271,0,0,0-1.352-2.007V7.451a6.243,6.243,0,0,0-2.02-1.337A6.147,6.147,0,0,0,13.664,5.641ZM3.8,4.693a1.171,1.171,0,1,0,1.17,1.17A1.164,1.164,0,0,0,3.8,4.693Zm9.862,11.34a4.164,4.164,0,0,1-2.952-1.226,4.252,4.252,0,0,1-.918-1.353,4.2,4.2,0,0,1,0-3.215,4.259,4.259,0,0,1,.918-1.353,4.071,4.071,0,0,1,1.351-.905,4.179,4.179,0,0,1,4.558.905,4.275,4.275,0,0,1,.918,1.353,4.2,4.2,0,0,1,0,3.215,4.268,4.268,0,0,1-.918,1.353,4.176,4.176,0,0,1-2.956,1.226Z" transform="translate(0 0)" fill="#707475"/>
    </g>
  </g>
</svg>
