<svg id="Group_4" data-name="Group 4" xmlns="http://www.w3.org/2000/svg" xmlns:xlink="http://www.w3.org/1999/xlink" width="35" height="36" viewBox="0 0 35 36">
  <defs>
    <clipPath id="clip-path">
      <path id="Clip_2" data-name="Clip 2" d="M0,0H22.352V-16.864H0Z" transform="translate(0 0)" fill="none"/>
    </clipPath>
  </defs>
  <g id="Group_15_Copy" data-name="Group 15 Copy">
    <g id="Group_24_Copy_7" data-name="Group 24 Copy 7">
      <ellipse id="Oval_Copy" data-name="Oval Copy" cx="17.5" cy="18" rx="17.5" ry="18" fill="#e6f0f4"/>
    </g>
  </g>
  <g id="Group_3" data-name="Group 3" transform="translate(26 27) rotate(-90)">
    <path id="Clip_2-2" data-name="Clip 2" d="M0,0H22.352V-16.864H0Z" transform="translate(0 0)" fill="none"/>
    <g id="Group_3-2" data-name="Group 3" clip-path="url(#clip-path)">
      <path id="Fill_1" data-name="Fill 1" d="M21.924-7.3,15.06-.44a1.5,1.5,0,0,1-2.121,0,1.5,1.5,0,0,1,0-2.121L16.878-6.5H2a2,2,0,0,1-2-2,2,2,0,0,1,2-2H16.743l-3.8-3.8a1.5,1.5,0,0,1,0-2.121A1.5,1.5,0,0,1,14-16.865a1.5,1.5,0,0,1,1.06.44l6.864,6.864a1.48,1.48,0,0,1,.426,1.129A1.48,1.48,0,0,1,21.924-7.3" transform="translate(0 0)" fill="#81b6c8"/>
    </g>
  </g>
  <path id="Line_3_Copy_2" data-name="Line 3 Copy 2" d="M14,1H0" transform="translate(11 29)" fill="none" stroke="#81b6c8" stroke-linecap="round" stroke-miterlimit="10" stroke-width="2"/>
</svg>
