<svg xmlns="http://www.w3.org/2000/svg" width="27.005" height="22" viewBox="0 0 27.005 22">
  <g id="Group_5" data-name="Group 5" transform="translate(0.501 0.5)">
    <path id="Fill_1" data-name="Fill 1" d="M25.535,21H3.13A.949.949,0,0,1,2.2,20L.068,8.958a.893.893,0,0,1,.044-.8.658.658,0,0,1,.516-.228H2.664l0-4.918a.945.945,0,0,1,.925-.944H3.574c.371,0,.664-.686.664-.954V1.009A1,1,0,0,1,5.234,0h6.313a1.006,1.006,0,0,1,1,1.009v.109c0,.263.289.941.652.95H25.062A.946.946,0,0,1,26,3.012L25.994,20a1.447,1.447,0,0,1-.187.886A.354.354,0,0,1,25.535,21Zm-3.7-13.051a.866.866,0,0,1,.879.608l2.118,11.882.011-11.084V4.179H3.816V7.95h18.02ZM8.116,13.017a1.307,1.307,0,0,0-.944.4A1.342,1.342,0,0,0,7.195,15.3L10.33,18.4a1.31,1.31,0,0,0,1.845,0l6.6-6.527a1.34,1.34,0,0,0,.02-1.884,1.311,1.311,0,0,0-1.866-.021l-5.682,5.614L9.039,13.4A1.307,1.307,0,0,0,8.116,13.017Z" fill="#fff"/>
    <path id="Stroke_3" data-name="Stroke 3" d="M25.535,21H3.13A.949.949,0,0,1,2.2,20L.068,8.958a.893.893,0,0,1,.044-.8.658.658,0,0,1,.516-.228H2.664l0-4.918a.945.945,0,0,1,.925-.944H3.574c.371,0,.664-.686.664-.954V1.009A1,1,0,0,1,5.234,0h6.313a1.006,1.006,0,0,1,1,1.009v.109c0,.263.289.941.652.95H25.062A.946.946,0,0,1,26,3.012L25.994,20a1.447,1.447,0,0,1-.187.886A.354.354,0,0,1,25.535,21Zm-3.7-13.051a.866.866,0,0,1,.879.608l2.118,11.882.011-11.084V4.179H3.816V7.95h18.02ZM8.116,13.017a1.307,1.307,0,0,0-.944.4A1.342,1.342,0,0,0,7.195,15.3L10.33,18.4a1.31,1.31,0,0,0,1.845,0l6.6-6.527a1.34,1.34,0,0,0,.02-1.884,1.311,1.311,0,0,0-1.866-.021l-5.682,5.614L9.039,13.4A1.307,1.307,0,0,0,8.116,13.017Z" fill="none" stroke="#fff" stroke-linecap="round" stroke-linejoin="round" stroke-miterlimit="10" stroke-width="1"/>
  </g>
</svg>
