<svg xmlns="http://www.w3.org/2000/svg" xmlns:xlink="http://www.w3.org/1999/xlink" width="17.683" height="17.687" viewBox="0 0 17.683 17.687">
  <defs>
    <clipPath id="clip-path">
      <path id="Clip_2" data-name="Clip 2" d="M0,0H2.4V17.687H0Z" transform="translate(0.641 0.313)" fill="none"/>
    </clipPath>
    <clipPath id="clip-path-2">
      <path id="Clip_5" data-name="Clip 5" d="M0,0H17.683V2.685H0Z" transform="translate(0.001 0.814)" fill="none"/>
    </clipPath>
  </defs>
  <g id="Group_7" data-name="Group 7" transform="translate(-0.001 -1)">
    <g id="Group_3" data-name="Group 3" transform="translate(7 0.687)">
      <path id="Clip_2-2" data-name="Clip 2" d="M0,0H2.4V17.687H0Z" transform="translate(0.641 0.313)" fill="none"/>
      <g id="Group_3-2" data-name="Group 3" clip-path="url(#clip-path)">
        <path id="Fill_1" data-name="Fill 1" d="M2.051,17.335A1.2,1.2,0,0,1,0,16.486V1.2a1.2,1.2,0,0,1,2.4,0V16.486a1.2,1.2,0,0,1-.352.849" transform="translate(0.641 0.313)" fill="#ffffff"/>
      </g>
    </g>
    <g id="Group_6" data-name="Group 6" transform="translate(0 7.687)">
      <path id="Clip_5-2" data-name="Clip 5" d="M0,0H17.683V2.685H0Z" transform="translate(0.001 0.814)" fill="none"/>
      <g id="Group_6-2" data-name="Group 6" clip-path="url(#clip-path-2)">
        <path id="Fill_4" data-name="Fill 4" d="M17.316,2.349a1.2,1.2,0,0,1-.855.336L1.177,2.4A1.2,1.2,0,0,1,1.222,0L16.5.284a1.2,1.2,0,0,1,.812,2.065" transform="translate(0.001 0.814)" fill="#ffffff"/>
      </g>
    </g>
  </g>
</svg>
