<svg xmlns="http://www.w3.org/2000/svg" xmlns:xlink="http://www.w3.org/1999/xlink" width="19.379" height="18.978" viewBox="0 0 19.379 18.978">
  <defs>
    <clipPath id="clip-path">
      <path id="Clip_2" data-name="Clip 2" d="M0,0H19.379V18.977H0Z" transform="translate(0 0.022)" fill="none"/>
    </clipPath>
  </defs>
  <g id="Group_9_Copy_2" data-name="Group 9 Copy 2" transform="translate(0 -0.022)">
    <g id="Group_3" data-name="Group 3">
      <path id="Clip_2-2" data-name="Clip 2" d="M0,0H19.379V18.977H0Z" transform="translate(0 0.022)" fill="none"/>
      <g id="Group_3-2" data-name="Group 3" clip-path="url(#clip-path)">
        <path id="Fill_1" data-name="Fill 1" d="M9.712,18.978h0a9.9,9.9,0,0,1-5.085-1.4,9.3,9.3,0,0,1-3.582-3.857,12.507,12.507,0,0,1-.62-1.531,1.16,1.16,0,0,1,0-.887.782.782,0,0,1,.471-.388,1.031,1.031,0,0,1,.322-.056c.381,0,.685.262.9.779q.064.15.127.3l.006.014a10.734,10.734,0,0,0,.9,1.825A7.818,7.818,0,0,0,9.694,17.23a8.022,8.022,0,0,0,2.7-.467A7.773,7.773,0,0,0,17.507,8.55a7.756,7.756,0,0,0-6.632-6.664,9.285,9.285,0,0,0-1.285-.092A7.744,7.744,0,0,0,3.768,4.413c-.1.1-.184.217-.3.372-.063.082-.135.176-.222.285h.531l.405,0c.207,0,.367,0,.52.008.656.021,1.029.349,1.022.9-.008.531-.382.852-1,.859-.6.007-1.2.01-1.777.01-.656,0-1.311,0-1.947-.013a.892.892,0,0,1-.989-1C0,4.621,0,3.539.006,2.528A.91.91,0,0,1,.858,1.516H.9a.931.931,0,0,1,.9,1c.013.286.011.574.008.908,0,.162,0,.334,0,.524.1-.114.2-.216.276-.307.165-.184.3-.33.435-.471A9.6,9.6,0,0,1,9.473,0a10.557,10.557,0,0,1,3.239.538,9.53,9.53,0,0,1,4.564,2.983,9.729,9.729,0,0,1,2.038,5.044,9,9,0,0,1-1.581,6.218A9.685,9.685,0,0,1,12.417,18.6,9.942,9.942,0,0,1,9.712,18.978Zm1.942-7.842c-.655,0-1.327-.007-2-.021a.8.8,0,0,1-.843-.869c-.012-2.136-.012-3.777,0-5.32a.827.827,0,0,1,.841-.877l.061,0a.81.81,0,0,1,.845.867c.011.842.01,1.7.009,2.526v.011q0,.536,0,1.071v.833h1.451l.919,0h.115a4.416,4.416,0,0,1,.688.037.805.805,0,0,1,.762.883.8.8,0,0,1-.819.833C13.019,11.128,12.336,11.136,11.653,11.136Z" transform="translate(0 0.022)" fill="#81b6c8"/>
      </g>
    </g>
    <g id="Group_6" data-name="Group 6">
      <path id="Clip_5" data-name="Clip 5" d="M0,0H19.379V18.978H0Z" transform="translate(0 0.022)" fill="none"/>
    </g>
  </g>
</svg>
