<?xml version="1.0" encoding="utf-8"?>
<!-- Generator: Adobe Illustrator 24.0.0, SVG Export Plug-In . SVG Version: 6.00 Build 0)  -->
<svg version="1.1" id="圖層_1" xmlns="http://www.w3.org/2000/svg" xmlns:xlink="http://www.w3.org/1999/xlink" x="0px" y="0px"
	 width="19.4px" height="19px" viewBox="0 0 19.4 19" style="enable-background:new 0 0 19.4 19;" xml:space="preserve">
<style type="text/css">
	.st0{fill:none;}
	.st1{clip-path:url(#SVGID_2_);}
	.st2{fill:#FFFFFF;}
</style>
<g id="Group_9_Copy_2" transform="translate(0 -0.022)">
	<g id="Group_3">
		<path id="Clip_2-2" class="st0" d="M0,0h19.4v19H0V0z"/>
		<g>
			<defs>
				<rect id="SVGID_1_" y="0" width="19.4" height="19"/>
			</defs>
			<clipPath id="SVGID_2_">
				<use xlink:href="#SVGID_1_"  style="overflow:visible;"/>
			</clipPath>
			<g id="Group_3-2" class="st1">
				<path id="Fill_1" class="st2" d="M9.7,19L9.7,19c-1.8,0-3.5-0.5-5.1-1.4c-1.5-0.9-2.8-2.3-3.6-3.9c-0.2-0.5-0.4-1-0.6-1.5
					c-0.1-0.3-0.1-0.6,0-0.9c0.1-0.2,0.3-0.3,0.5-0.4c0.1,0,0.2-0.1,0.3-0.1c0.4,0,0.7,0.3,0.9,0.8c0,0.1,0.1,0.2,0.1,0.3l0,0
					c0.2,0.6,0.5,1.2,0.9,1.8c1.5,2.2,3.9,3.5,6.5,3.5c0.9,0,1.8-0.2,2.7-0.5c3.4-1.2,5.5-4.6,5.1-8.2c-0.5-3.5-3.2-6.2-6.6-6.7
					C10.4,1.8,10,1.8,9.6,1.8c-2.2,0-4.3,0.9-5.8,2.6C3.7,4.5,3.6,4.7,3.5,4.8C3.4,4.9,3.3,5,3.2,5.1h0.5h0.4c0.2,0,0.4,0,0.5,0
					c0.7,0,1,0.3,1,0.9c0,0.5-0.4,0.9-1,0.9c-0.6,0-1.2,0-1.8,0c-0.7,0-1.3,0-1.9,0C0.5,6.9,0.1,6.6,0,6.1C0,6,0,5.9,0,5.9
					c0-1.2,0-2.3,0-3.3c-0.1-0.5,0.3-1,0.8-1c0,0,0,0,0.1,0h0c0.5,0,0.9,0.4,0.9,1c0,0,0,0,0,0c0,0.3,0,0.6,0,0.9c0,0.2,0,0.3,0,0.5
					C1.9,3.9,2,3.8,2.1,3.7c0.2-0.2,0.3-0.3,0.4-0.5c1.8-2,4.3-3.1,7-3.2c1.1,0,2.2,0.2,3.2,0.5c1.8,0.5,3.4,1.6,4.6,3
					c1.1,1.5,1.9,3.2,2,5c0.3,2.2-0.3,4.4-1.6,6.2c-1.3,1.9-3.2,3.2-5.3,3.8C11.5,18.9,10.6,19,9.7,19z M11.7,11.2c-0.7,0-1.3,0-2,0
					c-0.4,0-0.8-0.3-0.8-0.8c0,0,0-0.1,0-0.1c0-2.1,0-3.8,0-5.3c0-0.5,0.3-0.8,0.8-0.9c0,0,0,0,0.1,0h0.1c0.4,0,0.8,0.3,0.8,0.8
					c0,0,0,0.1,0,0.1c0,0.8,0,1.7,0,2.5v0c0,0.4,0,0.7,0,1.1v0.8H12h0.9h0.1c0.2,0,0.5,0,0.7,0c0.4,0,0.8,0.4,0.8,0.8c0,0,0,0,0,0
					c0,0.4-0.3,0.8-0.8,0.8c0,0,0,0-0.1,0C13,11.1,12.3,11.2,11.7,11.2L11.7,11.2z"/>
			</g>
		</g>
	</g>
	<g id="Group_6">
		<path id="Clip_5" class="st0" d="M0,0h19.4v19H0V0z"/>
	</g>
</g>
</svg>
