<svg xmlns="http://www.w3.org/2000/svg" xmlns:xlink="http://www.w3.org/1999/xlink" width="30.712" height="37.169" viewBox="0 0 30.712 37.169">
  <defs>
    <clipPath id="clip-path">
      <path id="Clip_18" data-name="Clip 18" d="M0,0H9.814V8.606H0Z" transform="translate(0.401 0.831)" fill="none"/>
    </clipPath>
  </defs>
  <g id="Group_26" data-name="Group 26" transform="translate(0 -1)">
    <path id="Fill_1" data-name="Fill 1" d="M9.153,8.99H6.63L4.841,6.141C4.786,6.06,4.7,5.926,4.6,5.735a1.862,1.862,0,0,1-.121-.2c-.163.325-.272.527-.326.608L2.358,8.99H0L3.172,4.515.162,0H2.6L4.108,2.725q.083.122.244.366a3.539,3.539,0,0,0,.2.367q.162-.285.407-.774L6.427,0h2.4L5.858,4.515Z" transform="translate(7.575 13.61)" fill="#81b6c8"/>
    <path id="Fill_3" data-name="Fill 3" d="M2.928,3.74H0V0H2.876V.694H.846v.812H2.741V2.2H.846v.88H2.928Z" transform="translate(4.21 25.674)" fill="#81b6c8"/>
    <path id="Fill_5" data-name="Fill 5" d="M3.808,3.74H2.758L2.014,2.554c-.022-.033-.057-.089-.1-.168-.022-.035-.039-.062-.05-.084-.068.134-.114.219-.135.252L.982,3.74H0L1.32,1.878.069,0H1.083l.626,1.134.1.152a1.522,1.522,0,0,0,.085.152c.045-.079.1-.186.169-.321L2.674,0h1L2.437,1.878Z" transform="translate(7.272 25.674)" fill="#81b6c8"/>
    <path id="Fill_7" data-name="Fill 7" d="M3.4,1.151l-.812.186A.791.791,0,0,0,1.81.727Q.948.778.9,1.928.947,3.08,1.81,3.164q.693-.016.813-.829l.811.253A1.491,1.491,0,0,1,1.81,3.84,1.748,1.748,0,0,1,0,1.928,1.767,1.767,0,0,1,1.81,0,1.6,1.6,0,0,1,3.4,1.151" transform="translate(11.232 25.624)" fill="#81b6c8"/>
    <path id="Fill_9" data-name="Fill 9" d="M2.927,3.74H0V0H2.876V.694H.846v.812H2.741V2.2H.846v.88H2.927Z" transform="translate(15.09 25.674)" fill="#81b6c8"/>
    <path id="Fill_11" data-name="Fill 11" d="M2.758,3.74H0V0H.846V3.08H2.758Z" transform="translate(18.44 25.674)" fill="#81b6c8"/>
    <path id="Fill_13" data-name="Fill 13" d="M23.536,5.424V31.445H1.4V1.4H17.474L16.006,0H.7A.7.7,0,0,0,0,.7V32.147a.71.71,0,0,0,.2.5.7.7,0,0,0,.5.2H24.238a.7.7,0,0,0,.7-.7L24.947,5.13Z" transform="translate(0 1.235)" fill="#81b6c8"/>
    <path id="Fill_15" data-name="Fill 15" d="M0,0,3.656,7.746,8.97,5.134Z" transform="translate(15.823 1.43)" fill="#81b6c8"/>
    <g id="Group_19" data-name="Group 19" transform="translate(15 0.169)">
      <path id="Clip_18-2" data-name="Clip 18" d="M0,0H9.814V8.606H0Z" transform="translate(0.401 0.831)" fill="none"/>
      <g id="Group_19-2" data-name="Group 19" clip-path="url(#clip-path)">
        <path id="Fill_17" data-name="Fill 17" d="M4.078,8.606A.423.423,0,0,1,3.7,8.362L.042.617a.436.436,0,0,1,.091-.5A.418.418,0,0,1,.423,0a.407.407,0,0,1,.2.055L9.6,5.189a.426.426,0,0,1,.216.388.431.431,0,0,1-.238.374L4.261,8.563A.4.4,0,0,1,4.078,8.606Zm-2.7-7.133h0L4.275,7.6,8.481,5.535l-7.1-4.063Z" transform="translate(0.401 0.831)" fill="#81b6c8"/>
      </g>
    </g>
    <path id="Fill_20" data-name="Fill 20" d="M12,6A6,6,0,1,1,6,0a6,6,0,0,1,6,6" transform="translate(18.213 25.669)" fill="#578f9e"/>
    <path id="Fill_22" data-name="Fill 22" d="M6.5,13A6.5,6.5,0,1,1,13,6.5,6.507,6.507,0,0,1,6.5,13Zm0-12A5.5,5.5,0,1,0,12,6.5,5.506,5.506,0,0,0,6.5,1Z" transform="translate(17.713 25.169)" fill="#fff"/>
    <path id="Fill_24" data-name="Fill 24" d="M4.974,3.646a.5.5,0,0,0-.707,0L3,4.914V.5a.5.5,0,1,0-1,0V4.792L.853,3.646a.5.5,0,1,0-.707.707L2.02,6.227a.488.488,0,0,0,.126.247.5.5,0,0,0,.353.147.438.438,0,0,0,.061-.012.425.425,0,0,0,.06.012.479.479,0,0,0,.48-.394L4.974,4.353a.5.5,0,0,0,0-.707" transform="translate(21.653 28.359)" fill="#fff"/>
  </g>
</svg>
