<svg xmlns="http://www.w3.org/2000/svg" xmlns:xlink="http://www.w3.org/1999/xlink" width="30.62" height="37.586" viewBox="0 0 30.62 37.586">
  <defs>
    <clipPath id="clip-path">
      <path id="Clip_2" data-name="Clip 2" d="M0,0H24.947V32.847H0Z" transform="translate(0 0.648)" fill="none"/>
    </clipPath>
  </defs>
  <g id="Group_20" data-name="Group 20" transform="translate(0 -1)">
    <g id="Group_3" data-name="Group 3" transform="translate(0 0.587)">
      <path id="Clip_2-2" data-name="Clip 2" d="M0,0H24.947V32.847H0Z" transform="translate(0 0.648)" fill="none"/>
      <g id="Group_3-2" data-name="Group 3" clip-path="url(#clip-path)">
        <path id="Fill_1" data-name="Fill 1" d="M23.537,5.423V31.444H1.4V1.4H17.475L16.006,0H.7A.7.7,0,0,0,0,.7V32.146a.7.7,0,0,0,.7.7H24.238a.7.7,0,0,0,.7-.7l.008-27.017Z" transform="translate(0 0.648)" fill="#81b6c8"/>
      </g>
    </g>
    <path id="Fill_4" data-name="Fill 4" d="M0,0,3.657,7.745,8.971,5.133Z" transform="translate(15.823 1.431)" fill="#81b6c8"/>
    <path id="Fill_6" data-name="Fill 6" d="M4.077,8.606A.424.424,0,0,1,3.7,8.363L.041.617a.436.436,0,0,1,.091-.5A.414.414,0,0,1,.627.055L9.6,5.188a.434.434,0,0,1-.023.763L4.261,8.563A.413.413,0,0,1,4.077,8.606Zm-2.7-7.133L4.275,7.6l4.2-2.067Z" transform="translate(15.402 1)" fill="#81b6c8"/>
    <path id="Fill_8" data-name="Fill 8" d="M1.792,7.919H0V0H3.3C5.2.047,6.2.891,6.271,2.507a2.453,2.453,0,0,1-.624,1.827,3.458,3.458,0,0,1-2.528.788H1.792v2.8Zm0-6.521V3.761H2.975c.926-.022,1.408-.42,1.433-1.182C4.383,1.819,3.9,1.421,2.975,1.4Z" transform="translate(2.594 13.936)" fill="#81b6c8"/>
    <path id="Fill_10" data-name="Fill 10" d="M2.864,7.924c-.092,0-.188,0-.283,0H0V0H2.471A4.749,4.749,0,0,1,5.687.994a3.837,3.837,0,0,1,1.12,2.912,3.967,3.967,0,0,1-.9,3A4.075,4.075,0,0,1,2.864,7.924ZM1.827,1.47V6.522H2.5a2.413,2.413,0,0,0,1.785-.611,2.712,2.712,0,0,0,.627-2.006A2.237,2.237,0,0,0,2.436,1.47Z" transform="translate(9.797 13.935)" fill="#81b6c8"/>
    <path id="Fill_12" data-name="Fill 12" d="M5.659,1.47H1.791v1.9H5.157v1.47H1.791V7.919H0V0H5.659Z" transform="translate(17.5 13.935)" fill="#81b6c8"/>
    <path id="Fill_14" data-name="Fill 14" d="M12,6A6,6,0,1,1,6,0a6,6,0,0,1,6,6" transform="translate(18.121 26.087)" fill="#578f9e"/>
    <path id="Fill_16" data-name="Fill 16" d="M6.5,13A6.5,6.5,0,1,1,13,6.5,6.507,6.507,0,0,1,6.5,13Zm0-12A5.5,5.5,0,1,0,12,6.5,5.506,5.506,0,0,0,6.5,1Z" transform="translate(17.621 25.587)" fill="#fff"/>
    <path id="Fill_18" data-name="Fill 18" d="M4.974,3.646a.5.5,0,0,0-.707,0L3,4.914V.5a.5.5,0,1,0-1,0V4.792L.853,3.646a.5.5,0,1,0-.707.707L2.02,6.227a.488.488,0,0,0,.126.247.5.5,0,0,0,.353.147.438.438,0,0,0,.061-.012.425.425,0,0,0,.06.012.479.479,0,0,0,.48-.394L4.974,4.353a.5.5,0,0,0,0-.707" transform="translate(21.561 28.777)" fill="#fff"/>
  </g>
</svg>
