<svg xmlns="http://www.w3.org/2000/svg" xmlns:xlink="http://www.w3.org/1999/xlink" width="32.402" height="40.5" viewBox="0 0 32.402 40.5">
  <defs>
    <clipPath id="clip-path">
      <path id="Clip_6" data-name="Clip 6" d="M0,0H10.976V9.625H0Z" transform="translate(0.226 0.5)" fill="none"/>
    </clipPath>
    <clipPath id="clip-path-2">
      <path id="Clip_13" data-name="Clip 13" d="M0,40.5H32.4V0H0Z" transform="translate(0 1)" fill="none"/>
    </clipPath>
  </defs>
  <g id="Group_18" data-name="Group 18" transform="translate(0 -1)">
    <path id="Fill_1" data-name="Fill 1" d="M26.323,6.065v29.1H1.569V1.569H19.544L17.9,0H.785A.791.791,0,0,0,.229.229.8.8,0,0,0,0,.784V35.953a.784.784,0,0,0,.785.784H27.108a.782.782,0,0,0,.784-.784L27.9,5.737Z" transform="translate(0 1.263)" fill="#81b6c8"/>
    <path id="Fill_3" data-name="Fill 3" d="M0,0,4.091,8.662l5.942-2.921Z" transform="translate(17.696 1.481)" fill="#81b6c8"/>
    <g id="Group_7" data-name="Group 7" transform="translate(17 0.5)">
      <path id="Clip_6-2" data-name="Clip 6" d="M0,0H10.976V9.625H0Z" transform="translate(0.226 0.5)" fill="none"/>
      <g id="Group_7-2" data-name="Group 7" clip-path="url(#clip-path)">
        <path id="Fill_5" data-name="Fill 5" d="M4.561,9.626a.466.466,0,0,1-.424-.273L.047.689a.486.486,0,0,1,.1-.559A.463.463,0,0,1,.7.061L10.734,5.8a.484.484,0,0,1-.026.853L4.766,9.578A.47.47,0,0,1,4.561,9.626ZM1.544,1.646,4.78,8.5l4.7-2.312Z" transform="translate(0.226 0.5)" fill="#81b6c8"/>
      </g>
    </g>
    <path id="Fill_8" data-name="Fill 8" d="M0,0H10L5,7Z" transform="translate(21.902 34)" fill="#81b6c8"/>
    <path id="Stroke_10" data-name="Stroke 10" d="M0,0H10L5,7Z" transform="translate(21.902 34)" fill="none" stroke="#81b6c8" stroke-linecap="round" stroke-linejoin="round" stroke-miterlimit="10" stroke-width="1"/>
    <path id="Clip_13-2" data-name="Clip 13" d="M0,40.5H32.4V0H0Z" transform="translate(0 1)" fill="none"/>
    <g clip-path="url(#clip-path-2)">
      <path id="Fill_12" data-name="Fill 12" d="M0,7H6V0H0Z" transform="translate(23.901 28)" fill="#81b6c8"/>
      <path id="Stroke_14" data-name="Stroke 14" d="M0,7H6V0H0Z" transform="translate(23.901 28)" fill="none" stroke="#81b6c8" stroke-linecap="round" stroke-linejoin="round" stroke-miterlimit="10" stroke-width="1"/>
      <path id="Fill_15" data-name="Fill 15" d="M2.005,8.856H0V0H3.687A3.859,3.859,0,0,1,6.121.741,2.728,2.728,0,0,1,7.013,2.8a2.74,2.74,0,0,1-.7,2.042,3.868,3.868,0,0,1-2.829.883H2.005V8.855Zm0-7.293V4.207H3.327c1.036-.025,1.575-.47,1.6-1.323-.028-.85-.567-1.294-1.6-1.32Z" transform="translate(2.902 15.468)" fill="#81b6c8"/>
      <path id="Fill_16" data-name="Fill 16" d="M3.2,8.862c-.1,0-.209,0-.316-.005H0V0H2.763a5.313,5.313,0,0,1,3.6,1.113A4.293,4.293,0,0,1,7.614,4.368,4.439,4.439,0,0,1,6.6,7.721,4.563,4.563,0,0,1,3.2,8.862ZM2.042,1.644V7.293H2.8a2.688,2.688,0,0,0,1.989-.681,3.037,3.037,0,0,0,.7-2.245A2.5,2.5,0,0,0,2.724,1.644H2.042Z" transform="translate(10.958 15.467)" fill="#81b6c8"/>
      <path id="Fill_17" data-name="Fill 17" d="M6.33,1.644H2V3.766H5.769V5.41H2V8.857H0V0H6.33Z" transform="translate(19.572 15.467)" fill="#81b6c8"/>
    </g>
  </g>
</svg>
