<svg xmlns="http://www.w3.org/2000/svg" xmlns:xlink="http://www.w3.org/1999/xlink" width="25.215" height="33.082" viewBox="0 0 25.215 33.082">
  <defs>
    <clipPath id="clip-path">
      <path id="Clip_12" data-name="Clip 12" d="M0,0H24.947V32.848H0Z" transform="translate(0 0.152)" fill="none"/>
    </clipPath>
    <clipPath id="clip-path-2">
      <path id="Clip_17" data-name="Clip 17" d="M0,0H9.813V8.606H0Z" transform="translate(0.402 0.918)" fill="none"/>
    </clipPath>
  </defs>
  <g id="Group_19" data-name="Group 19" transform="translate(0 -1)">
    <path id="Fill_1" data-name="Fill 1" d="M8.01,0c.472.479.917.934,1.381,1.4-.13.138-5.046,5.072-7.365,7.388a3.194,3.194,0,0,1-.515.447.9.9,0,0,1-1.2-.118A.91.91,0,0,1,.149,7.93a1.844,1.844,0,0,1,.305-.389C2.9,5.09,7.921.073,8.01,0" transform="translate(7.509 15.527)" fill="#81b6c8"/>
    <path id="Fill_3" data-name="Fill 3" d="M4.3,5.53,0,1.222A9.6,9.6,0,0,1,1.089.289,1.889,1.889,0,0,1,3.433.567c.459.416.89.862,1.322,1.309a2.079,2.079,0,0,1,.068,3.131C4.641,5.2,4.3,5.53,4.3,5.53" transform="translate(14.885 12.082)" fill="#81b6c8"/>
    <path id="Fill_5" data-name="Fill 5" d="M7.842,0l.734.672c-.191.195-.337.333-.48.477Q4.62,4.626,1.146,8.1c-.132.131-.333.371-.492.415a.527.527,0,0,1-.523-.121.587.587,0,0,1-.123-.481c.02-.122.215-.3.316-.4q3.651-3.651,7.3-7.3L7.842,0" transform="translate(6.28 14.103)" fill="#81b6c8"/>
    <path id="Fill_7" data-name="Fill 7" d="M7.842,0s.494.452.735.671C8.385.866,8.239,1,8.1,1.148Q4.62,4.625,1.146,8.1c-.131.13-.333.371-.492.415a.53.53,0,0,1-.523-.122.59.59,0,0,1-.123-.481c.02-.121.215-.3.316-.4q3.651-3.653,7.3-7.3C7.686.152,7.842,0,7.842,0" transform="translate(9.755 17.579)" fill="#81b6c8"/>
    <path id="Fill_9" data-name="Fill 9" d="M1.176,0a1.128,1.128,0,0,1,1,1.113c.1.827.711,1.3,1.733,1.487a.909.909,0,0,1,.662.516l.191.419C3.18,3.932,1.645,4.316,0,4.729.4,3.106.788,1.562,1.176,0" transform="translate(4.421 23.299)" fill="#81b6c8"/>
    <g id="Group_13" data-name="Group 13" transform="translate(0 1.082)">
      <path id="Clip_12-2" data-name="Clip 12" d="M0,0H24.947V32.848H0Z" transform="translate(0 0.152)" fill="none"/>
      <g id="Group_13-2" data-name="Group 13" clip-path="url(#clip-path)">
        <path id="Fill_11" data-name="Fill 11" d="M23.537,5.424V31.445H1.4V1.4H17.475L16.006,0H.7A.7.7,0,0,0,0,.7V32.147a.7.7,0,0,0,.7.7H24.238a.7.7,0,0,0,.7-.7L24.947,5.13Z" transform="translate(0 0.152)" fill="#81b6c8"/>
      </g>
    </g>
    <path id="Fill_14" data-name="Fill 14" d="M0,0,3.656,7.746,8.971,5.134Z" transform="translate(15.823 1.43)" fill="#81b6c8"/>
    <g id="Group_18" data-name="Group 18" transform="translate(15 0.082)">
      <path id="Clip_17-2" data-name="Clip 17" d="M0,0H9.813V8.606H0Z" transform="translate(0.402 0.918)" fill="none"/>
      <g id="Group_18-2" data-name="Group 18" clip-path="url(#clip-path-2)">
        <path id="Fill_16" data-name="Fill 16" d="M4.077,8.606A.423.423,0,0,1,3.7,8.362L.041.617a.439.439,0,0,1,.091-.5A.418.418,0,0,1,.422,0a.407.407,0,0,1,.2.055L9.6,5.189a.432.432,0,0,1-.023.761L4.261,8.563A.407.407,0,0,1,4.077,8.606Zm-2.7-7.133h0L4.275,7.6l4.2-2.067-7.1-4.063Z" transform="translate(0.402 0.918)" fill="#81b6c8"/>
      </g>
    </g>
  </g>
</svg>
