<svg xmlns="http://www.w3.org/2000/svg" xmlns:xlink="http://www.w3.org/1999/xlink" width="28.693" height="16.499" viewBox="0 0 28.693 16.499">
  <defs>
    <clipPath id="clip-path">
      <path id="Clip_2" data-name="Clip 2" d="M0,0H28.693V16.5H0Z" transform="translate(0 0.501)" fill="none"/>
    </clipPath>
  </defs>
  <g id="Group_6" data-name="Group 6" transform="translate(0 -1)">
    <g id="Group_3" data-name="Group 3" transform="translate(0 0.499)">
      <path id="Clip_2-2" data-name="Clip 2" d="M0,0H28.693V16.5H0Z" transform="translate(0 0.501)" fill="none"/>
      <g id="Group_3-2" data-name="Group 3" clip-path="url(#clip-path)">
        <path id="Fill_1" data-name="Fill 1" d="M14.292,16.5a11.415,11.415,0,0,1-3.265-.482,19.255,19.255,0,0,1-6.034-3.081A33.406,33.406,0,0,1,0,8.245,34.376,34.376,0,0,1,5.337,3.32,18.133,18.133,0,0,1,11.843.292,10.96,10.96,0,0,1,14.343,0,11.4,11.4,0,0,1,17.61.49a19.276,19.276,0,0,1,6.041,3.089,33.843,33.843,0,0,1,5.043,4.747c-.409.388-.815.783-1.208,1.164-.9.878-1.756,1.706-2.675,2.5a19.777,19.777,0,0,1-6.453,3.8A12.434,12.434,0,0,1,14.292,16.5ZM14.3,1.988h0A6.269,6.269,0,0,0,8.053,8.244a6.283,6.283,0,0,0,6.238,6.275h.022a6.265,6.265,0,1,0,0-12.53H14.3Z" transform="translate(0 0.501)" fill="#fff"/>
      </g>
    </g>
    <path id="Fill_4" data-name="Fill 4" d="M5.243,10.472H5.235A5.2,5.2,0,0,1,1.553,8.93,5.175,5.175,0,0,1,0,5.26,5.258,5.258,0,0,1,5.2,0h.042A5.192,5.192,0,0,1,8.931,1.546a5.238,5.238,0,0,1-3.688,8.927Zm.023-7.228A1.987,1.987,0,1,0,7.253,5.231,1.989,1.989,0,0,0,5.266,3.244Z" transform="translate(9.081 4.018)" fill="#fff"/>
  </g>
</svg>
