<svg id="Group_3_Copy_3" data-name="Group 3 Copy 3" xmlns="http://www.w3.org/2000/svg" xmlns:xlink="http://www.w3.org/1999/xlink" width="18" height="19" viewBox="0 0 18 19">
  <defs>
    <clipPath id="clip-path">
      <path id="Clip_2" data-name="Clip 2" d="M0,0H18V19H0Z" fill="none"/>
    </clipPath>
  </defs>
  <path id="Clip_2-2" data-name="Clip 2" d="M0,0H18V19H0Z" fill="none"/>
  <g id="Group_3_Copy_3-2" data-name="Group 3 Copy 3" clip-path="url(#clip-path)">
    <path id="Fill_1" data-name="Fill 1" d="M15,19H3a1.954,1.954,0,0,1-2-1.9V3.8a.977.977,0,0,1-1-.95A.976.976,0,0,1,1,1.9H4V.95A.978.978,0,0,1,5,0h8a.977.977,0,0,1,1,.95V1.9h3a.976.976,0,0,1,1,.949.977.977,0,0,1-1,.95V17.1A1.954,1.954,0,0,1,15,19ZM3,3.8V17.1H15V3.8Zm9,11.4a.977.977,0,0,1-1-.949V6.65a1,1,0,0,1,2,0v7.6A.977.977,0,0,1,12,15.2Zm-3,0a.976.976,0,0,1-1-.949V6.65a1,1,0,0,1,2,0v7.6A.977.977,0,0,1,9,15.2Zm-3,0a.977.977,0,0,1-1-.949V6.65a1,1,0,0,1,2,0v7.6A.976.976,0,0,1,6,15.2Z" fill="#707475"/>
  </g>
</svg>
