<svg id="Group_22" data-name="Group 22" xmlns="http://www.w3.org/2000/svg" xmlns:xlink="http://www.w3.org/1999/xlink" width="62" height="70" viewBox="0 0 62 70">
  <defs>
    <clipPath id="clip-path">
      <path id="Clip_14" data-name="Clip 14" d="M0,70H62V0H0Z" fill="none"/>
    </clipPath>
  </defs>
  <path id="Fill_1" data-name="Fill 1" d="M49.211,23H2.789A2.8,2.8,0,0,1,0,20.211V2.789A2.8,2.8,0,0,1,2.789,0H49.211A2.8,2.8,0,0,1,52,2.789V20.211A2.8,2.8,0,0,1,49.211,23" transform="translate(5)" fill="#c6c6c6"/>
  <path id="Fill_3" data-name="Fill 3" d="M59,62H3a3.009,3.009,0,0,1-3-3V3A3.009,3.009,0,0,1,3,0H59a3.009,3.009,0,0,1,3,3V59a3.009,3.009,0,0,1-3,3" transform="translate(0 8)" fill="#4285f4"/>
  <path id="Fill_5" data-name="Fill 5" d="M7.21,13.9V10.661a6.6,6.6,0,0,0,3.239-.537A3.322,3.322,0,0,0,11.931,7.1a3.432,3.432,0,0,0-1.075-2.62,3.79,3.79,0,0,0-2.75-1.025,3.564,3.564,0,0,0-2.442.764A5.063,5.063,0,0,0,4.427,6.852H.65a8.714,8.714,0,0,1,2.41-5.2A7.31,7.31,0,0,1,8.154,0a7.565,7.565,0,0,1,5.388,1.953,6.515,6.515,0,0,1,2.083,5,6.19,6.19,0,0,1-2.734,5.371A6.4,6.4,0,0,1,16.016,18.3a7.269,7.269,0,0,1-2.279,5.534,8.178,8.178,0,0,1-5.843,2.148A7.507,7.507,0,0,1,1.155,22.64,8.656,8.656,0,0,1,0,18.766H3.662a4.45,4.45,0,0,0,1.424,2.792,4.382,4.382,0,0,0,2.954.968,4.092,4.092,0,0,0,3.044-1.221,4.393,4.393,0,0,0,1.2-3.174,3.862,3.862,0,0,0-1.807-3.613A6.69,6.69,0,0,0,7.21,13.9" transform="translate(15.474 20.982)" fill="#fff"/>
  <path id="Fill_7" data-name="Fill 7" d="M4.346,3.549H0L2.083,0H8.138V25.131H4.346Z" transform="translate(36.388 21.421)" fill="#fff"/>
  <path id="Fill_9" data-name="Fill 9" d="M7.688.713V2.455A4.077,4.077,0,0,0,5.049,1.389,3.358,3.358,0,0,0,2.518,2.468,3.641,3.641,0,0,0,1.483,5.094,3.552,3.552,0,0,0,2.518,7.682,3.42,3.42,0,0,0,5.056,8.736a3.119,3.119,0,0,0,1.319-.252A3.77,3.77,0,0,0,7,8.143a7.4,7.4,0,0,0,.685-.518V9.4a5.316,5.316,0,0,1-2.651.712A4.893,4.893,0,0,1,1.47,8.654,4.835,4.835,0,0,1,0,5.107,5.009,5.009,0,0,1,1.23,1.786,4.905,4.905,0,0,1,5.15,0,4.969,4.969,0,0,1,7.688.713" transform="translate(4.466 54.253)" fill="#fff"/>
  <path id="Fill_11" data-name="Fill 11" d="M2.935,6.5A2.732,2.732,0,0,1,.827,5.574,3.442,3.442,0,0,1,0,3.226,3.347,3.347,0,0,1,.827.921,2.68,2.68,0,0,1,2.9,0,2.624,2.624,0,0,1,4.823.884V.17H6.25V6.319H4.823V5.675A2.741,2.741,0,0,1,2.935,6.5Zm.228-5.215a1.576,1.576,0,0,0-1.225.555,2.056,2.056,0,0,0-.486,1.389,2.147,2.147,0,0,0,.474,1.438,1.555,1.555,0,0,0,1.224.563,1.635,1.635,0,0,0,1.275-.544,2.111,2.111,0,0,0,.486-1.426A2.116,2.116,0,0,0,4.425,1.83,1.615,1.615,0,0,0,3.163,1.282Z" transform="translate(13.447 57.87)" fill="#fff"/>
  <path id="Clip_14-2" data-name="Clip 14" d="M0,70H62V0H0Z" fill="none"/>
  <g id="Group_22-2" data-name="Group 22" clip-path="url(#clip-path)">
    <path id="Fill_13" data-name="Fill 13" d="M0,10.662H1.42V0H0Z" transform="translate(21.49 53.526)" fill="#fff"/>
    <path id="Fill_15" data-name="Fill 15" d="M3.042,6.5A2.9,2.9,0,0,1,.833,5.611,3.325,3.325,0,0,1,0,3.251,3.417,3.417,0,0,1,.808.89,2.8,2.8,0,0,1,2.967,0,2.772,2.772,0,0,1,5.113.864,3.419,3.419,0,0,1,5.9,3.244l-.007.336H1.483a1.88,1.88,0,0,0,.491,1.205,1.514,1.514,0,0,0,1.119.443,1.463,1.463,0,0,0,.878-.253,3.643,3.643,0,0,0,.776-.934l1.2.669a4.826,4.826,0,0,1-.588.811,3.1,3.1,0,0,1-.662.555,2.676,2.676,0,0,1-.764.32A3.81,3.81,0,0,1,3.042,6.5ZM3,1.281a1.494,1.494,0,0,0-.486.079,1.409,1.409,0,0,0-.413.227,1.434,1.434,0,0,0-.319.357,1.649,1.649,0,0,0-.2.473H4.431A1.366,1.366,0,0,0,3,1.281Z" transform="translate(24.419 57.87)" fill="#fff"/>
    <path id="Fill_16" data-name="Fill 16" d="M0,.17H1.426V.738A2.331,2.331,0,0,1,3.105,0,2.121,2.121,0,0,1,4.778.675,2.761,2.761,0,0,1,5.3,2.55V6.318H3.869V2.885a2.256,2.256,0,0,0-.252-1.257,1.02,1.02,0,0,0-.9-.354,1.1,1.1,0,0,0-1,.468,3.209,3.209,0,0,0-.291,1.61V6.318H0Z" transform="translate(31.861 57.87)" fill="#fff"/>
    <path id="Fill_17" data-name="Fill 17" d="M2.923,10.839a2.721,2.721,0,0,1-2.1-.922A3.445,3.445,0,0,1,0,7.569a3.327,3.327,0,0,1,.827-2.3,2.656,2.656,0,0,1,4-.044V0H6.25V10.662H4.823v-.644A2.659,2.659,0,0,1,2.923,10.839Zm.239-5.214a1.574,1.574,0,0,0-1.225.555,2.053,2.053,0,0,0-.486,1.389,2.147,2.147,0,0,0,.474,1.438A1.557,1.557,0,0,0,3.15,9.57a1.637,1.637,0,0,0,1.275-.543A2.116,2.116,0,0,0,4.911,7.6a2.114,2.114,0,0,0-.486-1.426A1.613,1.613,0,0,0,3.163,5.625Z" transform="translate(38.659 53.527)" fill="#fff"/>
    <path id="Fill_18" data-name="Fill 18" d="M2.935,6.5A2.732,2.732,0,0,1,.827,5.574,3.442,3.442,0,0,1,0,3.226,3.347,3.347,0,0,1,.827.921,2.68,2.68,0,0,1,2.9,0,2.624,2.624,0,0,1,4.823.884V.17H6.25V6.319H4.823V5.675A2.741,2.741,0,0,1,2.935,6.5Zm.228-5.215a1.576,1.576,0,0,0-1.225.555,2.056,2.056,0,0,0-.486,1.389,2.147,2.147,0,0,0,.474,1.438,1.555,1.555,0,0,0,1.224.563,1.635,1.635,0,0,0,1.275-.544,2.111,2.111,0,0,0,.486-1.426A2.116,2.116,0,0,0,4.425,1.83,1.615,1.615,0,0,0,3.163,1.282Z" transform="translate(46.411 57.87)" fill="#fff"/>
    <path id="Fill_19" data-name="Fill 19" d="M0,.17H1.42V.72a2.714,2.714,0,0,1,.7-.563A1.606,1.606,0,0,1,2.847,0,2.3,2.3,0,0,1,4.021.366l-.65,1.3a1.36,1.36,0,0,0-.789-.29q-1.162,0-1.162,1.755V6.318H0Z" transform="translate(54.453 57.87)" fill="#fff"/>
    <path id="Fill_20" data-name="Fill 20" d="M3.243,1.622A1.622,1.622,0,1,1,1.621,0,1.621,1.621,0,0,1,3.243,1.622" transform="translate(12 2.216)" fill="#fff"/>
    <path id="Fill_21" data-name="Fill 21" d="M3.243,1.622A1.622,1.622,0,1,1,1.621,0,1.621,1.621,0,0,1,3.243,1.622" transform="translate(46.757 2.216)" fill="#fff"/>
  </g>
</svg>
