<svg id="Group_2_Copy_3" data-name="Group 2 Copy 3" xmlns="http://www.w3.org/2000/svg" xmlns:xlink="http://www.w3.org/1999/xlink" width="40" height="40" viewBox="0 0 40 40">
  <defs>
    <clipPath id="clip-path">
      <path id="Clip_4" data-name="Clip 4" d="M0,0H29.258V27.723H0Z" transform="translate(0 0.512)" fill="none"/>
    </clipPath>
  </defs>
  <path id="Rectangle_Copy_2" data-name="Rectangle Copy 2" d="M5,0H40a0,0,0,0,1,0,0V35a5,5,0,0,1-5,5H5a5,5,0,0,1-5-5V5A5,5,0,0,1,5,0Z" fill="#02c203"/>
  <g id="Group_14" data-name="Group 14" transform="translate(5.49 5.49)">
    <path id="Fill_1" data-name="Fill 1" d="M13.49,26.939a.851.851,0,0,1-.45-.131.832.832,0,0,1-.393-.667,4.137,4.137,0,0,1,.053-.768c.032-.25.061-.431.09-.606l.006-.039.007-.043a7.6,7.6,0,0,0,.11-.907c.025-.6-.132-.7-.814-.872-.391-.1-.794-.179-1.185-.256l-.1-.019-.038-.008c-.518-.1-1.053-.208-1.575-.357A14.013,14.013,0,0,1,5.7,20.707a12.624,12.624,0,0,1-3.415-2.978A10.184,10.184,0,0,1,.446,14.2a8.806,8.806,0,0,1-.434-2.954,10.132,10.132,0,0,1,1.33-4.575A12.312,12.312,0,0,1,6.391,1.925,20.53,20.53,0,0,1,9.126.748,14.66,14.66,0,0,1,11.487.222,17.3,17.3,0,0,1,14.231,0h.089a16.664,16.664,0,0,1,2.624.214A17.189,17.189,0,0,1,19.3.725a13.355,13.355,0,0,1,4.522,2.292A19.632,19.632,0,0,1,26.025,5.1a9.249,9.249,0,0,1,2.013,3.7,9.23,9.23,0,0,1,.432,2.814,9.873,9.873,0,0,1-.543,2.917,14.208,14.208,0,0,1-4.17,5.679A39.117,39.117,0,0,1,18.7,24.079c-1.018.669-2.119,1.352-3.367,2.09a9.607,9.607,0,0,1-1.2.567l-.33.138A.813.813,0,0,1,13.49,26.939ZM14.233.957a16.344,16.344,0,0,0-2.593.211,13.641,13.641,0,0,0-2.2.486A19.461,19.461,0,0,0,6.83,2.776,11.355,11.355,0,0,0,2.166,7.161a9.214,9.214,0,0,0-1.2,4.153,8.1,8.1,0,0,0,.4,2.632,9.237,9.237,0,0,0,1.673,3.2A11.656,11.656,0,0,0,6.2,19.893a13.063,13.063,0,0,0,3.266,1.454c.507.144,1.03.246,1.536.345.439.087.893.176,1.334.289.77.2,1.587.516,1.534,1.838a8.935,8.935,0,0,1-.131,1.066c-.028.174-.058.354-.08.532l-.009.066c-.022.167-.041.31-.048.44l.167-.07a8.532,8.532,0,0,0,1.08-.507c1.226-.724,2.315-1.4,3.329-2.066a38.066,38.066,0,0,0,4.93-3.776,13.071,13.071,0,0,0,3.915-5.287,9.01,9.01,0,0,0,.49-2.635,8.341,8.341,0,0,0-.4-2.52,8.3,8.3,0,0,0-1.8-3.322,18.4,18.4,0,0,0-2.1-1.976A12.388,12.388,0,0,0,19.011,1.64a16.02,16.02,0,0,0-2.219-.481,16.031,16.031,0,0,0-2.542-.2Z" transform="translate(0.392 1.176)" fill="#fff"/>
    <g id="Group_5" data-name="Group 5" transform="translate(0 0.272)">
      <path id="Clip_4-2" data-name="Clip 4" d="M0,0H29.258V27.723H0Z" transform="translate(0 0.512)" fill="none"/>
      <g id="Group_5-2" data-name="Group 5" clip-path="url(#clip-path)">
        <path id="Fill_3" data-name="Fill 3" d="M13.884,27.724h0a1.252,1.252,0,0,1-.657-.19,1.227,1.227,0,0,1-.578-.983,4.382,4.382,0,0,1,.056-.838c.032-.248.061-.429.089-.6l0-.011a7.922,7.922,0,0,0,.12-.944c.014-.338.014-.338-.519-.475-.382-.1-.777-.177-1.16-.252l-.056-.011c-.555-.109-1.129-.221-1.688-.38a14.365,14.365,0,0,1-3.605-1.6,12.994,12.994,0,0,1-3.519-3.071A10.579,10.579,0,0,1,.46,14.7a9.165,9.165,0,0,1-.447-3.086A10.5,10.5,0,0,1,1.4,6.869,12.7,12.7,0,0,1,6.6,1.968,20.854,20.854,0,0,1,9.392.77,14.783,14.783,0,0,1,11.8.231l.019,0A17.643,17.643,0,0,1,14.622,0h.049A17.284,17.284,0,0,1,17.4.219,17.643,17.643,0,0,1,19.8.743,13.742,13.742,0,0,1,24.457,3.1a20.06,20.06,0,0,1,2.252,2.121,9.639,9.639,0,0,1,2.1,3.855,9.549,9.549,0,0,1,.447,2.935,10.265,10.265,0,0,1-.563,3.033,14.551,14.551,0,0,1-4.276,5.84,39.552,39.552,0,0,1-5.1,3.91c-1.044.684-2.151,1.371-3.383,2.1a9.842,9.842,0,0,1-1.246.591l-.331.138A1.19,1.19,0,0,1,13.884,27.724ZM14.625.957h.016a16.469,16.469,0,0,1,2.6.207,16.3,16.3,0,0,1,2.273.493,12.8,12.8,0,0,1,4.336,2.192A18.961,18.961,0,0,1,26,5.867a8.677,8.677,0,0,1,1.889,3.477,8.7,8.7,0,0,1,.411,2.641,9.331,9.331,0,0,1-.512,2.75,13.4,13.4,0,0,1-4.019,5.449A38.592,38.592,0,0,1,18.788,24c-1.014.666-2.109,1.345-3.346,2.075a8.846,8.846,0,0,1-1.109.524l-.02.008-.652.274a.452.452,0,0,0,.221.058.418.418,0,0,0,.165-.033l.332-.14a9.216,9.216,0,0,0,1.151-.543c1.238-.732,2.334-1.412,3.351-2.08a38.787,38.787,0,0,0,5-3.832,13.851,13.851,0,0,0,4.063-5.519,9.439,9.439,0,0,0,.522-2.8A8.828,8.828,0,0,0,28.053,9.3a8.854,8.854,0,0,0-1.927-3.545,19.034,19.034,0,0,0-2.163-2.037,12.964,12.964,0,0,0-4.393-2.222,17.035,17.035,0,0,0-2.3-.5,16.94,16.94,0,0,0-2.63-.208h-.017A16.826,16.826,0,0,0,11.942,1h-.007a14.259,14.259,0,0,0-2.291.508A20.153,20.153,0,0,0,6.963,2.665a11.935,11.935,0,0,0-4.892,4.6A9.755,9.755,0,0,0,.8,11.669a8.512,8.512,0,0,0,.419,2.821,9.843,9.843,0,0,0,1.77,3.39A12.223,12.223,0,0,0,6.3,20.765,13.522,13.522,0,0,0,9.7,22.28c.53.15,1.082.259,1.569.355.461.09.9.175,1.316.284.694.177,1.146.361,1.109,1.267a8.431,8.431,0,0,1-.123.995l0,.015c-.033.2-.062.38-.092.619a3.746,3.746,0,0,0-.05.7.439.439,0,0,0,.146.305l.027-.526c.007-.142.028-.3.051-.476.031-.241.06-.422.089-.6l.006-.034a8.305,8.305,0,0,0,.121-.99c.038-.941-.387-1.223-1.238-1.441-.427-.109-.867-.2-1.291-.279l-.009,0h-.006c-.519-.1-1.056-.207-1.574-.354a13.449,13.449,0,0,1-3.365-1.5,12.088,12.088,0,0,1-3.266-2.845,9.654,9.654,0,0,1-1.741-3.33A8.368,8.368,0,0,1,.967,11.68,9.585,9.585,0,0,1,2.221,7.354,11.752,11.752,0,0,1,7.043,2.819,19.934,19.934,0,0,1,9.7,1.675a13.85,13.85,0,0,1,2.266-.5A16.7,16.7,0,0,1,14.625.957Zm0,.392v.392h0a15.716,15.716,0,0,0-2.527.2,13.294,13.294,0,0,0-2.139.47A19.081,19.081,0,0,0,7.4,3.515,10.986,10.986,0,0,0,2.9,7.752a8.809,8.809,0,0,0-1.147,3.98,7.729,7.729,0,0,0,.386,2.5,8.886,8.886,0,0,0,1.6,3.061A11.309,11.309,0,0,0,6.8,19.951a12.577,12.577,0,0,0,3.167,1.409c.5.142,1.01.241,1.5.338l.055.011c.45.089.875.174,1.3.282a2.038,2.038,0,0,1,1.828,2.235,9.34,9.34,0,0,1-.136,1.112l-.015.091c-.014.089-.028.175-.04.261a5.541,5.541,0,0,0,.579-.292c1.24-.733,2.324-1.406,3.314-2.057a37.692,37.692,0,0,0,4.88-3.736,12.7,12.7,0,0,0,3.809-5.127,8.555,8.555,0,0,0,.47-2.519,8,8,0,0,0-.381-2.4,7.907,7.907,0,0,0-1.718-3.166A17.938,17.938,0,0,0,23.362,4.46a12.048,12.048,0,0,0-4.076-2.054,15.585,15.585,0,0,0-2.165-.468,15.654,15.654,0,0,0-2.479-.2Z" transform="translate(0 0.512)" fill="#fff"/>
      </g>
    </g>
    <path id="Fill_6" data-name="Fill 6" d="M4.1,3.843q0-1.436,0-2.874A.916.916,0,0,1,4.52.126.744.744,0,0,1,5.638.592a2.143,2.143,0,0,1,.042.431q0,2.478,0,4.955a.912.912,0,0,1-.451.943.73.73,0,0,1-.976-.267c-.467-.616-.921-1.242-1.381-1.864-.4-.544-.811-1.087-1.285-1.619-.007.092-.019.184-.019.276,0,.887,0,1.776,0,2.664a.8.8,0,0,1-.514.835A.747.747,0,0,1,.045,6.421,1.654,1.654,0,0,1,0,6.053Q0,3.514,0,.974A.933.933,0,0,1,.264.21a.765.765,0,0,1,1.2.2c.5.667,1,1.342,1.492,2.013L4.032,3.878,4.1,3.843" transform="translate(12.848 9.216)" fill="#fff"/>
    <path id="Fill_8" data-name="Fill 8" d="M0,3.487C0,2.651,0,1.815,0,.979.006.285.29,0,.978,0Q2.186,0,3.394,0A.814.814,0,0,1,4.3.77a.818.818,0,0,1-.914.791c-.506,0-1.013.009-1.518,0-.232-.005-.305.083-.3.31.026.991-.148.833.819.848.372,0,.744-.01,1.115.009a.855.855,0,0,1,.783.6.733.733,0,0,1-.381.836,1.24,1.24,0,0,1-.507.1c-.5.013-1.011.013-1.516,0-.227-.005-.324.074-.311.3a5.817,5.817,0,0,1,0,.619c-.011.22.09.285.3.283.568-.007,1.136-.014,1.7.01a.751.751,0,0,1,.721.889.832.832,0,0,1-.779.643c-.908.017-1.817.02-2.725,0A.8.8,0,0,1,0,6.119C0,5.242,0,4.365,0,3.487Z" transform="translate(19.394 9.218)" fill="#fff"/>
    <path id="Fill_10" data-name="Fill 10" d="M0,3.514C0,2.658-.006,1.8.008.944A1.2,1.2,0,0,1,.142.417a.75.75,0,0,1,.831-.4A.814.814,0,0,1,1.565.8c0,1.435.009,2.869,0,4.3,0,.275.064.386.361.373.515-.024,1.033-.013,1.548,0a.813.813,0,0,1,.856.755.828.828,0,0,1-.865.794q-1.285.016-2.57,0A.859.859,0,0,1,0,6.115C0,5.249,0,4.381,0,3.514" transform="translate(5.477 9.217)" fill="#fff"/>
    <path id="Fill_12" data-name="Fill 12" d="M.009,3.51c0-.887,0-1.774,0-2.662A.791.791,0,0,1,.763,0a.824.824,0,0,1,.8.82q.012,2.693,0,5.385a.813.813,0,0,1-.785.806A.846.846,0,0,1,0,6.171C.029,5.285.009,4.4.009,3.51" transform="translate(10.363 9.221)" fill="#fff"/>
  </g>
</svg>
