<svg id="Group_5_Copy" data-name="Group 5 Copy" xmlns="http://www.w3.org/2000/svg" xmlns:xlink="http://www.w3.org/1999/xlink" width="40" height="40" viewBox="0 0 40 40">
  <defs>
    <clipPath id="clip-path">
      <path id="Clip_2" data-name="Clip 2" d="M0,0H8.966V18.9H0Z" transform="translate(0 0)" fill="none"/>
    </clipPath>
  </defs>
  <path id="Rectangle" d="M5,0H40a0,0,0,0,1,0,0V35a5,5,0,0,1-5,5H5a5,5,0,0,1-5-5V5A5,5,0,0,1,5,0Z" fill="#3b5999"/>
  <g id="Group_3" data-name="Group 3" transform="translate(15.686 10.196)">
    <path id="Clip_2-2" data-name="Clip 2" d="M0,0H8.966V18.9H0Z" transform="translate(0 0)" fill="none"/>
    <g id="Group_3-2" data-name="Group 3" clip-path="url(#clip-path)">
      <path id="Fill_1" data-name="Fill 1" d="M1.678,18.9V9.019H0V6.082H1.678v-.5A5.846,5.846,0,0,1,3.3,1.285,5.193,5.193,0,0,1,6.844,0,7.662,7.662,0,0,1,8.967.262L8.81,3.329a4.337,4.337,0,0,0-1.285-.183c-1.311,0-1.86,1.022-1.86,2.281v.655H8.233V9.019H5.69V18.9Z" transform="translate(-0.001 0)" fill="#fff"/>
    </g>
  </g>
</svg>
