<svg xmlns="http://www.w3.org/2000/svg" xmlns:xlink="http://www.w3.org/1999/xlink" width="22.598" height="26.829" viewBox="0 0 22.598 26.829">
  <defs>
    <clipPath id="clip-path">
      <path id="Clip_2" data-name="Clip 2" d="M0,0H15.18V15.183H0Z" transform="translate(0.738 0.171)" fill="none"/>
    </clipPath>
    <clipPath id="clip-path-2">
      <path id="Clip_5" data-name="Clip 5" d="M0,0H22.6V10.929H0Z" transform="translate(0 0.071)" fill="none"/>
    </clipPath>
  </defs>
  <g id="Group_9_Copy" data-name="Group 9 Copy" transform="translate(0 -1.171)">
    <g id="Group_3" data-name="Group 3" transform="translate(3 1)">
      <path id="Clip_2-2" data-name="Clip 2" d="M0,0H15.18V15.183H0Z" transform="translate(0.738 0.171)" fill="none"/>
      <g id="Group_3-2" data-name="Group 3" clip-path="url(#clip-path)">
        <path id="Fill_1" data-name="Fill 1" d="M0,7.59A7.59,7.59,0,1,0,7.59,0,7.591,7.591,0,0,0,0,7.59" transform="translate(0.738 0.171)" fill="#81b6c8"/>
      </g>
    </g>
    <g id="Group_6" data-name="Group 6" transform="translate(0 17)">
      <path id="Clip_5-2" data-name="Clip 5" d="M0,0H22.6V10.929H0Z" transform="translate(0 0.071)" fill="none"/>
      <g id="Group_6-2" data-name="Group 6" clip-path="url(#clip-path-2)">
        <path id="Fill_4" data-name="Fill 4" d="M22.6,10.93H0V7.358A7.191,7.191,0,0,1,6.994,0h8.611A7.19,7.19,0,0,1,22.6,7.358v3.571ZM7.4.777c-.142,0-.284.011-.421.021L6.924.8l1.6,8.864h5.544L15.674.8,15.62.8c-.137-.01-.277-.021-.419-.021Z" transform="translate(0 0.071)" fill="#81b6c8"/>
      </g>
    </g>
    <path id="Fill_7" data-name="Fill 7" d="M5.4,2.967,6.287,9H7.351L9,.026C8.838.013,8.677,0,8.513,0H.489C.323,0,.161.013,0,.026L1.649,9H2.712L3.6,2.967H3.63L2.759,1.311H6.241l-.87,1.656Z" transform="translate(7 18)" fill="#81b6c8"/>
  </g>
</svg>
