<?xml version="1.0" encoding="utf-8"?>
<!-- Generator: Adobe Illustrator 24.1.1, SVG Export Plug-In . SVG Version: 6.00 Build 0)  -->
<svg version="1.1" id="圖層_1" xmlns="http://www.w3.org/2000/svg" xmlns:xlink="http://www.w3.org/1999/xlink" x="0px" y="0px"
	 width="17.4px" height="20.3px" viewBox="0 0 17.4 20.3" style="enable-background:new 0 0 17.4 20.3;" xml:space="preserve">
<style type="text/css">
	.st0{fill:#9B9B9B;}
	.st1{fill:none;}
	.st2{clip-path:url(#SVGID_2_);}
</style>
<path id="Fill_3" class="st0" d="M1.8,20.3h13.4c0.8,0.1,1.5-0.3,1.8-1H0C0.3,20,1.1,20.4,1.8,20.3"/>
<g id="Group_7">
	<path id="Clip_6-2" class="st1" d="M0,0h17.4v19.3H0V0z"/>
	<g>
		<defs>
			<rect id="SVGID_1_" y="0" width="17.4" height="19.3"/>
		</defs>
		<clipPath id="SVGID_2_">
			<use xlink:href="#SVGID_1_"  style="overflow:visible;"/>
		</clipPath>
		<g id="Group_7-2" class="st2">
			<path id="Fill_5" class="st0" d="M17.4,19.3H0V9.8c0-0.7,0.5-1.2,1.2-1.2h1.2V5.9c0-2.1,1.1-4,3-5C6.4,0.3,7.6,0,8.7,0
				C12.2,0,15,2.8,15,6.3h0v2.3h1.3c0.7,0,1.2,0.5,1.2,1.2V19.3L17.4,19.3z M8.7,12.3c-0.4,0-0.7,0.1-1,0.3
				c-0.1,0.1-0.2,0.1-0.2,0.2c-0.3,0.4-0.4,0.9-0.3,1.3c0.1,0.4,0.3,0.8,0.7,1v1.5h1.6v-1.5c0.7-0.4,0.9-1.4,0.5-2.1
				C9.7,12.6,9.2,12.3,8.7,12.3z M8.7,2.8C7.9,2.8,7.2,3,6.5,3.4C5.7,4,5.2,4.9,5.2,5.9v2.7h7V5.9C12,4.1,10.5,2.8,8.7,2.8L8.7,2.8z
				"/>
		</g>
	</g>
</g>
</svg>
