<svg xmlns="http://www.w3.org/2000/svg" xmlns:xlink="http://www.w3.org/1999/xlink" width="14" height="9.739" viewBox="0 0 14 9.739">
  <defs>
    <clipPath id="clip-path">
      <path id="Clip_2" data-name="Clip 2" d="M0,0H10.956V2.435H0Z" transform="translate(0.044 0.261)" fill="none"/>
    </clipPath>
    <clipPath id="clip-path-2">
      <path id="Clip_5" data-name="Clip 5" d="M0,0H10.956V2.435H0Z" transform="translate(0.044 0.913)" fill="none"/>
    </clipPath>
    <clipPath id="clip-path-3">
      <path id="Clip_8" data-name="Clip 8" d="M0,0H10.956V2.435H0Z" transform="translate(0.044 0.565)" fill="none"/>
    </clipPath>
    <clipPath id="clip-path-4">
      <path id="Clip_11" data-name="Clip 11" d="M0,0H2.435V2.435H0Z" transform="translate(0 0.261)" fill="none"/>
    </clipPath>
    <clipPath id="clip-path-5">
      <path id="Clip_14" data-name="Clip 14" d="M0,0H2.435V2.434H0Z" transform="translate(0 0.913)" fill="none"/>
    </clipPath>
    <clipPath id="clip-path-6">
      <path id="Clip_17" data-name="Clip 17" d="M0,0H2.435V2.434H0Z" transform="translate(0 0.566)" fill="none"/>
    </clipPath>
  </defs>
  <g id="Group_19_Copy_3" data-name="Group 19 Copy 3" transform="translate(0 -1)">
    <g id="Group_3" data-name="Group 3" transform="translate(3 0.739)">
      <path id="Clip_2-2" data-name="Clip 2" d="M0,0H10.956V2.435H0Z" transform="translate(0.044 0.261)" fill="none"/>
      <g id="Group_3-2" data-name="Group 3" clip-path="url(#clip-path)">
        <path id="Fill_1" data-name="Fill 1" d="M9.738,2.435H1.217A1.218,1.218,0,0,1,1.217,0H9.738a1.218,1.218,0,1,1,0,2.435" transform="translate(0.044 0.261)" fill="#81B6C8"/>
      </g>
    </g>
    <g id="Group_6" data-name="Group 6" transform="translate(3 3.739)">
      <path id="Clip_5-2" data-name="Clip 5" d="M0,0H10.956V2.435H0Z" transform="translate(0.044 0.913)" fill="none"/>
      <g id="Group_6-2" data-name="Group 6" clip-path="url(#clip-path-2)">
        <path id="Fill_4" data-name="Fill 4" d="M9.738,2.435H1.217A1.218,1.218,0,0,1,1.217,0H9.738a1.218,1.218,0,1,1,0,2.435" transform="translate(0.044 0.913)" fill="#81B6C8"/>
      </g>
    </g>
    <g id="Group_9" data-name="Group 9" transform="translate(3 7.739)">
      <path id="Clip_8-2" data-name="Clip 8" d="M0,0H10.956V2.435H0Z" transform="translate(0.044 0.565)" fill="none"/>
      <g id="Group_9-2" data-name="Group 9" clip-path="url(#clip-path-3)">
        <path id="Fill_7" data-name="Fill 7" d="M9.738,2.435H1.217A1.218,1.218,0,0,1,1.217,0H9.738a1.218,1.218,0,1,1,0,2.435" transform="translate(0.044 0.565)" fill="#81B6C8"/>
      </g>
    </g>
    <g id="Group_12" data-name="Group 12" transform="translate(0 0.739)">
      <path id="Clip_11-2" data-name="Clip 11" d="M0,0H2.435V2.435H0Z" transform="translate(0 0.261)" fill="none"/>
      <g id="Group_12-2" data-name="Group 12" clip-path="url(#clip-path-4)">
        <path id="Fill_10" data-name="Fill 10" d="M2.435,1.217A1.218,1.218,0,1,1,1.218,0,1.218,1.218,0,0,1,2.435,1.217" transform="translate(0 0.261)" fill="#81B6C8"/>
      </g>
    </g>
    <g id="Group_15" data-name="Group 15" transform="translate(0 3.739)">
      <path id="Clip_14-2" data-name="Clip 14" d="M0,0H2.435V2.434H0Z" transform="translate(0 0.913)" fill="none"/>
      <g id="Group_15-2" data-name="Group 15" clip-path="url(#clip-path-5)">
        <path id="Fill_13" data-name="Fill 13" d="M2.435,1.217A1.218,1.218,0,1,1,1.218,0,1.217,1.217,0,0,1,2.435,1.217" transform="translate(0 0.913)" fill="#81B6C8"/>
      </g>
    </g>
    <g id="Group_18" data-name="Group 18" transform="translate(0 7.739)">
      <path id="Clip_17-2" data-name="Clip 17" d="M0,0H2.435V2.434H0Z" transform="translate(0 0.566)" fill="none"/>
      <g id="Group_18-2" data-name="Group 18" clip-path="url(#clip-path-6)">
        <path id="Fill_16" data-name="Fill 16" d="M2.435,1.217A1.218,1.218,0,1,1,1.218,0,1.217,1.217,0,0,1,2.435,1.217" transform="translate(0 0.566)" fill="#81B6C8"/>
      </g>
    </g>
  </g>
</svg>
