<svg id="Group_3_Copy_3" data-name="Group 3 Copy 3" xmlns="http://www.w3.org/2000/svg" xmlns:xlink="http://www.w3.org/1999/xlink" width="16.75" height="15.48" viewBox="0 0 16.75 15.48">
  <defs>
    <clipPath id="clip-path">
      <path id="Clip_2" data-name="Clip 2" d="M0,0H16.75V15.48H0Z" fill="rgba(0,0,0,0)"/>
    </clipPath>
  </defs>
  <path id="Clip_2-2" data-name="Clip 2" d="M0,0H16.75V15.48H0Z" fill="none"/>
  <g id="Group_3_Copy_3-2" data-name="Group 3 Copy 3" clip-path="url(#clip-path)">
    <path id="Fill_1" data-name="Fill 1" d="M8.375,15.48h0l-6.9-6.9a5.029,5.029,0,0,1,0-7.1,5.022,5.022,0,0,1,6.906-.185,5.023,5.023,0,0,1,6.908,7.289l-6.908,6.9ZM5.02,2A3.023,3.023,0,0,0,2.883,7.16l5.492,5.492L13.868,7.16A3.023,3.023,0,0,0,9.593,2.885L8.375,4.1,7.158,2.885A3.006,3.006,0,0,0,5.02,2Z" transform="translate(0)" fill="#81B6C8"/>
  </g>
</svg>
