<svg xmlns="http://www.w3.org/2000/svg" xmlns:xlink="http://www.w3.org/1999/xlink" width="14.474" height="14.475" viewBox="0 0 14.474 14.475">
  <defs>
    <clipPath id="clip-path">
      <path id="Clip_4" data-name="Clip 4" d="M0,0H14.474V14.475H0Z" transform="translate(0 0.525)" fill="none"/>
    </clipPath>
  </defs>
  <g id="Group_10_Copy" data-name="Group 10 Copy" transform="translate(0 -1)">
    <path id="Fill_1" data-name="Fill 1" d="M6.744,13.474a6.738,6.738,0,0,1-4.087-12.1A6.748,6.748,0,0,1,12.1,2.658,6.747,6.747,0,0,1,10.817,12.1,6.675,6.675,0,0,1,6.744,13.474ZM6.73.385a6.344,6.344,0,0,0-6.286,5.5,6.347,6.347,0,0,0,6.3,7.208A6.29,6.29,0,0,0,10.584,11.8,6.353,6.353,0,0,0,6.73.385Z" transform="translate(0.5 1.499)" fill="#81b6c8"/>
    <g id="Group_5" data-name="Group 5" transform="translate(0 0.475)">
      <path id="Clip_4-2" data-name="Clip 4" d="M0,0H14.474V14.475H0Z" transform="translate(0 0.525)" fill="none"/>
      <g id="Group_5-2" data-name="Group 5" clip-path="url(#clip-path)">
        <path id="Fill_3" data-name="Fill 3" d="M7.255,14.475a7.447,7.447,0,0,1-.994-.067A7.237,7.237,0,0,1,2.854,1.474,7.25,7.25,0,0,1,13,2.854,7.249,7.249,0,0,1,11.62,13,7.15,7.15,0,0,1,7.255,14.475ZM7.231,1.384a5.854,5.854,0,0,0-4.652,9.4A5.854,5.854,0,1,0,11.9,3.693,5.809,5.809,0,0,0,7.231,1.384Z" transform="translate(0 0.525)" fill="#81b6c8"/>
      </g>
    </g>
    <path id="Fill_6" data-name="Fill 6" d="M.83,0A.815.815,0,0,0,.24.234.78.78,0,0,0,0,.813a.758.758,0,0,0,.249.6.86.86,0,0,0,.581.215A.828.828,0,0,0,1.4,1.414a.763.763,0,0,0,.246-.6A.8.8,0,0,0,.83,0" transform="translate(6.342 10.737)" fill="#81b6c8"/>
    <path id="Fill_8" data-name="Fill 8" d="M5.129,1.086A2.254,2.254,0,0,0,4.192.292,3.172,3.172,0,0,0,2.8,0,3.057,3.057,0,0,0,1.3.349a2.571,2.571,0,0,0-.972.882A1.974,1.974,0,0,0,0,2.282a.658.658,0,0,0,.21.466.694.694,0,0,0,.517.215q.518,0,.7-.616a2.408,2.408,0,0,1,.48-.892,1.155,1.155,0,0,1,.884-.3,1.19,1.19,0,0,1,.839.3.966.966,0,0,1,.324.737.84.84,0,0,1-.106.415,1.634,1.634,0,0,1-.262.346q-.158.156-.5.461a8.554,8.554,0,0,0-.634.6,2.027,2.027,0,0,0-.377.589,2.063,2.063,0,0,0-.141.794.728.728,0,0,0,.194.552.662.662,0,0,0,.478.185.607.607,0,0,0,.649-.568c.04-.178.07-.3.09-.374a1.2,1.2,0,0,1,.085-.212A1.227,1.227,0,0,1,3.6,4.746a3.963,3.963,0,0,1,.3-.3q.671-.6.93-.855a2.466,2.466,0,0,0,.448-.6,1.684,1.684,0,0,0,.188-.814,1.95,1.95,0,0,0-.33-1.091" transform="translate(4.507 4.105)" fill="#81b6c8"/>
  </g>
</svg>
