<svg xmlns="http://www.w3.org/2000/svg" xmlns:xlink="http://www.w3.org/1999/xlink" width="22" height="22" viewBox="0 0 22 22">
  <defs>
    <clipPath id="clip-path">
      <path id="Clip_2" data-name="Clip 2" d="M0,0H14V11H0Z" fill="none"/>
    </clipPath>
  </defs>
  <g id="Group_17" data-name="Group 17" transform="translate(1 1)">
    <circle id="Oval_Copy_15" data-name="Oval Copy 15" cx="10" cy="10" r="10" fill="#84be98" stroke="#84be98" stroke-miterlimit="10" stroke-width="2"/>
    <g id="Group_3_Copy" data-name="Group 3 Copy" transform="translate(4 5)">
      <path id="Clip_2-2" data-name="Clip 2" d="M0,0H14V11H0Z" fill="none"/>
      <g id="Group_3_Copy-2" data-name="Group 3 Copy" clip-path="url(#clip-path)">
        <path id="Fill_1" data-name="Fill 1" d="M13.574.48a1.423,1.423,0,0,0-2.11-.024L5.039,7.174l-2.5-2.612a1.427,1.427,0,0,0-2.11.026A1.673,1.673,0,0,0,.45,6.843l3.545,3.7a1.426,1.426,0,0,0,2.088,0l7.468-7.81A1.637,1.637,0,0,0,14,1.613,1.644,1.644,0,0,0,13.574.48" fill="#fff"/>
      </g>
    </g>
  </g>
</svg>
