<svg xmlns="http://www.w3.org/2000/svg" xmlns:xlink="http://www.w3.org/1999/xlink" width="21" height="21" viewBox="0 0 21 21">
  <defs>
    <clipPath id="clip-path">
      <path id="Clip_2" data-name="Clip 2" d="M0,0H10.913V10.913H0Z" transform="translate(0 0.087)" fill="none"/>
    </clipPath>
  </defs>
  <g id="Group_3" data-name="Group 3" transform="translate(-600.5 -758.5)">
    <circle id="Oval" cx="10" cy="10" r="10" transform="translate(601 759)" fill="#fff" stroke="#81b6c8" stroke-miterlimit="10" stroke-width="1"/>
    <g id="Group_8" data-name="Group 8" transform="translate(606 763)">
      <g id="Group_3-2" data-name="Group 3" transform="translate(0 0.913)">
        <path id="Clip_2-2" data-name="Clip 2" d="M0,0H10.913V10.913H0Z" transform="translate(0 0.087)" fill="none"/>
        <g id="Group_3-3" data-name="Group 3" clip-path="url(#clip-path)">
          <path id="Fill_1" data-name="Fill 1" d="M10.913,5.457A5.457,5.457,0,1,1,5.457,0a5.456,5.456,0,0,1,5.456,5.457" transform="translate(0 0.087)" fill="#81b6c8"/>
        </g>
      </g>
      <path id="Fill_4" data-name="Fill 4" d="M.181,1.077A.634.634,0,0,1,.642,0L4.327.043A.634.634,0,1,1,4.312,1.31L.627,1.268a.636.636,0,0,1-.446-.191" transform="translate(4.989 5.716)" fill="#fff"/>
      <path id="Fill_6" data-name="Fill 6" d="M1.172,4.757A.634.634,0,0,1,.08,4.332L0,.648A.634.634,0,1,1,1.268.62l.08,3.685a.631.631,0,0,1-.176.452" transform="translate(4.989 2.074)" fill="#fff"/>
    </g>
  </g>
</svg>
