<svg xmlns="http://www.w3.org/2000/svg" xmlns:xlink="http://www.w3.org/1999/xlink" width="21" height="21" viewBox="0 0 21 21">
  <defs>
    <clipPath id="clip-path">
      <path id="Clip_4" data-name="Clip 4" d="M0,0H11.953V11.955H0Z" transform="translate(0 0.045)" fill="none"/>
    </clipPath>
    <clipPath id="clip-path-2">
      <path id="Clip_7" data-name="Clip 7" d="M0,11.955H11.953V0H0Z" transform="translate(0 1)" fill="none"/>
    </clipPath>
  </defs>
  <g id="Group_4" data-name="Group 4" transform="translate(-713.5 -758.5)">
    <circle id="Oval_Copy_6" data-name="Oval Copy 6" cx="10" cy="10" r="10" transform="translate(714 759)" fill="#fff" stroke="#81b6c8" stroke-miterlimit="10" stroke-width="1"/>
    <g id="Group_19" data-name="Group 19" transform="translate(718 762)">
      <path id="Fill_1" data-name="Fill 1" d="M5.852,11.705A5.853,5.853,0,1,1,11.7,5.853,5.859,5.859,0,0,1,5.852,11.705Zm0-11.2A5.346,5.346,0,1,0,11.2,5.853,5.352,5.352,0,0,0,5.852.507Z" transform="translate(0.125 1.125)" fill="#81b6c8"/>
      <g id="Group_5" data-name="Group 5" transform="translate(0 0.955)">
        <path id="Clip_4-2" data-name="Clip 4" d="M0,0H11.953V11.955H0Z" transform="translate(0 0.045)" fill="none"/>
        <g id="Group_5-2" data-name="Group 5" clip-path="url(#clip-path)">
          <path id="Fill_3" data-name="Fill 3" d="M5.977,11.955a5.977,5.977,0,1,1,5.977-5.977A5.984,5.984,0,0,1,5.977,11.955Zm0-11.7A5.728,5.728,0,1,0,11.7,5.978,5.734,5.734,0,0,0,5.977.25Zm0,11.2a5.471,5.471,0,1,1,5.471-5.47A5.477,5.477,0,0,1,5.977,11.448Zm0-10.691A5.22,5.22,0,1,0,11.2,5.978,5.227,5.227,0,0,0,5.977.757Z" transform="translate(0 0.045)" fill="#81b6c8"/>
        </g>
      </g>
      <path id="Clip_7-2" data-name="Clip 7" d="M0,11.955H11.953V0H0Z" transform="translate(0 1)" fill="none"/>
      <g id="Mask_Group_5" data-name="Mask Group 5" clip-path="url(#clip-path-2)">
        <path id="Fill_6" data-name="Fill 6" d="M0,.753H11.2V.247H0Z" transform="translate(0.378 6.477)" fill="#81b6c8"/>
        <path id="Fill_8" data-name="Fill 8" d="M11.447.757H0V0H11.447V.756ZM.25.25V.507H11.2V.25Z" transform="translate(0.253 6.599)" fill="#81b6c8"/>
        <path id="Fill_9" data-name="Fill 9" d="M.247,11.2H.753V0H.247Z" transform="translate(5.476 1.379)" fill="#81b6c8"/>
        <path id="Fill_10" data-name="Fill 10" d="M.907,11.448H0V0H.907V11.447ZM.3.25V11.2H.608V.25Z" transform="translate(5.598 1.254)" fill="#81b6c8"/>
        <path id="Fill_11" data-name="Fill 11" d="M.253,1.444A.253.253,0,0,1,.149.96,13.63,13.63,0,0,1,5.319,0a13.622,13.622,0,0,1,5.169.96.253.253,0,1,1-.207.462A13.357,13.357,0,0,0,5.319.507a13.319,13.319,0,0,0-4.962.915.256.256,0,0,1-.1.022" transform="translate(0.657 3.401)" fill="#81b6c8"/>
        <path id="Fill_12" data-name="Fill 12" d="M10.508,1.694a.385.385,0,0,1-.155-.032,13.151,13.151,0,0,0-4.91-.9,13.08,13.08,0,0,0-4.91.9.355.355,0,0,1-.147.031.391.391,0,0,1-.353-.22.38.38,0,0,1,.19-.5A13.761,13.761,0,0,1,5.444,0a13.628,13.628,0,0,1,5.22.971.378.378,0,0,1-.156.723ZM5.444.507a13.5,13.5,0,0,1,5.013.926.117.117,0,0,0,.052.012.131.131,0,0,0,.045-.008.133.133,0,0,0,.075-.068.13.13,0,0,0-.066-.169A13.439,13.439,0,0,0,5.444.25,13.534,13.534,0,0,0,.326,1.2a.13.13,0,0,0-.066.17.132.132,0,0,0,.12.074.12.12,0,0,0,.049-.01A13.5,13.5,0,0,1,5.444.507Z" transform="translate(0.532 3.276)" fill="#81b6c8"/>
        <path id="Fill_13" data-name="Fill 13" d="M5.32,1.444A13.63,13.63,0,0,1,.15.484.253.253,0,1,1,.357.022,13.4,13.4,0,0,0,5.32.937,13.387,13.387,0,0,0,10.282.022a.253.253,0,1,1,.207.462,13.622,13.622,0,0,1-5.169.96" transform="translate(0.657 9.109)" fill="#81b6c8"/>
        <path id="Fill_14" data-name="Fill 14" d="M5.445,1.694A13.836,13.836,0,0,1,.226.725a.381.381,0,0,1-.194-.5A.385.385,0,0,1,.379,0,.364.364,0,0,1,.534.034a13.314,13.314,0,0,0,4.911.9,13.3,13.3,0,0,0,4.907-.9A.364.364,0,0,1,10.509,0a.371.371,0,0,1,.13.024.381.381,0,0,1,.217.2.379.379,0,0,1-.191.5A13.84,13.84,0,0,1,5.445,1.694ZM.379.25A.127.127,0,0,0,.262.328a.125.125,0,0,0,0,.1A.127.127,0,0,0,.326.5a13.372,13.372,0,0,0,5.119.949A13.373,13.373,0,0,0,10.564.5a.129.129,0,0,0,.064-.169.133.133,0,0,0-.076-.067A.1.1,0,0,0,10.51.249a.117.117,0,0,0-.05.012,13.291,13.291,0,0,1-5.015.926A13.43,13.43,0,0,1,.431.261.132.132,0,0,0,.379.25Z" transform="translate(0.531 8.984)" fill="#81b6c8"/>
        <path id="Fill_15" data-name="Fill 15" d="M1.2,9.542A.252.252,0,0,1,.973,9.4C-1.17,5,.882.345.971.149a.252.252,0,1,1,.46.208C1.411.4-.609,5,1.429,9.178a.254.254,0,0,1-.117.338.247.247,0,0,1-.111.026" transform="translate(8.081 2.207)" fill="#81b6c8"/>
        <path id="Fill_16" data-name="Fill 16" d="M1.329,9.792a.376.376,0,0,1-.34-.211C-1.183,5.124.894.421.984.223A.381.381,0,0,1,1.2.024.373.373,0,0,1,1.33,0a.366.366,0,0,1,.155.034.377.377,0,0,1,.19.5c-.021.045-2.008,4.6-.005,8.716a.369.369,0,0,1,.017.288.373.373,0,0,1-.191.217A.383.383,0,0,1,1.329,9.792ZM1.33.25a.124.124,0,0,0-.045.008.122.122,0,0,0-.072.068C1.125.519-.91,5.11,1.214,9.47a.128.128,0,0,0,.115.073.125.125,0,0,0,.057-.014.131.131,0,0,0,.064-.073.123.123,0,0,0-.006-.1c-2.065-4.24-.019-8.88,0-8.926A.128.128,0,0,0,1.381.261.117.117,0,0,0,1.33.25Z" transform="translate(7.953 2.082)" fill="#81b6c8"/>
        <path id="Fill_17" data-name="Fill 17" d="M.253,9.543a.247.247,0,0,1-.111-.026.254.254,0,0,1-.117-.338C2.066,4.992.043.4.023.358A.252.252,0,1,1,.483.15C.572.346,2.625,5,.481,9.4a.252.252,0,0,1-.228.143" transform="translate(2.417 2.206)" fill="#81b6c8"/>
        <path id="Fill_18" data-name="Fill 18" d="M.379,9.793a.369.369,0,0,1-.166-.04.367.367,0,0,1-.191-.217.366.366,0,0,1,.017-.288C2.033,5.157.054.578.033.534a.379.379,0,0,1,.189-.5A.384.384,0,0,1,.379,0,.407.407,0,0,1,.513.023a.381.381,0,0,1,.211.2C.813.422,2.9,5.114.718,9.58A.375.375,0,0,1,.379,9.793Zm0-9.544A.124.124,0,0,0,.326.262a.127.127,0,0,0-.063.17c.083.194,2.015,4.793,0,8.925a.124.124,0,0,0-.006.1.128.128,0,0,0,.064.075.133.133,0,0,0,.055.012.13.13,0,0,0,.117-.071C2.618,5.115.583.52.5.327A.128.128,0,0,0,.424.257.156.156,0,0,0,.379.249Z" transform="translate(2.291 2.081)" fill="#81b6c8"/>
      </g>
    </g>
  </g>
</svg>
