<svg xmlns="http://www.w3.org/2000/svg" xmlns:xlink="http://www.w3.org/1999/xlink" width="24" height="24" viewBox="0 0 24 24">
  <defs>
    <clipPath id="clip-path">
      <path id="Clip_2" data-name="Clip 2" d="M0,0H16V11H0Z" fill="none"/>
    </clipPath>
  </defs>
  <g id="Group_2" data-name="Group 2" transform="translate(-486 -2135)">
    <g id="Group_30_Copy_6" data-name="Group 30 Copy 6" transform="translate(486 2135)">
      <circle id="Oval" cx="12" cy="12" r="12" fill="#558c9e"/>
      <g id="Group_3_Copy_2" data-name="Group 3 Copy 2" transform="translate(4 7)">
        <path id="Clip_2-2" data-name="Clip 2" d="M0,0H16V11H0Z" fill="none"/>
        <g id="Group_3_Copy_2-2" data-name="Group 3 Copy 2" clip-path="url(#clip-path)">
          <path id="Fill_1" data-name="Fill 1" d="M14.294,0A1.759,1.759,0,0,0,13.1.456L5.759,7.174,2.9,4.562a1.763,1.763,0,0,0-1.193-.453,1.753,1.753,0,0,0-1.22.479A1.523,1.523,0,0,0,.514,6.843l4.052,3.7a1.793,1.793,0,0,0,2.386,0l8.536-7.81A1.524,1.524,0,0,0,15.514.48,1.756,1.756,0,0,0,14.294,0Z" fill="#fff"/>
        </g>
      </g>
    </g>
  </g>
</svg>
