<svg xmlns="http://www.w3.org/2000/svg" xmlns:xlink="http://www.w3.org/1999/xlink" width="17.808" height="19" viewBox="0 0 17.808 19">
  <defs>
    <clipPath id="clip-path">
      <path id="Clip_4" data-name="Clip 4" d="M0,0H9.809V19H0Z" transform="translate(0.999)" fill="none"/>
    </clipPath>
  </defs>
  <g id="Group_6_Copy" data-name="Group 6 Copy" transform="translate(0)">
    <path id="Fill_1" data-name="Fill 1" d="M4.248.364.256,6.2a1.717,1.717,0,0,0,0,1.8A.7.7,0,0,0,1.489,8L3.781,4.653V17.3c0,.939.52,1.7,1.163,1.7s1.163-.761,1.163-1.7V4.768L8.319,8A.7.7,0,0,0,9.553,8a1.715,1.715,0,0,0,0-1.8L5.56.364A.729.729,0,0,0,4.9,0a.731.731,0,0,0-.656.362" transform="translate(0 0)" fill="#80b5c7"/>
    <g id="Group_5" data-name="Group 5" transform="translate(7)">
      <path id="Clip_4-2" data-name="Clip 4" d="M0,0H9.809V19H0Z" transform="translate(0.999)" fill="none"/>
      <g id="Group_5-2" data-name="Group 5" clip-path="url(#clip-path)">
        <path id="Fill_3" data-name="Fill 3" d="M5.561,18.637,9.553,12.8a1.717,1.717,0,0,0,0-1.8A.7.7,0,0,0,8.32,11L6.028,14.348V1.7c0-.938-.52-1.7-1.163-1.7S3.7.762,3.7,1.7V14.233L1.49,11A.7.7,0,0,0,.256,11a1.715,1.715,0,0,0,0,1.8l3.993,5.835a.775.775,0,0,0,1.312,0" transform="translate(0.999 -0.001)" fill="#80b5c7"/>
      </g>
    </g>
  </g>
</svg>
