<svg xmlns="http://www.w3.org/2000/svg" xmlns:xlink="http://www.w3.org/1999/xlink" width="24" height="24" viewBox="0 0 24 24">
  <defs>
    <clipPath id="clip-path">
      <path id="Clip_2" data-name="Clip 2" d="M0,0H15V11H0Z" fill="none"/>
    </clipPath>
  </defs>
  <g id="Group_30_Copy_5" data-name="Group 30 Copy 5" transform="translate(0.5 0.5)">
    <circle id="Oval" cx="11.5" cy="11.5" r="11.5" fill="#558c9e" stroke="#d0e3d6" stroke-miterlimit="10" stroke-width="1"/>
    <g id="Group_3_Copy_2" data-name="Group 3 Copy 2" transform="translate(4 6)">
      <path id="Clip_2-2" data-name="Clip 2" d="M0,0H15V11H0Z" fill="none"/>
      <g id="Group_3_Copy_2-2" data-name="Group 3 Copy 2" clip-path="url(#clip-path)">
        <path id="Fill_1" data-name="Fill 1" d="M13.4,0a1.592,1.592,0,0,0-1.119.456L5.4,7.174,2.717,4.562a1.605,1.605,0,0,0-2.262.026A1.592,1.592,0,0,0,.482,6.843l3.8,3.7a1.6,1.6,0,0,0,2.237,0l8-7.81A1.6,1.6,0,0,0,13.4,0Z" fill="#fff"/>
      </g>
    </g>
  </g>
</svg>
