<svg id="Group_7" data-name="Group 7" xmlns="http://www.w3.org/2000/svg" xmlns:xlink="http://www.w3.org/1999/xlink" width="15.042" height="16" viewBox="0 0 15.042 16">
  <defs>
    <clipPath id="clip-path">
      <path id="Clip_2" data-name="Clip 2" d="M0,0H15.042V6.746H0Z" transform="translate(0 0.254)" fill="none"/>
    </clipPath>
    <clipPath id="clip-path-2">
      <path id="Clip_5" data-name="Clip 5" d="M0,16H15V0H0Z" fill="none"/>
    </clipPath>
  </defs>
  <g id="Group_3" data-name="Group 3" transform="translate(0 9)">
    <path id="Clip_2-2" data-name="Clip 2" d="M0,0H15.042V6.746H0Z" transform="translate(0 0.254)" fill="none"/>
    <g id="Group_3-2" data-name="Group 3" clip-path="url(#clip-path)">
      <path id="Fill_1" data-name="Fill 1" d="M13.65,0l-1.9.029.017,1.248,1.9-.029a.1.1,0,0,1,.094.092l.056,3.871a.1.1,0,0,1-.09.1L1.374,5.5A.1.1,0,0,1,1.28,5.4L1.223,1.533a.093.093,0,0,1,.09-.095l1.9-.029L3.191.161,1.3.19A1.331,1.331,0,0,0,0,1.553l.056,3.87A1.33,1.33,0,0,0,1.391,6.746l12.355-.189a1.332,1.332,0,0,0,1.3-1.364l-.057-3.87A1.33,1.33,0,0,0,13.65,0" transform="translate(0 0.254)" fill="#707475"/>
    </g>
  </g>
  <path id="Clip_5-2" data-name="Clip 5" d="M0,16H15V0H0Z" fill="none"/>
  <g id="Mask_Group_5" data-name="Mask Group 5" clip-path="url(#clip-path-2)">
    <path id="Fill_4" data-name="Fill 4" d="M0,7H6V0H0Z" transform="translate(5 5)" fill="#707475"/>
    <path id="Fill_6" data-name="Fill 6" d="M12,6H0L6,0Z" transform="translate(2)" fill="#707475"/>
  </g>
</svg>
