<svg id="Group_37_Copy" data-name="Group 37 Copy" xmlns="http://www.w3.org/2000/svg" xmlns:xlink="http://www.w3.org/1999/xlink" width="40" height="34" viewBox="0 0 40 34">
  <defs>
    <clipPath id="clip-path">
      <path id="Clip_6" data-name="Clip 6" d="M0,0H3.879V14.9H0Z" transform="translate(0.605 1.101)" fill="none"/>
    </clipPath>
    <clipPath id="clip-path-2">
      <path id="Clip_9" data-name="Clip 9" d="M0,0H3.88V14.9H0Z" transform="translate(1.067 1.101)" fill="none"/>
    </clipPath>
    <clipPath id="clip-path-3">
      <path id="Clip_24" data-name="Clip 24" d="M0,0H3.879V14.9H0Z" transform="translate(0.304 1.101)" fill="none"/>
    </clipPath>
    <clipPath id="clip-path-4">
      <path id="Clip_27" data-name="Clip 27" d="M0,0H3.88V14.9H0Z" transform="translate(1.09 1.101)" fill="none"/>
    </clipPath>
  </defs>
  <path id="Fill_1" data-name="Fill 1" d="M4.5.4A3,3,0,1,1,.4,1.5,3,3,0,0,1,4.5.4" transform="translate(28)" fill="#81b6c8"/>
  <path id="Fill_3" data-name="Fill 3" d="M7.727,13H1.273A1.276,1.276,0,0,1,0,11.729V1.27A1.275,1.275,0,0,1,1.273,0H7.727A1.275,1.275,0,0,1,9,1.27v10.46A1.276,1.276,0,0,1,7.727,13" transform="translate(26 7)" fill="#81b6c8"/>
  <g id="Group_7" data-name="Group 7" transform="translate(30 18)">
    <path id="Clip_6-2" data-name="Clip 6" d="M0,0H3.879V14.9H0Z" transform="translate(0.605 1.101)" fill="none"/>
    <g id="Group_7-2" data-name="Group 7" clip-path="url(#clip-path)">
      <path id="Fill_5" data-name="Fill 5" d="M0,13.429V1.471A1.548,1.548,0,0,1,1.607,0H2.27A1.55,1.55,0,0,1,3.879,1.471V13.429A1.55,1.55,0,0,1,2.27,14.9H1.607A1.548,1.548,0,0,1,0,13.429" transform="translate(0.605 1.101)" fill="#81b6c8"/>
    </g>
  </g>
  <g id="Group_10" data-name="Group 10" transform="translate(26 18)">
    <path id="Clip_9-2" data-name="Clip 9" d="M0,0H3.88V14.9H0Z" transform="translate(1.067 1.101)" fill="none"/>
    <g id="Group_10-2" data-name="Group 10" clip-path="url(#clip-path-2)">
      <path id="Fill_8" data-name="Fill 8" d="M0,13.429V1.471A1.549,1.549,0,0,1,1.609,0H2.27A1.55,1.55,0,0,1,3.88,1.471V13.429A1.55,1.55,0,0,1,2.27,14.9H1.609A1.549,1.549,0,0,1,0,13.429" transform="translate(1.067 1.101)" fill="#81b6c8"/>
    </g>
  </g>
  <path id="Fill_11" data-name="Fill 11" d="M.172,5.273,4.15.281A.732.732,0,0,1,5.2.178L5.73.63a.8.8,0,0,1,.1,1.1L1.85,6.719a.732.732,0,0,1-1.055.1L.271,6.37a.8.8,0,0,1-.1-1.1" transform="translate(22 8)" fill="#81b6c8"/>
  <path id="Fill_13" data-name="Fill 13" d="M1.79.183,6.733,4.219A.7.7,0,0,1,6.8,5.253l-.476.5a.838.838,0,0,1-1.117.065L.267,1.783A.7.7,0,0,1,.2.747l.477-.5A.837.837,0,0,1,1.79.183" transform="translate(33 8)" fill="#81b6c8"/>
  <path id="Fill_15" data-name="Fill 15" d="M5.818,1.791,1.782,6.733A.7.7,0,0,1,.748,6.8l-.5-.476A.839.839,0,0,1,.182,5.211L4.218.267A.7.7,0,0,1,5.253.2l.5.477a.839.839,0,0,1,.066,1.117" transform="translate(34 12)" fill="#81b6c8"/>
  <path id="Fill_17" data-name="Fill 17" d="M.721.609,7.059,0a.8.8,0,0,1,.865.73L8,1.511a.806.806,0,0,1-.717.88L.941,3a.8.8,0,0,1-.867-.73L0,1.489A.807.807,0,0,1,.721.609" transform="translate(16 12)" fill="#81b6c8"/>
  <path id="Fill_19" data-name="Fill 19" d="M1.5.4A3,3,0,1,0,5.6,1.5,3,3,0,0,0,1.5.4" transform="translate(6)" fill="#81b6c8"/>
  <path id="Fill_21" data-name="Fill 21" d="M1.273,13H7.727A1.276,1.276,0,0,0,9,11.729V1.27A1.275,1.275,0,0,0,7.727,0H1.273A1.275,1.275,0,0,0,0,1.27v10.46A1.276,1.276,0,0,0,1.273,13" transform="translate(5 7)" fill="#81b6c8"/>
  <g id="Group_25" data-name="Group 25" transform="translate(5 18)">
    <path id="Clip_24-2" data-name="Clip 24" d="M0,0H3.879V14.9H0Z" transform="translate(0.304 1.101)" fill="none"/>
    <g id="Group_25-2" data-name="Group 25" clip-path="url(#clip-path-3)">
      <path id="Fill_23" data-name="Fill 23" d="M3.879,13.429V1.471A1.548,1.548,0,0,0,2.271,0H1.609A1.55,1.55,0,0,0,0,1.471V13.429A1.55,1.55,0,0,0,1.609,14.9h.663a1.548,1.548,0,0,0,1.608-1.471" transform="translate(0.304 1.101)" fill="#81b6c8"/>
    </g>
  </g>
  <g id="Group_28" data-name="Group 28" transform="translate(8 18)">
    <path id="Clip_27-2" data-name="Clip 27" d="M0,0H3.88V14.9H0Z" transform="translate(1.09 1.101)" fill="none"/>
    <g id="Group_28-2" data-name="Group 28" clip-path="url(#clip-path-4)">
      <path id="Fill_26" data-name="Fill 26" d="M3.88,13.429V1.471A1.549,1.549,0,0,0,2.271,0H1.61A1.55,1.55,0,0,0,0,1.471V13.429A1.55,1.55,0,0,0,1.61,14.9h.661A1.549,1.549,0,0,0,3.88,13.429" transform="translate(1.09 1.101)" fill="#81b6c8"/>
    </g>
  </g>
  <path id="Fill_29" data-name="Fill 29" d="M5.851,5.4,2.007.312a.814.814,0,0,0-1.1-.17l-.582.4A.736.736,0,0,0,.149,1.6l3.843,5.09a.813.813,0,0,0,1.1.169l.582-.4A.736.736,0,0,0,5.851,5.4" transform="translate(11 8)" fill="#81b6c8"/>
  <path id="Fill_31" data-name="Fill 31" d="M5.21.183.268,4.219A.7.7,0,0,0,.2,5.253l.476.5a.837.837,0,0,0,1.117.065L6.733,1.783A.7.7,0,0,0,6.8.747l-.477-.5A.837.837,0,0,0,5.21.183" transform="translate(0 8)" fill="#81b6c8"/>
  <path id="Fill_33" data-name="Fill 33" d="M.182,1.791,4.218,6.733A.7.7,0,0,0,5.252,6.8l.5-.476a.839.839,0,0,0,.065-1.117L1.782.267A.7.7,0,0,0,.747.2l-.5.477A.839.839,0,0,0,.182,1.791" transform="translate(0 12)" fill="#81b6c8"/>
  <path id="Fill_35" data-name="Fill 35" d="M7.331.912,1.043.009A.789.789,0,0,0,.133.6L.01,1.274a.725.725,0,0,0,.658.813l6.288.9A.791.791,0,0,0,7.868,2.4l.122-.677A.726.726,0,0,0,7.331.912" transform="translate(15 13)" fill="#81b6c8"/>
</svg>
