<svg id="Group_29_Copy" data-name="Group 29 Copy" xmlns="http://www.w3.org/2000/svg" xmlns:xlink="http://www.w3.org/1999/xlink" width="52.738" height="38" viewBox="0 0 52.738 38">
  <defs>
    <clipPath id="clip-path">
      <path id="Clip_6" data-name="Clip 6" d="M0,0H4.164V16.52H0Z" transform="translate(0.668 0.48)" fill="none"/>
    </clipPath>
    <clipPath id="clip-path-2">
      <path id="Clip_9" data-name="Clip 9" d="M0,0H4.338V16.52H0Z" transform="translate(0.623 0.48)" fill="none"/>
    </clipPath>
    <clipPath id="clip-path-3">
      <path id="Clip_16" data-name="Clip 16" d="M0,0H6.8V7.352H0Z" transform="translate(0.933 0.588)" fill="none"/>
    </clipPath>
    <clipPath id="clip-path-4">
      <path id="Clip_25" data-name="Clip 25" d="M0,0H19.35V15.336H0Z" transform="translate(0 1.095)" fill="none"/>
    </clipPath>
  </defs>
  <path id="Fill_1" data-name="Fill 1" d="M5.249.469A3.5,3.5,0,1,1,.47,1.75,3.5,3.5,0,0,1,5.249.469" transform="translate(39)" fill="#D8D8D8"/>
  <path id="Fill_3" data-name="Fill 3" d="M8.584,14H1.415A1.4,1.4,0,0,1,0,12.632V1.368A1.4,1.4,0,0,1,1.415,0h7.17A1.4,1.4,0,0,1,10,1.368V12.632A1.4,1.4,0,0,1,8.584,14" transform="translate(38 8)" fill="#D8D8D8"/>
  <g id="Group_7" data-name="Group 7" transform="translate(42 21)">
    <path id="Clip_6-2" data-name="Clip 6" d="M0,0H4.164V16.52H0Z" transform="translate(0.668 0.48)" fill="none"/>
    <g id="Group_7-2" data-name="Group 7" clip-path="url(#clip-path)">
      <path id="Fill_5" data-name="Fill 5" d="M0,14.89V1.63A1.685,1.685,0,0,1,1.726,0h.71A1.686,1.686,0,0,1,4.164,1.63V14.89a1.686,1.686,0,0,1-1.728,1.631h-.71A1.685,1.685,0,0,1,0,14.89" transform="translate(0.668 0.48)" fill="#D8D8D8"/>
    </g>
  </g>
  <g id="Group_10" data-name="Group 10" transform="translate(38 21)">
    <path id="Clip_9-2" data-name="Clip 9" d="M0,0H4.338V16.52H0Z" transform="translate(0.623 0.48)" fill="none"/>
    <g id="Group_10-2" data-name="Group 10" clip-path="url(#clip-path-2)">
      <path id="Fill_8" data-name="Fill 8" d="M0,14.89V1.63A1.725,1.725,0,0,1,1.8,0h.741a1.726,1.726,0,0,1,1.8,1.63V14.89a1.726,1.726,0,0,1-1.8,1.631H1.8A1.725,1.725,0,0,1,0,14.89" transform="translate(0.623 0.48)" fill="#D8D8D8"/>
    </g>
  </g>
  <path id="Fill_11" data-name="Fill 11" d="M.173,6.174,4.658.356A.961.961,0,0,1,5.942.163l.679.459a.831.831,0,0,1,.206,1.2L2.342,7.644a.963.963,0,0,1-1.285.193L.38,7.378a.832.832,0,0,1-.207-1.2" transform="translate(34 9)" fill="#D8D8D8"/>
  <path id="Fill_13" data-name="Fill 13" d="M2.046.213,7.695,4.921a.825.825,0,0,1,.08,1.207l-.543.583a.943.943,0,0,1-1.276.075L.306,2.078A.824.824,0,0,1,.224.872L.769.288A.946.946,0,0,1,2.046.213" transform="translate(44 8)" fill="#D8D8D8"/>
  <g id="Group_17" data-name="Group 17" transform="translate(45 12)">
    <path id="Clip_16-2" data-name="Clip 16" d="M0,0H6.8V7.352H0Z" transform="translate(0.933 0.588)" fill="none"/>
    <g id="Group_17-2" data-name="Group 17" clip-path="url(#clip-path-3)">
      <path id="Fill_15" data-name="Fill 15" d="M6.6,1.88,2.021,7.071a.834.834,0,0,1-1.174.074l-.567-.5A.834.834,0,0,1,.206,5.472L4.783.281A.832.832,0,0,1,5.956.207l.569.5A.835.835,0,0,1,6.6,1.88" transform="translate(0.933 0.588)" fill="#D8D8D8"/>
    </g>
  </g>
  <path id="Fill_18" data-name="Fill 18" d="M.668.913l6.289-.9A.792.792,0,0,1,7.868.6l.121.676a.725.725,0,0,1-.658.814l-6.288.9A.79.79,0,0,1,.133,2.4L.01,1.727A.726.726,0,0,1,.668.913" transform="translate(28 14)" fill="#D8D8D8"/>
  <path id="Fill_20" data-name="Fill 20" d="M16.912,7.863l-.068-.094L14.585,5.552a.345.345,0,0,1,.2-.532,2.424,2.424,0,0,0,.949-.522,2.069,2.069,0,0,0,.084-3.084,2.389,2.389,0,0,0-3.277-.058,2.206,2.206,0,0,0-.595.868.385.385,0,0,1-.572.163L9.121.161,9.024.1A.389.389,0,0,0,8.507.1L5.895,2.461a.355.355,0,0,1-.371-.238A2.32,2.32,0,0,0,3.581.68a.982.982,0,0,0-.343,0c-2.217.368-2.787,2.538-1.6,3.716a2.19,2.19,0,0,0,.881.529.325.325,0,0,1,.222.382L.121,7.677a.336.336,0,0,0-.02.5l2.376,2.332.042.031.015.013a.381.381,0,0,0,.627-.179A2.479,2.479,0,0,1,5.224,8.666a2.483,2.483,0,0,1,.644.04,2.587,2.587,0,0,1,1.161.62,2.354,2.354,0,0,1,.6,1.119,2.007,2.007,0,0,1,.014.608,2.45,2.45,0,0,1-1.9,1.864.348.348,0,0,0-.218.582l.014.015.031.041,2.366,2.339a.392.392,0,0,0,.531,0L11.1,13.533a.354.354,0,0,1,.4.227,2.027,2.027,0,0,0,.523.854,2.421,2.421,0,0,0,4.013-1.334.861.861,0,0,0,.012-.321,2.259,2.259,0,0,0-1.55-1.9.327.327,0,0,1-.235-.359L16.881,8.35a.339.339,0,0,0,.031-.486" transform="translate(19 6)" fill="#D8D8D8"/>
  <path id="Fill_22" data-name="Fill 22" d="M11.442,15.977h.02l.053.008L14.923,16a.371.371,0,0,0,.368-.372l.014-3.566a.35.35,0,0,1,.444-.115,2.207,2.207,0,0,0,1.01.245A2.328,2.328,0,0,0,18.5,8.4a.922.922,0,0,0-.236-.241,2.377,2.377,0,0,0-2.51-.272.355.355,0,0,1-.435-.094l.015-3.544a.368.368,0,0,0-.349-.371l-.119-.022-3.241,0a.364.364,0,0,1-.266-.522,2.333,2.333,0,0,0,.253-1.046A2.293,2.293,0,1,0,7.284,3.319a.368.368,0,0,1-.272.522L3.769,3.826l-.117.022a.364.364,0,0,0-.314.214.518.518,0,0,1,.032.178L3.363,7.9l-.2-.04a.337.337,0,0,1-.3-.007L2.8,7.825a2.609,2.609,0,0,0-.337.026l-.031,0-.029,0a2,2,0,0,0-.352-.044A2.066,2.066,0,0,0,.02,9.628,2.034,2.034,0,0,0,0,9.9a2.449,2.449,0,0,0,.316,1.162c.048.086.094.173.152.262a.735.735,0,0,0,.19.191,2.4,2.4,0,0,0,1.382.468,2.368,2.368,0,0,0,.343-.028l.031-.006.029,0c.094.015.169.03.237.038.057-.024.116-.048.171-.077a.34.34,0,0,1,.344.024l.163-.031-.006,3.714a.554.554,0,0,1-.02.139.363.363,0,0,0,.325.21l3.409,0,.052-.007h.021a.367.367,0,0,0,.295-.573,2.443,2.443,0,0,1,.124-2.686,2.314,2.314,0,0,1,.474-.427A2.536,2.536,0,0,1,9.3,11.909a2.532,2.532,0,0,1,1.265.379,2.25,2.25,0,0,1,.472.429,2.437,2.437,0,0,1,.11,2.686.367.367,0,0,0,.294.574" transform="translate(12 21)" fill="#D8D8D8"/>
  <g id="Group_26" data-name="Group 26" transform="translate(0 8)">
    <path id="Clip_25-2" data-name="Clip 25" d="M0,0H19.35V15.336H0Z" transform="translate(0 1.095)" fill="none"/>
    <g id="Group_26-2" data-name="Group 26" clip-path="url(#clip-path-4)">
      <path id="Fill_24" data-name="Fill 24" d="M11.874,14.94l-.008.019,0,.007-.019.075a.186.186,0,0,0,.147.175L15.2,15.21a.55.55,0,0,1,.125.023h0a.541.541,0,0,1,.3.1l.021-.1.015-3.477a.354.354,0,0,1,.444-.112,2.231,2.231,0,0,0,1.006.239,2.267,2.267,0,0,0,1.744-3.7.951.951,0,0,0-.236-.235,2.418,2.418,0,0,0-2.5-.264.359.359,0,0,1-.434-.092L15.7,4.141a.363.363,0,0,0-.349-.362l-.116-.022L12,3.755a.356.356,0,0,1-.268-.51,2.191,2.191,0,0,0,.256-1.019A2.226,2.226,0,0,0,9.7,0,2.229,2.229,0,0,0,7.4,2.215a2.2,2.2,0,0,0,.252,1.021.356.356,0,0,1-.269.508L4.151,3.731l-.118.02a.363.363,0,0,0-.351.362l0,3.456a.358.358,0,0,1-.434.088A2.418,2.418,0,0,0,.739,7.91.942.942,0,0,0,.5,8.143a2.265,2.265,0,0,0,1.724,3.709,2.207,2.207,0,0,0,1.007-.235.353.353,0,0,1,.442.116l0,3.477a.355.355,0,0,0,.025.122.552.552,0,0,1,.3-.1H4a.539.539,0,0,1,.125-.023l3.213.006a.185.185,0,0,0,.146-.173l-.019-.076,0-.008,0-.009,0-.01a2.37,2.37,0,0,1-.259-1.061h0V13.86a2.436,2.436,0,0,1,2.42-2.394h.107a2.409,2.409,0,0,1,2.311,1.717,2.322,2.322,0,0,1,.109.677v.006a2.357,2.357,0,0,1-.261,1.074" transform="translate(0 1.095)" fill="#D8D8D8"/>
    </g>
  </g>
  <path id="Fill_27" data-name="Fill 27" d="M12.524,7.542a2.364,2.364,0,0,1,1.548-.579v0a2.208,2.208,0,0,1,.387.044,3.2,3.2,0,0,1,.357-.026c.06,0,.119,0,.179.008l0-3.1a.177.177,0,0,0-.156-.179l-.013,0h-.027L14.779,3.7l-.054-.01-3.185.006-.015,0a.535.535,0,0,1-.445-.474l-.009-.047a.491.491,0,0,1,.054-.219h0l.007-.018,0-.006a2.009,2.009,0,0,0,.222-.915v0a1.963,1.963,0,0,0-.093-.569A2,2,0,0,0,9.349,0h-.1A1.967,1.967,0,0,0,8.1.366,2.013,2.013,0,0,0,7.33,1.438a2.082,2.082,0,0,0-.07.322A1.454,1.454,0,0,0,7.235,2h0v.006a1.974,1.974,0,0,0,.225.914l0,.008,0,.008,0,.01h0a.5.5,0,0,1,.052.218l-.008.042a.534.534,0,0,1-.444.478l-.015,0L3.87,3.688l-.025,0L3.815,3.7l-.025.009H3.761a.179.179,0,0,0-.168.181L3.6,7.355,3.558,7.4a.547.547,0,0,1-.41.19.535.535,0,0,1-.241-.058,1.993,1.993,0,0,0-.9-.213,2.4,2.4,0,0,0-1.367.458.726.726,0,0,0-.184.183A2.4,2.4,0,0,0,0,9.331a2.008,2.008,0,0,0,2,2.009h0a1.984,1.984,0,0,0,.9-.214.532.532,0,0,1,.233-.056.544.544,0,0,1,.433.221l.035.047.006,3.481A.179.179,0,0,0,3.789,15l3.319-.006.053-.008h.032a.162.162,0,0,0,.119-.048.194.194,0,0,0,.047-.126l-.032-.107a2.329,2.329,0,0,1-.368-1.259,2.731,2.731,0,0,1,.483-1.508l.006-.01.007-.007a2.4,2.4,0,0,1,.5-.444l0,0,0,0a2.736,2.736,0,0,1,1.33-.387H9.3a2.728,2.728,0,0,1,1.329.387h0l0,0a2.345,2.345,0,0,1,.5.444l.008.008.006.009a2.739,2.739,0,0,1,.482,1.509,2.325,2.325,0,0,1-.369,1.259l-.031.106a.183.183,0,0,0,.048.126.153.153,0,0,0,.116.048h.033l.012,0,.04.006,3.32.006a.179.179,0,0,0,.176-.181l.007-3.142a1.987,1.987,0,0,1-.233.016h0a1.955,1.955,0,0,1-.337-.045,2.482,2.482,0,0,1-.355.029,2.74,2.74,0,0,1-1.507-.481l-.056-.033a1.142,1.142,0,0,1-.277-.276,2.985,2.985,0,0,1-.4-.834c-.027-.087-.045-.174-.062-.259a2.45,2.45,0,0,1-.051-.47,2.344,2.344,0,0,1,.818-1.782" transform="translate(0 21)" fill="#D8D8D8"/>
</svg>
