<svg xmlns="http://www.w3.org/2000/svg" xmlns:xlink="http://www.w3.org/1999/xlink" width="41.757" height="42.127" viewBox="0 0 41.757 42.127">
  <defs>
    <clipPath id="clip-path">
      <path id="Clip_4" data-name="Clip 4" d="M0,0H34.1V15.427H0Z" transform="translate(0.88 0.573)" fill="none"/>
    </clipPath>
    <clipPath id="clip-path-2">
      <path id="Clip_9" data-name="Clip 9" d="M0,0H12.028V22.174H0Z" transform="translate(0.001 0.54)" fill="none"/>
    </clipPath>
  </defs>
  <g id="Group_11" data-name="Group 11" transform="translate(-0.001 -1.334)">
    <path id="Fill_1" data-name="Fill 1" d="M0,11.049A11.138,11.138,0,0,0,11.226,22.1,11.138,11.138,0,0,0,22.452,11.049,11.139,11.139,0,0,0,11.226,0,11.139,11.139,0,0,0,0,11.049" transform="translate(13.48 4.892)" fill="#d8d8d8"/>
    <g id="Group_5" data-name="Group 5" transform="translate(6.774 27.46)">
      <path id="Clip_4-2" data-name="Clip 4" d="M0,0H34.1V15.427H0Z" transform="translate(0.88 0.573)" fill="none"/>
      <g id="Group_5-2" data-name="Group 5" clip-path="url(#clip-path)">
        <path id="Fill_3" data-name="Fill 3" d="M34.1,15.427H0v-5.04A10.237,10.237,0,0,1,3.091,3.042,10.571,10.571,0,0,1,10.554,0h13a10.571,10.571,0,0,1,7.464,3.042,10.237,10.237,0,0,1,3.09,7.345v5.039ZM11.166,1.1c-.222,0-.444.016-.659.032l-.059,0L12.87,13.643h8.365L23.654,1.132l-.062,0c-.212-.015-.431-.031-.652-.031Z" transform="translate(0.88 0.573)" fill="#d8d8d8"/>
      </g>
    </g>
    <path id="Fill_6" data-name="Fill 6" d="M0,10.72H5.246l-1.3-8.411H3.9L5.178,0H.07L1.347,2.309H1.3Z" transform="translate(22.083 30.956)" fill="#d8d8d8"/>
    <g id="Group_10" data-name="Group 10" transform="translate(0 0.794)">
      <path id="Clip_9-2" data-name="Clip 9" d="M0,0H12.028V22.174H0Z" transform="translate(0.001 0.54)" fill="none"/>
      <g id="Group_10-2" data-name="Group 10" clip-path="url(#clip-path-2)">
        <path id="Fill_8" data-name="Fill 8" d="M4.445,22.175a1.854,1.854,0,0,1-.743-.149,1.933,1.933,0,0,1-.619-.417,2.039,2.039,0,0,1-.418-.622,2.007,2.007,0,0,1,0-1.533,2,2,0,0,1,.418-.623,1.928,1.928,0,0,1,.619-.416,1.9,1.9,0,0,1,1.48,0A1.928,1.928,0,0,1,6.2,19.454a2.124,2.124,0,0,1,0,1.533,1.936,1.936,0,0,1-1.022,1.039A1.837,1.837,0,0,1,4.445,22.175ZM5.9,16.461H2.818c0-.629.021-1.19.062-1.669a5.209,5.209,0,0,1,.265-1.284,4,4,0,0,1,.589-1.087,7.3,7.3,0,0,1,1.043-1.075c.571-.488,1.028-.861,1.437-1.174a7,7,0,0,0,1.139-1.08A4.3,4.3,0,0,0,8.1,7.746a5.923,5.923,0,0,0,.271-1.964,3.064,3.064,0,0,0-.216-1.133,2.712,2.712,0,0,0-.644-.966,3.172,3.172,0,0,0-1.077-.662,4.2,4.2,0,0,0-1.491-.246,3.021,3.021,0,0,0-.816.116,5.028,5.028,0,0,0-.8.309,5.343,5.343,0,0,0-.752.437,6.789,6.789,0,0,0-.63.494L0,1.886a5.318,5.318,0,0,1,1.013-.771A7.257,7.257,0,0,1,2.29.52,9.06,9.06,0,0,1,3.77.138,9.448,9.448,0,0,1,5.386,0,8.935,8.935,0,0,1,7.973.364a5.975,5.975,0,0,1,2.111,1.112,5.35,5.35,0,0,1,1.424,1.894,6.514,6.514,0,0,1,.52,2.714,6.107,6.107,0,0,1-.257,1.844,6.068,6.068,0,0,1-.681,1.458,6.607,6.607,0,0,1-.959,1.161,12.329,12.329,0,0,1-1.1.937c-.388.293-.746.552-1.1.791-.374.26-.685.5-.951.726a3.843,3.843,0,0,0-.627.678,2.217,2.217,0,0,0-.325.709,3.985,3.985,0,0,0-.12.881c-.009.364-.013.764-.014,1.19Z" transform="translate(0.001 0.54)" fill="#d8d8d8"/>
      </g>
    </g>
  </g>
</svg>
