<svg id="Group_27_Copy" data-name="Group 27 Copy" xmlns="http://www.w3.org/2000/svg" xmlns:xlink="http://www.w3.org/1999/xlink" width="36" height="38" viewBox="0 0 36 38">
  <defs>
    <clipPath id="clip-path">
      <path id="Clip_18" data-name="Clip 18" d="M0,38H36V0H0Z" fill="none"/>
    </clipPath>
  </defs>
  <path id="Fill_1" data-name="Fill 1" d="M.011,0,1.984.019C1.99.242,2,8.442,2,12.3a4.315,4.315,0,0,1-.047.8.96.96,0,0,1-.931.9.949.949,0,0,1-.961-.854A2.475,2.475,0,0,1,0,12.567C0,8.488,0,.136.011,0" transform="translate(31 12)" fill="#81b6c8"/>
  <path id="Fill_3" data-name="Fill 3" d="M6.995,4,0,3.99A15.73,15.73,0,0,1,.127,2.03a2.293,2.293,0,0,1,2.131-2C2.969-.014,3.683,0,4.4.014,5.974.044,6.954,1.108,7,2.983,7,3.348,6.995,4,6.995,4" transform="translate(29 6)" fill="#81b6c8"/>
  <path id="Fill_5" data-name="Fill 5" d="M.006.055S.674.02,1,0C1,.336,1,.581,1,.83Q1,6.85,1,12.867a2.438,2.438,0,0,1-.054.786A.525.525,0,0,1,.487,14a.574.574,0,0,1-.426-.309A1.709,1.709,0,0,1,0,13.068Q0,6.745,0,.422c0-.1,0-.367,0-.367" transform="translate(29 11)" fill="#81b6c8"/>
  <path id="Fill_7" data-name="Fill 7" d="M.007.055S.673.02,1,0C1,.336,1,.581,1,.83Q1,6.85,1,12.867a2.468,2.468,0,0,1-.054.786A.525.525,0,0,1,.486,14a.573.573,0,0,1-.425-.309A1.688,1.688,0,0,1,0,13.068Q0,6.745,0,.422c0-.1,0-.367,0-.367" transform="translate(35 11)" fill="#81b6c8"/>
  <path id="Fill_9" data-name="Fill 9" d="M0,.284A1.4,1.4,0,0,1,1.778.378a2.23,2.23,0,0,0,2.714-.2A1.137,1.137,0,0,1,5.485.064L6,.247,3,5,0,.284" transform="translate(29 27)" fill="#81b6c8"/>
  <path id="Fill_11" data-name="Fill 11" d="M13.914.194c-.062.053-.124.106-.189.158-.131.105-.268.207-.405.3l-2.78,6.938H7.758L4.592.366C4.447.25,4.3.126,4.167,0L4.108.05C1.028,2.718.213,6.836,0,9H18C17.405,2.669,14.775.5,14.095.035c-.06.054-.119.105-.181.159" transform="translate(1 27)" fill="#81b6c8"/>
  <path id="Fill_13" data-name="Fill 13" d="M0,7A7,7,0,1,0,7,0,7.008,7.008,0,0,0,0,7" transform="translate(3 14)" fill="#81b6c8"/>
  <path id="Fill_15" data-name="Fill 15" d="M0,6H3L2.257,1.293H2.23L2.961,0H.039L.77,1.293H.743Z" transform="translate(9 29)" fill="#81b6c8"/>
  <path id="Clip_18-2" data-name="Clip 18" d="M0,38H36V0H0Z" fill="none"/>
  <g id="Group_27_Copy-2" data-name="Group 27 Copy" clip-path="url(#clip-path)">
    <path id="Fill_17" data-name="Fill 17" d="M0,.743H11V.257H0Z" transform="translate(8 1)" fill="#81b6c8"/>
    <path id="Fill_19" data-name="Fill 19" d="M6.373,2.568V0h-4.5A1.858,1.858,0,0,0,.548.562,1.957,1.957,0,0,0,0,1.919V34.081a1.953,1.953,0,0,0,.548,1.357A1.853,1.853,0,0,0,1.869,36H24.131a1.853,1.853,0,0,0,1.321-.562A1.953,1.953,0,0,0,26,34.081V1.919A1.957,1.957,0,0,0,25.452.562,1.858,1.858,0,0,0,24.131,0H19.894V2.568h4.236V33.084H1.869V2.568Z" transform="translate(0 2)" fill="#81b6c8"/>
    <path id="Fill_20" data-name="Fill 20" d="M0,3H11V0H0Z" transform="translate(8 2)" fill="#81b6c8"/>
    <path id="Fill_21" data-name="Fill 21" d="M0,1H11V0H0Z" transform="translate(8 4)" fill="#81b6c8"/>
    <path id="Fill_22" data-name="Fill 22" d="M13.406,7H.594a.593.593,0,0,1-.421-.179A.626.626,0,0,1,0,6.391V.609A.624.624,0,0,1,.173.178.592.592,0,0,1,.594,0H13.406a.6.6,0,0,1,.421.178A.621.621,0,0,1,14,.609V6.391a.623.623,0,0,1-.174.43A.6.6,0,0,1,13.406,7ZM1.187,1.22V5.78H12.812V1.22Z" transform="translate(6)" fill="#81b6c8"/>
    <path id="Fill_23" data-name="Fill 23" d="M0,2H19V0H0Z" transform="translate(4 9)" fill="#81b6c8"/>
    <path id="Fill_24" data-name="Fill 24" d="M0,2H19V0H0Z" transform="translate(4 13)" fill="#81b6c8"/>
    <path id="Fill_25" data-name="Fill 25" d="M0,2H16V0H0Z" transform="translate(6 18)" fill="#81b6c8"/>
    <path id="Fill_26" data-name="Fill 26" d="M0,2H16V0H0Z" transform="translate(6 23)" fill="#81b6c8"/>
  </g>
</svg>
