<svg id="Group_3" data-name="Group 3" xmlns="http://www.w3.org/2000/svg" xmlns:xlink="http://www.w3.org/1999/xlink" width="56" height="35" viewBox="0 0 56 35">
  <defs>
    <clipPath id="clip-path">
      <path id="Clip_2" data-name="Clip 2" d="M0,0H56V35H0Z" fill="none"/>
    </clipPath>
  </defs>
  <path id="Clip_2-2" data-name="Clip 2" d="M0,0H56V35H0Z" fill="none"/>
  <g id="Group_3-2" data-name="Group 3" clip-path="url(#clip-path)">
    <path id="Fill_1" data-name="Fill 1" d="M56,35H41.559V26.051a10.536,10.536,0,0,0-4-8.32,8.509,8.509,0,0,1,2.242-.558l.833,2.013,3.384,7.98,3.358-7.98.859-2.013a8.715,8.715,0,0,1,5.519,2.911A9.007,9.007,0,0,1,56,26.051V35ZM40.01,35h-24V26.051a9.007,9.007,0,0,1,2.25-5.967,8.717,8.717,0,0,1,5.519-2.911l.86,2.013L28,27.167l3.383-7.98.835-2.013a8.755,8.755,0,0,1,5.53,2.911,8.986,8.986,0,0,1,2.261,5.967V35Zm-25.57,0H0V26.051a9.007,9.007,0,0,1,2.249-5.967,8.716,8.716,0,0,1,5.519-2.911l.86,2.013,3.36,7.98,3.383-7.98.856-2.013a8.615,8.615,0,0,1,2.217.558,10.539,10.539,0,0,0-4,8.32V35ZM44.014,15.644a7.712,7.712,0,0,1-7.173-5.018,9.845,9.845,0,0,0,.4-2.814,9.733,9.733,0,0,0-.4-2.79A7.736,7.736,0,0,1,39.615,1.41,7.549,7.549,0,0,1,44.014,0a7.763,7.763,0,0,1,7.7,7.811,7.849,7.849,0,0,1-2.258,5.544A7.584,7.584,0,0,1,44.014,15.644ZM28,15.644a7.586,7.586,0,0,1-5.44-2.288A7.848,7.848,0,0,1,20.3,7.811a7.7,7.7,0,1,1,15.4,0,7.848,7.848,0,0,1-2.258,5.544A7.585,7.585,0,0,1,28,15.644Zm-16.013,0a7.585,7.585,0,0,1-5.439-2.288A7.848,7.848,0,0,1,4.29,7.811,7.764,7.764,0,0,1,11.988,0,7.546,7.546,0,0,1,16.4,1.41a7.756,7.756,0,0,1,2.766,3.611,9.639,9.639,0,0,0-.407,2.79,9.752,9.752,0,0,0,.407,2.814A7.754,7.754,0,0,1,16.4,14.234,7.548,7.548,0,0,1,11.988,15.644Z" fill="#D8D8D8"/>
  </g>
</svg>
