<svg id="Group_8" data-name="Group 8" xmlns="http://www.w3.org/2000/svg" xmlns:xlink="http://www.w3.org/1999/xlink" width="50.737" height="41" viewBox="0 0 50.737 41">
  <defs>
    <clipPath id="clip-path">
      <path id="Clip_2" data-name="Clip 2" d="M0,0H39.7V26.318H0Z" transform="translate(0.038 0.681)" fill="none"/>
    </clipPath>
  </defs>
  <g id="Group_3" data-name="Group 3" transform="translate(11 14)">
    <path id="Clip_2-2" data-name="Clip 2" d="M0,0H39.7V26.318H0Z" transform="translate(0.038 0.681)" fill="none"/>
    <g id="Group_3-2" data-name="Group 3" clip-path="url(#clip-path)">
      <path id="Fill_1" data-name="Fill 1" d="M33.695,26.318H7.355a1.827,1.827,0,0,1-1.793-1.372L.048,2.175A1.719,1.719,0,0,1,.4.672,1.866,1.866,0,0,1,1.84,0H15.073a1.834,1.834,0,0,1,1.755,1.241l1.064,3.241H37.859a1.866,1.866,0,0,1,1.434.661,1.722,1.722,0,0,1,.363,1.492L35.492,24.926a1.823,1.823,0,0,1-1.8,1.392" transform="translate(0.038 0.681)" fill="#81b6c8"/>
    </g>
  </g>
  <path id="Fill_4" data-name="Fill 4" d="M24.053,15H28V1.919A1.946,1.946,0,0,0,26.026,0H1.973A1.945,1.945,0,0,0,0,1.919V10.8H3.946V3.84H24.053Z" transform="translate(18 2)" fill="#81b6c8"/>
  <path id="Fill_6" data-name="Fill 6" d="M4.435,23a1.778,1.778,0,0,1-.743-.156,1.918,1.918,0,0,1-.617-.431,2.063,2.063,0,0,1-.568-1.441,2.04,2.04,0,0,1,.151-.793,2.083,2.083,0,0,1,.417-.647,1.917,1.917,0,0,1,.617-.431,1.831,1.831,0,0,1,.743-.157,1.784,1.784,0,0,1,.734.157,1.956,1.956,0,0,1,.608.431,2.054,2.054,0,0,1,.41.647,2.26,2.26,0,0,1,0,1.588,2.042,2.042,0,0,1-.41.646,1.956,1.956,0,0,1-.608.431A1.757,1.757,0,0,1,4.435,23Zm1.453-5.927H2.812c0-.653.021-1.235.062-1.732a5.637,5.637,0,0,1,.264-1.331,4.211,4.211,0,0,1,.588-1.128,7.364,7.364,0,0,1,1.04-1.114c.539-.48,1.008-.879,1.435-1.219A7.1,7.1,0,0,0,7.337,9.43a4.508,4.508,0,0,0,.748-1.4A6.383,6.383,0,0,0,8.355,6,3.313,3.313,0,0,0,8.14,4.822a2.8,2.8,0,0,0-.643-1,3.13,3.13,0,0,0-1.075-.688,4.073,4.073,0,0,0-1.488-.255A2.868,2.868,0,0,0,4.12,3a4.791,4.791,0,0,0-.8.319,5.307,5.307,0,0,0-.751.454,6.786,6.786,0,0,0-.628.511L0,1.957a5.35,5.35,0,0,1,1.011-.8A7.223,7.223,0,0,1,2.284.539a8.844,8.844,0,0,1,1.478-.4A9.127,9.127,0,0,1,5.374,0a8.646,8.646,0,0,1,2.58.377A5.891,5.891,0,0,1,10.06,1.531,5.507,5.507,0,0,1,11.481,3.5,6.98,6.98,0,0,1,12,6.312a6.554,6.554,0,0,1-.256,1.912,6.4,6.4,0,0,1-.679,1.512,6.819,6.819,0,0,1-.957,1.2,12.234,12.234,0,0,1-1.1.972c-.378.3-.745.572-1.093.822a11.658,11.658,0,0,0-.949.752,3.924,3.924,0,0,0-.625.7,2.322,2.322,0,0,0-.325.735,4.324,4.324,0,0,0-.119.914c-.009.377-.013.792-.014,1.234Z" fill="#81b6c8"/>
</svg>
