<svg xmlns="http://www.w3.org/2000/svg" xmlns:xlink="http://www.w3.org/1999/xlink" width="55.687" height="40.431" viewBox="0 0 55.687 40.431">
  <defs>
    <clipPath id="clip-path">
      <path id="Clip_4" data-name="Clip 4" d="M0,0H21.321V9.469H0Z" transform="translate(0.842 0.531)" fill="none"/>
    </clipPath>
    <clipPath id="clip-path-2">
      <path id="Clip_31" data-name="Clip 31" d="M0,0H7.126V7.126H0Z" transform="translate(0.561 0.608)" fill="none"/>
    </clipPath>
    <clipPath id="clip-path-3">
      <path id="Clip_38" data-name="Clip 38" d="M0,0H8.374V12.783H0Z" transform="translate(0 1.145)" fill="none"/>
    </clipPath>
    <clipPath id="clip-path-4">
      <path id="Clip_41" data-name="Clip 41" d="M0,0H4.375V4.315H0Z" transform="translate(0.551 0.569)" fill="none"/>
    </clipPath>
  </defs>
  <g id="Group_43_Copy" data-name="Group 43 Copy" transform="translate(0 -0.569)">
    <path id="Fill_1" data-name="Fill 1" d="M0,7A7,7,0,1,0,7,0,7,7,0,0,0,0,7" transform="translate(22 17)" fill="#81b6c8"/>
    <g id="Group_5" data-name="Group 5" transform="translate(18 31)">
      <path id="Clip_4-2" data-name="Clip 4" d="M0,0H21.321V9.469H0Z" transform="translate(0.842 0.531)" fill="none"/>
      <g id="Group_5-2" data-name="Group 5" clip-path="url(#clip-path)">
        <path id="Fill_3" data-name="Fill 3" d="M21.321,9.469H0V6.375A6.5,6.5,0,0,1,6.6,0h8.125a6.5,6.5,0,0,1,6.6,6.375V9.468ZM6.981.673c-.153,0-.3.011-.448.022L8.045,8.374h5.231L14.788.695c-.142-.01-.294-.022-.447-.022Z" transform="translate(0.842 0.531)" fill="#81b6c8"/>
      </g>
    </g>
    <path id="Fill_6" data-name="Fill 6" d="M0,7H3L2.257,1.507H2.229L2.959,0H.04L.769,1.507H.744Z" transform="translate(28 33)" fill="#81b6c8"/>
    <path id="Fill_8" data-name="Fill 8" d="M2.919,0H.081A.081.081,0,0,0,.008.055a.1.1,0,0,0,.014.1L1.429,1.969a.075.075,0,0,0,.122,0L2.979.156a.1.1,0,0,0,.014-.1A.084.084,0,0,0,2.919,0" transform="translate(13 7)" fill="#81b6c8"/>
    <path id="Fill_10" data-name="Fill 10" d="M3.282,0H.089A.089.089,0,0,0,.008.054a.1.1,0,0,0,.014.1l4.82,5.812a.089.089,0,0,0,.111.021A.1.1,0,0,0,5,5.88L3.368.068A.09.09,0,0,0,3.282,0" transform="translate(11 9)" fill="#81b6c8"/>
    <path id="Fill_12" data-name="Fill 12" d="M2.921,0H.078A.08.08,0,0,0,.006.057a.108.108,0,0,0,.016.1L1.479,1.971A.08.08,0,0,0,1.537,2,.076.076,0,0,0,1.6,1.969C1.87,1.6,2.617.612,2.979.158a.11.11,0,0,0,.015-.1A.081.081,0,0,0,2.921,0" transform="translate(17 7)" fill="#81b6c8"/>
    <path id="Fill_14" data-name="Fill 14" d="M4.911,0H1.61a.089.089,0,0,0-.086.069L0,5.882a.093.093,0,0,0,.044.106.084.084,0,0,0,.109-.021L4.979.154a.1.1,0,0,0,.013-.1A.088.088,0,0,0,4.911,0" transform="translate(17 9)" fill="#81b6c8"/>
    <path id="Fill_16" data-name="Fill 16" d="M1.46,0A.076.076,0,0,0,1.4.03L.02,1.845a.107.107,0,0,0-.012.1A.079.079,0,0,0,.079,2H2.921a.079.079,0,0,0,.072-.056.109.109,0,0,0-.014-.1L1.518.028A.077.077,0,0,0,1.46,0" transform="translate(15 7)" fill="#81b6c8"/>
    <path id="Fill_18" data-name="Fill 18" d="M1.461,0A.078.078,0,0,0,1.4.03L.02,1.845a.107.107,0,0,0-.013.1A.08.08,0,0,0,.078,2H2.922a.078.078,0,0,0,.071-.056.106.106,0,0,0-.014-.1L1.519.028A.077.077,0,0,0,1.461,0" transform="translate(19 7)" fill="#81b6c8"/>
    <path id="Fill_20" data-name="Fill 20" d="M1.46,0A.076.076,0,0,0,1.4.03L.02,1.845a.1.1,0,0,0-.012.1A.079.079,0,0,0,.079,2H2.921a.081.081,0,0,0,.072-.056.107.107,0,0,0-.016-.1L1.518.028A.075.075,0,0,0,1.46,0" transform="translate(11 7)" fill="#81b6c8"/>
    <path id="Fill_22" data-name="Fill 22" d="M.1,0A.1.1,0,0,0,.02.041.1.1,0,0,0,0,.13l1.965,6.8a.1.1,0,0,0,.194,0L4,.128A.1.1,0,0,0,3.98.04.1.1,0,0,0,3.9,0Z" transform="translate(14 9)" fill="#81b6c8"/>
    <path id="Fill_24" data-name="Fill 24" d="M4.57,10h0a4.975,4.975,0,0,1-1.178-.246l-.036-.9a4.284,4.284,0,0,1-.479-.243l-.748.509a5.054,5.054,0,0,1-.9-.8l.421-.8a4.245,4.245,0,0,1-.293-.449l-.9.066A5.059,5.059,0,0,1,.077,5.984L.844,5.5l0-.022c0-.038-.01-.076-.013-.114-.01-.119-.014-.25-.014-.4L0,4.571A4.916,4.916,0,0,1,.246,3.392l.9-.036a4.3,4.3,0,0,1,.245-.478l-.51-.749a5.06,5.06,0,0,1,.8-.9l.8.421a3.977,3.977,0,0,1,.449-.293l-.067-.9A5.067,5.067,0,0,1,4.015.079L4.5.845,4.551.839,4.637.831C4.754.82,4.874.814,5,.814h.032L5.43,0A5,5,0,0,1,6.609.247l.037.9a4.6,4.6,0,0,1,.478.242L7.872.884a5.094,5.094,0,0,1,.9.8l-.421.8a4.287,4.287,0,0,1,.294.448l.9-.064a5.021,5.021,0,0,1,.375,1.144L9.157,4.5l0,.036c0,.034.008.067.011.1.011.132.015.262.014.4L10,5.43a4.867,4.867,0,0,1-.245,1.179l-.9.036a4.273,4.273,0,0,1-.243.478l.509.749a5.092,5.092,0,0,1-.8.9l-.8-.419a4.274,4.274,0,0,1-.449.293l.066.9a5.061,5.061,0,0,1-1.144.375L5.5,9.155l-.018,0c-.04.005-.08.01-.119.013-.12.01-.239.015-.366.015H4.966L4.57,10ZM5,2.05A2.95,2.95,0,1,0,7.951,5,2.954,2.954,0,0,0,5,2.05Z" transform="translate(40 12)" fill="#81b6c8"/>
    <path id="Fill_26" data-name="Fill 26" d="M2.5,5A2.5,2.5,0,1,1,5,2.5,2.5,2.5,0,0,1,2.5,5ZM2.5.611c-.055,0-.111,0-.167.007A1.888,1.888,0,0,0,2.5,4.388c.056,0,.112,0,.168-.007A1.888,1.888,0,0,0,4.382,2.336,1.9,1.9,0,0,0,2.5.611Z" transform="translate(42 15)" fill="#81b6c8"/>
    <path id="Fill_28" data-name="Fill 28" d="M2.5,5H2.447A2.5,2.5,0,0,1,2.5,0h.055A2.5,2.5,0,0,1,5,2.552,2.514,2.514,0,0,1,2.5,5ZM2.5.933a1.525,1.525,0,1,0,1.315.748A1.524,1.524,0,0,0,2.5.933Z" transform="translate(50 19)" fill="#81b6c8"/>
    <g id="Group_32" data-name="Group 32" transform="translate(48 17)">
      <path id="Clip_31-2" data-name="Clip 31" d="M0,0H7.126V7.126H0Z" transform="translate(0.561 0.608)" fill="none"/>
      <g id="Group_32-2" data-name="Group 32" clip-path="url(#clip-path-2)">
        <path id="Fill_30" data-name="Fill 30" d="M3.565,7.126c-.116,0-.234-.006-.351-.017l-.156-.6a2.91,2.91,0,0,1-.472-.122l-.427.45a3.55,3.55,0,0,1-.671-.379l.162-.6a3.18,3.18,0,0,1-.347-.34L.711,5.7a3.509,3.509,0,0,1-.393-.666L.758,4.6a3.055,3.055,0,0,1-.131-.47l-.6-.143a3.642,3.642,0,0,1-.009-.772l.6-.158a2.946,2.946,0,0,1,.119-.469L.287,2.162a3.587,3.587,0,0,1,.38-.673l.595.164A2.977,2.977,0,0,1,1.6,1.305L1.426.712A3.562,3.562,0,0,1,2.092.319l.435.44A2.837,2.837,0,0,1,2.993.627l.145-.6A3.481,3.481,0,0,1,3.571,0c.112,0,.227.005.34.016l.157.6a3.262,3.262,0,0,1,.471.121L4.963.287a3.613,3.613,0,0,1,.674.38l-.163.6a3.194,3.194,0,0,1,.347.34l.592-.176a3.677,3.677,0,0,1,.214.321,3.731,3.731,0,0,1,.18.346l-.44.434A3.123,3.123,0,0,1,6.5,3l.6.144a3.592,3.592,0,0,1,.008.773l-.6.157a2.971,2.971,0,0,1-.12.469l.448.427a3.58,3.58,0,0,1-.379.674l-.595-.164a2.964,2.964,0,0,1-.341.347l.176.592a3.741,3.741,0,0,1-.322.215,3.3,3.3,0,0,1-.343.179L4.6,6.368A2.869,2.869,0,0,1,4.13,6.5l-.142.6A3.609,3.609,0,0,1,3.565,7.126Zm0-5.866h0a2.316,2.316,0,0,0-2.3,2.254,2.305,2.305,0,0,0,2.254,2.35h.048a2.3,2.3,0,0,0,.048-4.6H3.563Z" transform="translate(0.561 0.608)" fill="#81b6c8"/>
      </g>
    </g>
    <path id="Fill_33" data-name="Fill 33" d="M3,6A3,3,0,1,1,6,3,3,3,0,0,1,3,6ZM3,.215A2.786,2.786,0,1,0,5.785,3,2.788,2.788,0,0,0,3,.215Z" transform="translate(42 14)" fill="#81b6c8"/>
    <path id="Fill_35" data-name="Fill 35" d="M2.5,5H2.447A2.5,2.5,0,0,1,0,2.447,2.51,2.51,0,0,1,2.5,0h.055A2.5,2.5,0,0,1,2.5,5ZM2.5.1A2.407,2.407,0,0,0,.1,2.449,2.4,2.4,0,0,0,2.449,4.9H2.5A2.4,2.4,0,0,0,2.549.1Z" transform="translate(50 19)" fill="#81b6c8"/>
    <g id="Group_39" data-name="Group 39" transform="translate(0 10)">
      <path id="Clip_38-2" data-name="Clip 38" d="M0,0H8.374V12.783H0Z" transform="translate(0 1.145)" fill="none"/>
      <g id="Group_39-2" data-name="Group 39" clip-path="url(#clip-path-3)">
        <path id="Fill_37" data-name="Fill 37" d="M0,0,3.424,9.054l1.89-1.808,3.06,5.537-2.631-9.8L4,5.237Z" transform="translate(0 1.145)" fill="#81b6c8"/>
      </g>
    </g>
    <g id="Group_42" data-name="Group 42" transform="translate(24)">
      <path id="Clip_41-2" data-name="Clip 41" d="M0,0H4.375V4.315H0Z" transform="translate(0.551 0.569)" fill="none"/>
      <g id="Group_42-2" data-name="Group 42" clip-path="url(#clip-path-4)">
        <path id="Fill_40" data-name="Fill 40" d="M4.368,1.577a.111.111,0,0,0-.09-.074L2.9,1.34,2.283.064A.11.11,0,0,0,2.184,0a.109.109,0,0,0-.1.064L1.468,1.342.093,1.558a.111.111,0,0,0-.088.077.118.118,0,0,0,.028.116l.984,1.023L.845,4.188A.121.121,0,0,0,.893,4.3a.107.107,0,0,0,.115.005l1.2-.707,1.2.694a.107.107,0,0,0,.115-.005.118.118,0,0,0,.047-.11l-.18-1.429L4.344,1.7a.114.114,0,0,0,.024-.118" transform="translate(0.551 0.568)" fill="#81b6c8"/>
      </g>
    </g>
  </g>
</svg>
