<svg xmlns="http://www.w3.org/2000/svg" xmlns:xlink="http://www.w3.org/1999/xlink" width="45.68" height="40.999" viewBox="0 0 45.68 40.999">
  <defs>
    <clipPath id="clip-path">
      <path id="Clip_2" data-name="Clip 2" d="M0,0H45.68V28.887H0Z" transform="translate(0 1.112)" fill="none"/>
    </clipPath>
    <clipPath id="clip-path-2">
      <path id="Clip_25" data-name="Clip 25" d="M0,0H4.006V5.938H0Z" transform="translate(0.922)" fill="none"/>
    </clipPath>
  </defs>
  <g id="Group_37_Copy" data-name="Group 37 Copy" transform="translate(0 0.11)">
    <g id="Group_3" data-name="Group 3" transform="translate(0 10.89)">
      <path id="Clip_2-2" data-name="Clip 2" d="M0,0H45.68V28.887H0Z" transform="translate(0 1.112)" fill="none"/>
      <g id="Group_3-2" data-name="Group 3" clip-path="url(#clip-path)">
        <path id="Fill_1" data-name="Fill 1" d="M45.667,8.4l.014-.056c-3.3,0-5.321-2.8-7.748-5.155C36.167,1.48,34.192,0,31.346,0c-1.279,0-2.364.015-3.285.053H21.35c-.983,0-1.776,1.106-1.776,2.471S20.368,5,21.35,5h6.3c1.271.288,2.243,1.819,2.243,3.668a4.08,4.08,0,0,1-1.388,3.241l-2.45.9c-.828.278-1.616.571-2.354.867l-.16.059c-2.768,1.019-5.747,2.108-6.287,2.285a2.482,2.482,0,0,1-.972-.094L6.358,6.978l-1.8-1.81v.005a2.67,2.67,0,0,0-.268-.213,2.311,2.311,0,0,0-.414-.237,1.933,1.933,0,0,0-.351-.106,1.965,1.965,0,0,0-.388-.046,1.81,1.81,0,0,0-.517.074C1.154,4.82,0,6.513,0,8.6A4.783,4.783,0,0,0,.852,11.4l0,0,.014.015a3.185,3.185,0,0,0,.7.712l.684.69L17.807,28.507h0c.063.034.128.067.192.1a2.543,2.543,0,0,0,1.11.278,2.446,2.446,0,0,0,.668-.094l.077-.026C25.126,26.9,36.017,23.052,41.114,21.3c.125-.065.243-.124.368-.188a15.419,15.419,0,0,1,4.185-1V19.085h.014l-.014-1.421V8.4Z" transform="translate(0 1.112)" fill="#81B6C8"/>
      </g>
    </g>
    <path id="Fill_4" data-name="Fill 4" d="M0,1.568A10.739,10.739,0,0,0,6,5,15.313,15.313,0,0,1,2.508,0,13.07,13.07,0,0,0,0,1.568" transform="translate(7 16.89)" fill="#81B6C8"/>
    <path id="Fill_6" data-name="Fill 6" d="M2.4,6A13.276,13.276,0,0,1,5,4.473,13.936,13.936,0,0,1,4.023,0L0,0A10.547,10.547,0,0,0,2.4,6" transform="translate(4 11.89)" fill="#81B6C8"/>
    <path id="Fill_8" data-name="Fill 8" d="M5,3.967V0L0,0A19.091,19.091,0,0,0,.884,5,11.036,11.036,0,0,1,5,3.967" transform="translate(10 11.89)" fill="#81B6C8"/>
    <path id="Fill_10" data-name="Fill 10" d="M5,6V0A18.919,18.919,0,0,0,0,.851,14.748,14.748,0,0,0,5,6" transform="translate(10 15.89)" fill="#81B6C8"/>
    <path id="Fill_12" data-name="Fill 12" d="M2.467,5A13.726,13.726,0,0,1,6,0,10.241,10.241,0,0,0,0,3.433,12.662,12.662,0,0,0,2.467,5" transform="translate(7 -0.11)" fill="#81B6C8"/>
    <path id="Fill_14" data-name="Fill 14" d="M5,5V1.121A11.047,11.047,0,0,1,.689,0,18.43,18.43,0,0,0,0,5Z" transform="translate(10 6.89)" fill="#81B6C8"/>
    <path id="Fill_16" data-name="Fill 16" d="M4.19,6A12.364,12.364,0,0,1,5,1.608,14.4,14.4,0,0,1,2.187,0,9.424,9.424,0,0,0,0,6Z" transform="translate(4 3.89)" fill="#81B6C8"/>
    <path id="Fill_18" data-name="Fill 18" d="M0,5A10.191,10.191,0,0,0,6,1.526,12.345,12.345,0,0,0,3.434,0,14.715,14.715,0,0,1,0,5" transform="translate(17 16.89)" fill="#81B6C8"/>
    <path id="Fill_20" data-name="Fill 20" d="M2.744,6A11.04,11.04,0,0,0,5,0H.9A14.757,14.757,0,0,1,0,4.421,13.054,13.054,0,0,1,2.744,6" transform="translate(19 11.89)" fill="#81B6C8"/>
    <path id="Fill_22" data-name="Fill 22" d="M.741,6,5,6A9.93,9.93,0,0,0,2.963,0,14.2,14.2,0,0,1,0,1.665,13.17,13.17,0,0,1,.741,6" transform="translate(19 3.89)" fill="#81B6C8"/>
    <g id="Group_26" data-name="Group 26" transform="translate(10 -0.11)">
      <path id="Clip_25-2" data-name="Clip 25" d="M0,0H4.006V5.938H0Z" transform="translate(0.922)" fill="none"/>
      <g id="Group_26-2" data-name="Group 26" clip-path="url(#clip-path-2)">
        <path id="Fill_24" data-name="Fill 24" d="M4.006,5.939V0A12.214,12.214,0,0,0,0,5.082a12.215,12.215,0,0,0,4.006.857" transform="translate(0.922 -0.001)" fill="#81B6C8"/>
      </g>
    </g>
    <path id="Fill_27" data-name="Fill 27" d="M0,6a18.681,18.681,0,0,0,5-.746A13.192,13.192,0,0,0,0,0Z" transform="translate(14 -0.11)" fill="#81B6C8"/>
    <path id="Fill_29" data-name="Fill 29" d="M3.472,6A11.866,11.866,0,0,0,6,4.17,9.539,9.539,0,0,0,0,0,16.242,16.242,0,0,1,3.472,6" transform="translate(17 -0.11)" fill="#81B6C8"/>
    <path id="Fill_31" data-name="Fill 31" d="M0,5,5,5a19.309,19.309,0,0,0-.656-5A11.124,11.124,0,0,1,0,.994Z" transform="translate(14 6.89)" fill="#81B6C8"/>
    <path id="Fill_33" data-name="Fill 33" d="M5,.727A19.264,19.264,0,0,0,0,0V6A14.837,14.837,0,0,0,5,.727" transform="translate(14 15.89)" fill="#81B6C8"/>
    <path id="Fill_35" data-name="Fill 35" d="M4.148,5A20.023,20.023,0,0,0,5,0L0,0V4.093A11.081,11.081,0,0,1,4.148,5" transform="translate(14 11.89)" fill="#81B6C8"/>
  </g>
</svg>
