<svg xmlns="http://www.w3.org/2000/svg" xmlns:xlink="http://www.w3.org/1999/xlink" width="44.74" height="31.79" viewBox="0 0 44.74 31.79">
  <defs>
    <clipPath id="clip-path">
      <path id="Clip_2" data-name="Clip 2" d="M0,0H17.067V16.6H0Z" transform="translate(0.968 0.395)" fill="none"/>
    </clipPath>
    <clipPath id="clip-path-2">
      <path id="Clip_5" data-name="Clip 5" d="M0,0H44.74V29.432H0Z" transform="translate(0 0.21)" fill="none"/>
    </clipPath>
  </defs>
  <g id="Group_7" data-name="Group 7" transform="translate(0 -0.21)">
    <g id="Group_3" data-name="Group 3" transform="translate(13 15)">
      <path id="Clip_2-2" data-name="Clip 2" d="M0,0H17.067V16.6H0Z" transform="translate(0.968 0.395)" fill="none"/>
      <g id="Group_3-2" data-name="Group 3" clip-path="url(#clip-path)">
        <path id="Fill_1" data-name="Fill 1" d="M16.961,7.819,8.787.1a.375.375,0,0,0-.508,0L.105,7.819a.327.327,0,0,0-.078.37A.359.359,0,0,0,.358,8.4h4.9v7.867a.349.349,0,0,0,.358.34H11.45a.35.35,0,0,0,.36-.34V8.4h4.9a.36.36,0,0,0,.332-.209.326.326,0,0,0-.078-.37" transform="translate(0.968 0.395)" fill="#81b6c8"/>
      </g>
    </g>
    <g id="Group_6" data-name="Group 6">
      <path id="Clip_5-2" data-name="Clip 5" d="M0,0H44.74V29.432H0Z" transform="translate(0 0.21)" fill="none"/>
      <g id="Group_6-2" data-name="Group 6" clip-path="url(#clip-path-2)">
        <path id="Fill_4" data-name="Fill 4" d="M39.783,9.5A7.6,7.6,0,0,0,32.9,5.157h-.054a7.694,7.694,0,0,0-1.816.23A12.97,12.97,0,0,0,20.49,0,12.638,12.638,0,0,0,7.728,11.566,9.1,9.1,0,0,0,0,20.435a9.165,9.165,0,0,0,9.116,8.993c.042,0,.083,0,.125,0h4.728V25.3H9.336c-.027,0-.053,0-.079,0a4.869,4.869,0,1,1,.04-9.735c.143,0,.284.007.424.018a2.168,2.168,0,0,0,1.708-.616,2.016,2.016,0,0,0,.593-1.669,8.155,8.155,0,0,1-.054-.923A8.4,8.4,0,0,1,20.49,4.128a8.584,8.584,0,0,1,7.7,4.731A2.115,2.115,0,0,0,29.5,9.954a2.19,2.19,0,0,0,1.72-.211,3.281,3.281,0,0,1,1.654-.458H32.9A3.273,3.273,0,0,1,36.008,11.5a2.079,2.079,0,0,0,.965,1.17,6.758,6.758,0,0,1,3.5,5.859A6.9,6.9,0,0,1,33.519,25.3c-.042,0-.085,0-.128,0H31.034v4.128h2.438a11.1,11.1,0,0,0,11.268-10.9A10.849,10.849,0,0,0,39.783,9.5" transform="translate(0 0.21)" fill="#81b6c8"/>
      </g>
    </g>
  </g>
</svg>
