<svg id="Group_7" data-name="Group 7" xmlns="http://www.w3.org/2000/svg" width="29" height="29" viewBox="0 0 29 29">
  <path id="Fill_1" data-name="Fill 1" d="M26,13A13,13,0,1,1,13,0,13,13,0,0,1,26,13" transform="translate(2 2)" fill="#578f9e"/>
  <path id="Fill_3" data-name="Fill 3" d="M14.5,29A14.5,14.5,0,1,1,29,14.5,14.516,14.516,0,0,1,14.5,29Zm0-26.769A12.269,12.269,0,1,0,26.77,14.5,12.283,12.283,0,0,0,14.5,2.231Z" fill="#fff"/>
  <path id="Fill_5" data-name="Fill 5" d="M10.686,8.26a1.036,1.036,0,0,0-1.519,0L6.443,11.133v-10A1.1,1.1,0,0,0,5.369,0,1.1,1.1,0,0,0,4.295,1.133v9.724L1.833,8.26a1.036,1.036,0,0,0-1.519,0,1.178,1.178,0,0,0,0,1.6L4.34,14.107a1.128,1.128,0,0,0,.271.56A1.04,1.04,0,0,0,5.369,15a.9.9,0,0,0,.131-.027A.871.871,0,0,0,5.629,15a1.045,1.045,0,0,0,.76-.333,1.146,1.146,0,0,0,.271-.56l4.026-4.246a1.178,1.178,0,0,0,0-1.6" transform="translate(9 7)" fill="#fff"/>
</svg>
