<svg id="a4341c9a-e2fe-4dda-a620-a3b9c2a3aef1" data-name="圖層 1" xmlns="http://www.w3.org/2000/svg" viewBox="0 0 58.71 77.03"><defs><style>.b2e12d36-75cd-421a-8c8e-2a2447cc5892{fill:#c87d86;}</style></defs><title>icon</title><path class="b2e12d36-75cd-421a-8c8e-2a2447cc5892" d="M25.13,51.3l3.62-14.18a10.42,10.42,0,0,0,.41-2.51,12.68,12.68,0,0,0,.4,2.51L33,51.3h5.63l4.82-22.22h-5L36,44.06c-.13.87-.23,1.71-.3,2.51h-.1a13.24,13.24,0,0,0-.2-2,1.46,1.46,0,0,1-.1-.4L31.67,29.08H26.34L22.92,44c-.13.74-.27,1.61-.4,2.61h-.1c-.07-.67-.1-.9-.1-.7-.07-.94-.14-1.57-.2-1.91L19.6,29.08H14.48L19.3,51.3Z"/><path class="b2e12d36-75cd-421a-8c8e-2a2447cc5892" d="M18.85,63.24c-.05.34-.09.68-.12,1h0a4.3,4.3,0,0,0-.08-.8,1.17,1.17,0,0,1,0-.16l-1.43-6H15L13.67,63.2c-.06.29-.11.64-.17,1h0c0-.27,0-.36,0-.28,0-.38-.06-.63-.08-.76l-1-5.91h-2l1.92,8.82h2.31L16,60.48a4.15,4.15,0,0,0,.16-1,5.39,5.39,0,0,0,.16,1l1.36,5.63h2.23l1.92-8.82h-2Z"/><path class="b2e12d36-75cd-421a-8c8e-2a2447cc5892" d="M26.6,57.17q-4.2.16-4.39,4.59.24,4.27,4.39,4.51Q30.71,66,31,61.76,30.67,57.41,26.6,57.17Zm-.08,7.42c-1.44-.07-2.18-1-2.24-2.83s.84-2.79,2.28-2.87c1.41.08,2.14,1,2.19,2.87S28,64.54,26.52,64.59Z"/><path class="b2e12d36-75cd-421a-8c8e-2a2447cc5892" d="M39.37,59.93c-.08-1.71-1.2-2.59-3.35-2.64H32v8.82h2V62.68h1.16l2.15,3.39h2.52l-2.6-3.51A2.39,2.39,0,0,0,39.37,59.93ZM35.7,61.2H34V58.85H35.7c1.09,0,1.61.37,1.55,1.19S36.76,61.2,35.7,61.2Z"/><path class="b2e12d36-75cd-421a-8c8e-2a2447cc5892" d="M40.45,57.29v8.82h2.87q4.88.17,4.71-4.47-.08-4.3-4.83-4.35Zm5.46,4.35c0,2-.89,2.94-2.75,2.92h-.68V58.93h.68A2.48,2.48,0,0,1,45.91,61.64Z"/><path class="b2e12d36-75cd-421a-8c8e-2a2447cc5892" d="M58.21,12.08,37.32.13a1,1,0,0,0-1.15.14,1.1,1.1,0,0,0-.2.28H1.63A1.6,1.6,0,0,0,.48,1,1.64,1.64,0,0,0,0,2.18V75.4a1.69,1.69,0,0,0,.48,1.16A1.64,1.64,0,0,0,1.63,77H56.44a1.61,1.61,0,0,0,1.63-1.63l0-61.51.07,0a1,1,0,0,0,.55-.87A1,1,0,0,0,58.21,12.08Zm-3.4,61.69H3.27v-70H37.08l7.4,15.66a1,1,0,0,0,.88.57.9.9,0,0,0,.42-.1l9-4.44Z"/></svg>