<svg id="bc8b69c2-2885-4416-a4ac-5875c7524644" data-name="圖層 1" xmlns="http://www.w3.org/2000/svg" xmlns:xlink="http://www.w3.org/1999/xlink" viewBox="0 0 58.71 77.03"><defs><style>.ae669ba2-59e9-44d1-848e-fb3c0110993b{fill:none;clip-rule:evenodd;}.bc934f8f-9965-443b-b462-bb0ebe17fb86{fill:#84be98;}.f59845ba-d0b0-4889-95e1-a43b8f1264fc{clip-path:url(#a2495ba3-a985-4260-af80-b0a2d84c4620);}.abcfed59-f227-463c-91f7-449e3cfa3a2f{clip-path:url(#ad493476-f216-45c5-ba43-1f6a5eab1f7f);}.e7d5735a-d62a-43bb-8ac1-e4ea289c63c3{clip-path:url(#b4d082b1-f928-4ef0-bf39-a427f038fea1);}</style><clipPath id="a2495ba3-a985-4260-af80-b0a2d84c4620"><path class="ae669ba2-59e9-44d1-848e-fb3c0110993b" d="M-43.47,656.05a13,13,0,0,1-13,13,13,13,0,0,1-13-13,13,13,0,0,1,13-13,13,13,0,0,1,13,13"/></clipPath><clipPath id="ad493476-f216-45c5-ba43-1f6a5eab1f7f"><path class="ae669ba2-59e9-44d1-848e-fb3c0110993b" d="M-57,670.05a14.51,14.51,0,0,1-14.5-14.5A14.52,14.52,0,0,1-57,641.05a14.52,14.52,0,0,1,14.5,14.5A14.52,14.52,0,0,1-57,670.05m0-26.76a12.28,12.28,0,0,0-12.27,12.26A12.28,12.28,0,0,0-57,667.82,12.28,12.28,0,0,0-44.7,655.55,12.28,12.28,0,0,0-57,643.29"/></clipPath><clipPath id="b4d082b1-f928-4ef0-bf39-a427f038fea1"><path class="ae669ba2-59e9-44d1-848e-fb3c0110993b" d="M-51.79,656.31a1,1,0,0,0-1.52,0L-56,659.19v-10a1.11,1.11,0,0,0-1.07-1.14,1.11,1.11,0,0,0-1.08,1.14v9.72l-2.46-2.6a1,1,0,0,0-1.52,0,1.19,1.19,0,0,0,0,1.61l4,4.24a1.09,1.09,0,0,0,.27.56,1,1,0,0,0,.76.33l.13,0,.13,0a1.06,1.06,0,0,0,.76-.33,1.17,1.17,0,0,0,.27-.56l4-4.24a1.19,1.19,0,0,0,0-1.61"/></clipPath></defs><title>icon</title><path class="bc934f8f-9965-443b-b462-bb0ebe17fb86" d="M58.21,12.08,37.32.13a1,1,0,0,0-1.15.14,1.1,1.1,0,0,0-.2.28H1.63A1.6,1.6,0,0,0,.48,1,1.64,1.64,0,0,0,0,2.18V75.4a1.69,1.69,0,0,0,.48,1.16A1.64,1.64,0,0,0,1.63,77H56.44a1.61,1.61,0,0,0,1.63-1.63l0-61.51.07,0a1,1,0,0,0,.55-.87A1,1,0,0,0,58.21,12.08Zm-3.4,61.69H3.27v-70H37.08l7.4,15.66a1,1,0,0,0,.88.57.9.9,0,0,0,.42-.1l9-4.44Z"/><path class="bc934f8f-9965-443b-b462-bb0ebe17fb86" d="M13.66,41.33q.08,4.17-2.65,4.09c-1.82,0-2.75-1.18-2.81-3.69l-3.92,1q1,6.09,7,6,6.5.07,6.41-7.21V30.75h-4Z"/><path class="bc934f8f-9965-443b-b462-bb0ebe17fb86" d="M27.68,30.75H20.31V48.46h4V42.21h3q7.13,0,7-5.85Q34.09,30.91,27.68,30.75ZM27,39.16H24.31V33.88H27c2.08,0,3.15.93,3.2,2.64S29,39.11,27,39.16Z"/><path class="bc934f8f-9965-443b-b462-bb0ebe17fb86" d="M35.78,39.56q.31,8.82,8.73,9.14,6.26,0,8.09-3.85V38.28H43.71v3.21h5.21v2.16q-1.2,1.85-4.25,1.84Q40.19,45.1,40,39.65q.33-5.3,4.33-5.7a4.6,4.6,0,0,1,4.41,2.41L52.45,35q-2.1-4.5-8.18-4.49C38.93,30.83,36.09,33.85,35.78,39.56Z"/></svg>