<svg id="ae73dcb5-7c05-4d7b-9642-74a93ac13574" data-name="圖層 1" xmlns="http://www.w3.org/2000/svg" xmlns:xlink="http://www.w3.org/1999/xlink" viewBox="0 0 58.71 77.03"><defs><style>.bec989d7-e9ef-438c-ba95-624d19219cf8{fill:none;clip-rule:evenodd;}.b208b7d0-75e8-4615-87fa-af4cb59a37d1{fill:#81b6c8;}.f9040571-524f-4c49-bd3d-f2d887107473{clip-path:url(#ed0f019c-3925-40c2-9033-ec2bcfbc6da5);}.af0022ed-0161-4279-9ea0-7f3e7ee6671a{clip-path:url(#ff0aed16-750e-4266-8771-ade740b892ed);}.aa83c7be-f3aa-4d17-8a2e-4491090767e8{clip-path:url(#af355fbf-f6cb-4643-8e23-2fa016af4c41);}</style><clipPath id="ed0f019c-3925-40c2-9033-ec2bcfbc6da5"><path class="bec989d7-e9ef-438c-ba95-624d19219cf8" d="M-184.06,306.63a13,13,0,0,1-13,13,13,13,0,0,1-13-13,13,13,0,0,1,13-13,13,13,0,0,1,13,13"/></clipPath><clipPath id="ff0aed16-750e-4266-8771-ade740b892ed"><path class="bec989d7-e9ef-438c-ba95-624d19219cf8" d="M-197.56,320.63a14.52,14.52,0,0,1-14.5-14.5,14.51,14.51,0,0,1,14.5-14.5,14.52,14.52,0,0,1,14.5,14.5,14.52,14.52,0,0,1-14.5,14.5m0-26.77a12.28,12.28,0,0,0-12.27,12.27,12.28,12.28,0,0,0,12.27,12.26,12.28,12.28,0,0,0,12.27-12.26,12.28,12.28,0,0,0-12.27-12.27"/></clipPath><clipPath id="af355fbf-f6cb-4643-8e23-2fa016af4c41"><path class="bec989d7-e9ef-438c-ba95-624d19219cf8" d="M-192.38,306.89a1,1,0,0,0-1.52,0l-2.72,2.87v-10a1.1,1.1,0,0,0-1.07-1.13,1.1,1.1,0,0,0-1.08,1.13v9.72l-2.46-2.59a1,1,0,0,0-1.52,0,1.17,1.17,0,0,0,0,1.6l4,4.24a1.09,1.09,0,0,0,.27.56,1,1,0,0,0,.76.34s.08,0,.13,0,.08,0,.13,0a1.07,1.07,0,0,0,.76-.34,1.17,1.17,0,0,0,.27-.56l4-4.24a1.17,1.17,0,0,0,0-1.6"/></clipPath></defs><title>icon</title><path class="b208b7d0-75e8-4615-87fa-af4cb59a37d1" d="M58.21,12.08,37.32.13a1,1,0,0,0-1.15.14,1.1,1.1,0,0,0-.2.28H1.63A1.6,1.6,0,0,0,.48,1,1.64,1.64,0,0,0,0,2.18V75.4a1.69,1.69,0,0,0,.48,1.16A1.64,1.64,0,0,0,1.63,77H56.44a1.61,1.61,0,0,0,1.63-1.63l0-61.51.07,0a1,1,0,0,0,.55-.87A1,1,0,0,0,58.21,12.08Zm-3.4,61.69H3.27v-70H37.08l7.4,15.66a1,1,0,0,0,.88.57.9.9,0,0,0,.42-.1l9-4.44Z"/><path class="b208b7d0-75e8-4615-87fa-af4cb59a37d1" d="M20.48,57.07H16.74v9h2V62.89h1.5q3.63,0,3.58-3Q23.74,57.15,20.48,57.07Zm-.36,4.27H18.78V58.66h1.34c1.06,0,1.6.47,1.63,1.34S21.18,61.32,20.12,61.34Z"/><path class="b208b7d0-75e8-4615-87fa-af4cb59a37d1" d="M28.66,57.07H24.92v9h2V62.89h1.5q3.63,0,3.58-3Q31.92,57.15,28.66,57.07Zm-.36,4.27H27V58.66H28.3c1.06,0,1.6.47,1.63,1.34S29.36,61.32,28.3,61.34Z"/><polygon class="b208b7d0-75e8-4615-87fa-af4cb59a37d1" points="32.81 58.74 35.74 58.74 35.74 66.06 37.82 66.06 37.82 58.74 40.71 58.74 40.71 57.07 32.81 57.07 32.81 58.74"/><path class="b208b7d0-75e8-4615-87fa-af4cb59a37d1" d="M27,43.45h3.72q9,0,8.85-7.34-.3-6.83-8.35-7H21.92V51.3h5ZM27,33h3.32c2.61.06,3.95,1.17,4,3.31s-1.41,3.26-4,3.32H27Z"/></svg>