<svg id="f7ab6389-1100-4d66-a425-aa237bda4b5f" data-name="圖層 1" xmlns="http://www.w3.org/2000/svg" xmlns:xlink="http://www.w3.org/1999/xlink" viewBox="0 0 58.71 77.03"><defs><style>.b6fd451e-fbc6-4e5c-a5a0-c5d32ae44ce0{fill:none;clip-rule:evenodd;}.e17738a8-2d47-4afb-b8f4-b261edcd5a1b{fill:#84be98;}.acf61331-a11b-49d4-af2d-b25954099f86{clip-path:url(#f6c7050f-30e6-41d7-8057-2936c68890c6);}.f7e477c6-8961-4225-bfa3-98c68ea66fcf{clip-path:url(#e8e763c3-59a4-4614-949b-8cfc30746b16);}.a4588b3d-b9fb-43eb-b3e9-ab33844a7ada{clip-path:url(#e6c92ee3-9720-4acd-8553-ac7af0163a92);}</style><clipPath id="f6c7050f-30e6-41d7-8057-2936c68890c6"><path class="b6fd451e-fbc6-4e5c-a5a0-c5d32ae44ce0" d="M23.15,656.05a13,13,0,1,1-13-13,13,13,0,0,1,13,13"/></clipPath><clipPath id="e8e763c3-59a4-4614-949b-8cfc30746b16"><path class="b6fd451e-fbc6-4e5c-a5a0-c5d32ae44ce0" d="M9.65,670.05a14.5,14.5,0,1,1,14.5-14.5,14.52,14.52,0,0,1-14.5,14.5m0-26.76a12.27,12.27,0,1,0,12.27,12.26A12.28,12.28,0,0,0,9.65,643.29"/></clipPath><clipPath id="e6c92ee3-9720-4acd-8553-ac7af0163a92"><path class="b6fd451e-fbc6-4e5c-a5a0-c5d32ae44ce0" d="M14.84,656.31a1,1,0,0,0-1.52,0l-2.73,2.88v-10a1.07,1.07,0,1,0-2.14,0v9.72L6,656.31a1,1,0,0,0-1.51,0,1.19,1.19,0,0,0,0,1.61l4,4.24a1.09,1.09,0,0,0,.27.56,1.06,1.06,0,0,0,.76.33l.13,0,.13,0a1,1,0,0,0,.76-.33,1.09,1.09,0,0,0,.27-.56l4-4.24a1.19,1.19,0,0,0,0-1.61"/></clipPath></defs><title>icon</title><path class="e17738a8-2d47-4afb-b8f4-b261edcd5a1b" d="M58.21,12.08,37.32.13a1,1,0,0,0-1.15.14,1.1,1.1,0,0,0-.2.28H1.63A1.6,1.6,0,0,0,.48,1,1.64,1.64,0,0,0,0,2.18V75.4a1.69,1.69,0,0,0,.48,1.16A1.64,1.64,0,0,0,1.63,77H56.44a1.61,1.61,0,0,0,1.63-1.63l0-61.51.07,0a1,1,0,0,0,.55-.87A1,1,0,0,0,58.21,12.08Zm-3.4,61.69H3.27v-70H37.08l7.4,15.66a1,1,0,0,0,.88.57.9.9,0,0,0,.42-.1l9-4.44Z"/><path class="e17738a8-2d47-4afb-b8f4-b261edcd5a1b" d="M18.46,41.49h5.21v2.16q-1.2,1.85-4.25,1.84-4.49-.39-4.65-5.84.33-5.3,4.33-5.7a4.6,4.6,0,0,1,4.41,2.41L27.19,35Q25.11,30.5,19,30.51q-8,.48-8.5,9.05.33,8.82,8.74,9.14,6.25,0,8.09-3.85V38.28H18.46Z"/><rect class="e17738a8-2d47-4afb-b8f4-b261edcd5a1b" x="29.44" y="30.75" width="4.09" height="17.71"/><polygon class="e17738a8-2d47-4afb-b8f4-b261edcd5a1b" points="36.09 48.46 40.1 48.46 40.1 41.57 47.63 41.57 47.63 38.28 40.1 38.28 40.1 34.04 48.75 34.04 48.75 30.75 36.09 30.75 36.09 48.46"/></svg>