<svg id="e6a37176-f470-4620-8281-1adbdd2fc61b" data-name="圖層 1" xmlns="http://www.w3.org/2000/svg" xmlns:xlink="http://www.w3.org/1999/xlink" viewBox="0 0 58.71 77.03"><defs><style>.a012c4ed-6c8c-4af7-a945-1f41b4a9176c{fill:none;clip-rule:evenodd;}.b28b36ef-f939-4291-b4ee-14be7dd5d297{fill:#81b6c8;}.a4cc50ea-0b2c-42a5-a480-0b8700c414c0{clip-path:url(#bf5a0ae4-1580-4b3b-819d-842566e0633d);}.b524046c-8dd9-4ba8-a9f1-8a2789811309{clip-path:url(#b092623c-8c4e-4573-9334-87af2edc690e);}.bf211b48-99a6-4edc-a0ca-1174e6671a33{clip-path:url(#b18cd655-c258-4ea0-aa72-db694d3fe3d4);}</style><clipPath id="bf5a0ae4-1580-4b3b-819d-842566e0633d"><path class="a012c4ed-6c8c-4af7-a945-1f41b4a9176c" d="M-43.47,407.05a13,13,0,0,1-13,13,13,13,0,0,1-13-13,13,13,0,0,1,13-13,13,13,0,0,1,13,13"/></clipPath><clipPath id="b092623c-8c4e-4573-9334-87af2edc690e"><path class="a012c4ed-6c8c-4af7-a945-1f41b4a9176c" d="M-57,421.05a14.51,14.51,0,0,1-14.5-14.5A14.52,14.52,0,0,1-57,392.05a14.52,14.52,0,0,1,14.5,14.5A14.52,14.52,0,0,1-57,421.05m0-26.76a12.28,12.28,0,0,0-12.27,12.26A12.28,12.28,0,0,0-57,418.82,12.28,12.28,0,0,0-44.7,406.55,12.28,12.28,0,0,0-57,394.29"/></clipPath><clipPath id="b18cd655-c258-4ea0-aa72-db694d3fe3d4"><path class="a012c4ed-6c8c-4af7-a945-1f41b4a9176c" d="M-51.79,407.31a1,1,0,0,0-1.52,0L-56,410.19v-10a1.11,1.11,0,0,0-1.07-1.14,1.11,1.11,0,0,0-1.08,1.14v9.72l-2.46-2.6a1,1,0,0,0-1.52,0,1.19,1.19,0,0,0,0,1.61l4,4.24a1.09,1.09,0,0,0,.27.56,1,1,0,0,0,.76.33l.13,0,.13,0a1.06,1.06,0,0,0,.76-.33,1.17,1.17,0,0,0,.27-.56l4-4.24a1.19,1.19,0,0,0,0-1.61"/></clipPath></defs><title>icon</title><path class="b28b36ef-f939-4291-b4ee-14be7dd5d297" d="M58.21,12.08,37.32.13a1,1,0,0,0-1.15.14,1.1,1.1,0,0,0-.2.28H1.63A1.6,1.6,0,0,0,.48,1,1.64,1.64,0,0,0,0,2.18V75.4a1.69,1.69,0,0,0,.48,1.16A1.64,1.64,0,0,0,1.63,77H56.44a1.61,1.61,0,0,0,1.63-1.63l0-61.51.07,0a1,1,0,0,0,.55-.87A1,1,0,0,0,58.21,12.08Zm-3.4,61.69H3.27v-70H37.08l7.4,15.66a1,1,0,0,0,.88.57.9.9,0,0,0,.42-.1l9-4.44Z"/><path class="b28b36ef-f939-4291-b4ee-14be7dd5d297" d="M13.66,41.33q.08,4.17-2.65,4.09c-1.82,0-2.75-1.18-2.81-3.69l-3.92,1q1,6.09,7,6,6.5.07,6.41-7.21V30.75h-4Z"/><path class="b28b36ef-f939-4291-b4ee-14be7dd5d297" d="M27.68,30.75H20.31V48.46h4V42.21h3q7.13,0,7-5.85Q34.09,30.91,27.68,30.75ZM27,39.16H24.31V33.88H27c2.08,0,3.15.93,3.2,2.64S29,39.11,27,39.16Z"/><path class="b28b36ef-f939-4291-b4ee-14be7dd5d297" d="M35.78,39.56q.31,8.82,8.73,9.14,6.26,0,8.09-3.85V38.28H43.71v3.21h5.21v2.16q-1.2,1.85-4.25,1.84Q40.19,45.1,40,39.65q.33-5.3,4.33-5.7a4.6,4.6,0,0,1,4.41,2.41L52.45,35q-2.1-4.5-8.18-4.49C38.93,30.83,36.09,33.85,35.78,39.56Z"/></svg>