<svg id="ac49a5ee-7d51-4728-9238-3bee8b62ee7b" data-name="圖層 1" xmlns="http://www.w3.org/2000/svg" viewBox="0 0 58.71 77.03"><defs><style>.b0270438-7eb7-4e10-b4e4-3549cac81771{fill:#c87d86;}</style></defs><title>icon</title><path class="b0270438-7eb7-4e10-b4e4-3549cac81771" d="M58.21,12.08,37.32.13a1,1,0,0,0-1.15.14,1.1,1.1,0,0,0-.2.28H1.63A1.6,1.6,0,0,0,.48,1,1.64,1.64,0,0,0,0,2.18V75.4a1.69,1.69,0,0,0,.48,1.16A1.64,1.64,0,0,0,1.63,77H56.44a1.61,1.61,0,0,0,1.63-1.63l0-61.51.07,0a1,1,0,0,0,.55-.87A1,1,0,0,0,58.21,12.08Zm-3.4,61.69H3.27v-70H37.08l7.4,15.66a1,1,0,0,0,.88.57.9.9,0,0,0,.42-.1l9-4.44Z"/><path class="b0270438-7eb7-4e10-b4e4-3549cac81771" d="M22.62,30.75,16.05,48.46h4.33l1.28-3.85h6.73l1.28,3.85h4.41L27.43,30.75Zm-.08,10.82,2-6a8,8,0,0,0,.4-1.61H25c.1.49.24,1,.4,1.53l2.24,6.09Z"/><rect class="b0270438-7eb7-4e10-b4e4-3549cac81771" x="35.36" y="30.75" width="4.09" height="17.71"/></svg>