<svg id="f9388454-d3a4-449c-9243-3ff4e863938a" data-name="圖層 1" xmlns="http://www.w3.org/2000/svg" viewBox="0 0 58.71 77.03"><defs><style>.e4e5c2cf-3425-4d8f-b287-3331477ed071{fill:#c87d86;}</style></defs><title>icon</title><path class="e4e5c2cf-3425-4d8f-b287-3331477ed071" d="M58.21,12.08,37.32.13a1,1,0,0,0-1.15.14,1.1,1.1,0,0,0-.2.28H1.63A1.6,1.6,0,0,0,.48,1,1.64,1.64,0,0,0,0,2.18V75.4a1.69,1.69,0,0,0,.48,1.16A1.64,1.64,0,0,0,1.63,77H56.44a1.61,1.61,0,0,0,1.63-1.63l0-61.51.07,0a1,1,0,0,0,.55-.87A1,1,0,0,0,58.21,12.08Zm-3.4,61.69H3.27v-70H37.08l7.4,15.66a1,1,0,0,0,.88.57.9.9,0,0,0,.42-.1l9-4.44Z"/><path class="e4e5c2cf-3425-4d8f-b287-3331477ed071" d="M18.46,41.49h5.21v2.16q-1.2,1.85-4.25,1.84-4.49-.39-4.65-5.84.33-5.3,4.33-5.7a4.6,4.6,0,0,1,4.41,2.41L27.19,35Q25.11,30.5,19,30.51q-8,.48-8.5,9.05.33,8.82,8.74,9.14,6.25,0,8.09-3.85V38.28H18.46Z"/><rect class="e4e5c2cf-3425-4d8f-b287-3331477ed071" x="29.44" y="30.75" width="4.09" height="17.71"/><polygon class="e4e5c2cf-3425-4d8f-b287-3331477ed071" points="36.09 48.46 40.1 48.46 40.1 41.57 47.63 41.57 47.63 38.28 40.1 38.28 40.1 34.04 48.75 34.04 48.75 30.75 36.09 30.75 36.09 48.46"/></svg>