<svg id="feca564d-0f32-4eeb-92cc-6992a500843e" data-name="圖層 1" xmlns="http://www.w3.org/2000/svg" viewBox="0 0 58.71 77.03"><defs><style>.b28220b5-dd99-41b3-91cf-3092e48817c0{fill:#c87d86;}</style></defs><title>icon</title><path class="b28220b5-dd99-41b3-91cf-3092e48817c0" d="M58.21,12.08,37.32.13a1,1,0,0,0-1.15.14,1.1,1.1,0,0,0-.2.28H1.63A1.6,1.6,0,0,0,.48,1,1.64,1.64,0,0,0,0,2.18V75.4a1.69,1.69,0,0,0,.48,1.16A1.64,1.64,0,0,0,1.63,77H56.44a1.61,1.61,0,0,0,1.63-1.63l0-61.51.07,0a1,1,0,0,0,.55-.87A1,1,0,0,0,58.21,12.08Zm-3.4,61.69H3.27v-70H37.08l7.4,15.66a1,1,0,0,0,.88.57.9.9,0,0,0,.42-.1l9-4.44Z"/><path class="b28220b5-dd99-41b3-91cf-3092e48817c0" d="M10.42,28.19V61.33a2.37,2.37,0,0,0,2.36,2.37H45.93a2.37,2.37,0,0,0,2.37-2.37V28.19a2.37,2.37,0,0,0-2.37-2.37H12.78A2.37,2.37,0,0,0,10.42,28.19Zm7.1,33.14H12.78V56.6h4.74Zm9.47,0H22.25V56.6H27Zm9.47,0H31.73V56.6h4.73Zm9.47,0H41.2V56.6h4.73Zm0-26V54.23H13.11V35.29Zm-4.73-7.1h4.73v4.73H41.2Zm-9.47,0h4.73v4.73H31.73Zm-9.48,0H27v4.73H22.25Zm-4.73,4.73H12.78V28.19h4.74Z"/><polygon class="b28220b5-dd99-41b3-91cf-3092e48817c0" points="26.97 37.48 26.97 50.02 36.38 43.75 26.97 37.48"/></svg>