<svg id="b5f8454a-040a-44e1-b609-ae579f376fbd" data-name="圖層 1" xmlns="http://www.w3.org/2000/svg" viewBox="0 0 58.71 77.03"><defs><style>.a5f39133-ec8d-48de-9816-8eb7b92da6f7{fill:#84be98;}</style></defs><title>icon</title><path class="a5f39133-ec8d-48de-9816-8eb7b92da6f7" d="M58.21,12.08,37.32.13a1,1,0,0,0-1.15.14,1.1,1.1,0,0,0-.2.28H1.63A1.6,1.6,0,0,0,.48,1,1.64,1.64,0,0,0,0,2.18V75.4a1.69,1.69,0,0,0,.48,1.16A1.64,1.64,0,0,0,1.63,77H56.44a1.61,1.61,0,0,0,1.63-1.63l0-61.51.07,0a1,1,0,0,0,.55-.87A1,1,0,0,0,58.21,12.08Zm-3.4,61.69H3.27v-70H37.08l7.4,15.66a1,1,0,0,0,.88.57.9.9,0,0,0,.42-.1l9-4.44Z"/><path class="a5f39133-ec8d-48de-9816-8eb7b92da6f7" d="M13.63,32.7H6.89V48.9h3.66V43.18h2.72q6.53,0,6.45-5.35Q19.5,32.85,13.63,32.7ZM13,40.4H10.55V35.56H13c1.91,0,2.89.85,2.93,2.42S14.88,40.35,13,40.4Z"/><path class="a5f39133-ec8d-48de-9816-8eb7b92da6f7" d="M32.55,41.72c0,1.12,0,2,.08,2.49v.07a7,7,0,0,0-.88-1.61l-6.16-10h-4V48.9h3.44V40c0-1.12,0-2.05-.07-2.79.15.3.44.81.88,1.54L32.26,48.9H36V32.7H32.55Z"/><path class="a5f39133-ec8d-48de-9816-8eb7b92da6f7" d="M37.83,40.76q.3,8.07,8,8.36,5.72,0,7.4-3.52v-6H45.09v2.93h4.77v2c-.73,1.13-2,1.69-3.89,1.69-2.74-.24-4.15-2-4.25-5.35.19-3.23,1.51-5,4-5.21a4.17,4.17,0,0,1,4,2.2l3.38-1.25q-1.92-4.09-7.48-4.1Q38.28,32.92,37.83,40.76Z"/></svg>