<svg id="f18bd7a7-dc16-4402-a57f-e918e1cb619f" data-name="圖層 1" xmlns="http://www.w3.org/2000/svg" xmlns:xlink="http://www.w3.org/1999/xlink" viewBox="0 0 58.71 77.03"><defs><style>.e524bf9e-f6d8-47e1-8864-6446e6e09c19{fill:none;clip-rule:evenodd;}.ead50263-8626-48ec-9bf3-0a321c416f56{fill:#81b6c8;}.f8806c67-5ff7-4b73-89db-9dea86eca980{clip-path:url(#a6261e34-59b5-4ff0-a9c7-3d8865437584);}.aa873baf-ae9e-4099-ba0d-2feef6b7de23{clip-path:url(#f81bfa17-170c-4446-806b-ae622daffff7);}.b0899130-88c6-4497-be72-d0bd06dcd505{clip-path:url(#a4fa89da-8d4a-4562-af2f-3de0144d4520);}</style><clipPath id="a6261e34-59b5-4ff0-a9c7-3d8865437584"><path class="e524bf9e-f6d8-47e1-8864-6446e6e09c19" d="M24.4,306.63a13,13,0,1,1-13-13,13,13,0,0,1,13,13"/></clipPath><clipPath id="f81bfa17-170c-4446-806b-ae622daffff7"><path class="e524bf9e-f6d8-47e1-8864-6446e6e09c19" d="M10.9,320.63a14.5,14.5,0,1,1,14.5-14.5,14.52,14.52,0,0,1-14.5,14.5m0-26.77a12.27,12.27,0,1,0,12.27,12.27A12.28,12.28,0,0,0,10.9,293.86"/></clipPath><clipPath id="a4fa89da-8d4a-4562-af2f-3de0144d4520"><path class="e524bf9e-f6d8-47e1-8864-6446e6e09c19" d="M16.09,306.89a1,1,0,0,0-1.52,0l-2.73,2.87v-10a1.07,1.07,0,1,0-2.14,0v9.72l-2.47-2.59a1,1,0,0,0-1.52,0,1.19,1.19,0,0,0,0,1.6l4,4.24a1.09,1.09,0,0,0,.27.56,1,1,0,0,0,.76.34l.13,0,.13,0a1.07,1.07,0,0,0,.76-.34,1.09,1.09,0,0,0,.27-.56l4-4.24a1.17,1.17,0,0,0,0-1.6"/></clipPath></defs><title>icon</title><path class="ead50263-8626-48ec-9bf3-0a321c416f56" d="M58.21,12.08,37.32.13a1,1,0,0,0-1.15.14,1.1,1.1,0,0,0-.2.28H1.63A1.6,1.6,0,0,0,.48,1,1.64,1.64,0,0,0,0,2.18V75.4a1.69,1.69,0,0,0,.48,1.16A1.64,1.64,0,0,0,1.63,77H56.44a1.61,1.61,0,0,0,1.63-1.63l0-61.51.07,0a1,1,0,0,0,.55-.87A1,1,0,0,0,58.21,12.08Zm-3.4,61.69H3.27v-70H37.08l7.4,15.66a1,1,0,0,0,.88.57.9.9,0,0,0,.42-.1l9-4.44Z"/><path class="ead50263-8626-48ec-9bf3-0a321c416f56" d="M44.64,29.22l-8.55,2.62a2.67,2.67,0,0,0-1.87,2.41v9a3,3,0,0,0-2-.22c-2,.29-3.67,1.84-3.67,3.47s1.64,2.63,3.67,2.34a3.79,3.79,0,0,0,3.51-3.42v-7.7c0-.72.87-1,.87-1l7.56-2.37s.83-.28.83.5V41h0a3.64,3.64,0,0,0-2.15-.28c-2,.25-3.67,1.77-3.67,3.4s1.65,2.66,3.67,2.42,3.67-1.77,3.67-3.4V30.56A1.37,1.37,0,0,0,44.64,29.22Z"/><path class="ead50263-8626-48ec-9bf3-0a321c416f56" d="M21.81,33.79,14,41.64H8.75V54.13H14L21.81,62c.83.83,1.51.55,1.51-.63V34.42C23.32,33.24,22.64,33,21.81,33.79Z"/></svg>