<svg id="b313a2cf-dcf4-4220-b349-15d94f0c157e" data-name="圖層 1" xmlns="http://www.w3.org/2000/svg" xmlns:xlink="http://www.w3.org/1999/xlink" viewBox="0 0 58.71 77.03"><defs><style>.eca7818d-1eb8-480f-b903-07082c8bd209{fill:none;clip-rule:evenodd;}.a3dba48d-2b0b-4bb5-9c9d-13ea2168f233{fill:#84be98;}.b66c5be1-d148-44ca-9728-001ecbefa4ff{clip-path:url(#a1f7b8b0-2a46-46bc-8640-e5a06eac5f83);}.b239457f-bb49-43fb-849a-b8393ed99356{clip-path:url(#bae08e8c-43f1-4e47-abaa-cb0819780e04);}.ab097e77-5bc3-41db-97a7-85fdce206f4b{clip-path:url(#a647d1a9-b258-4c3e-8298-247126ff5a95);}</style><clipPath id="a1f7b8b0-2a46-46bc-8640-e5a06eac5f83"><path class="eca7818d-1eb8-480f-b903-07082c8bd209" d="M95.19,555.63a13,13,0,1,1-13-13,13,13,0,0,1,13,13"/></clipPath><clipPath id="bae08e8c-43f1-4e47-abaa-cb0819780e04"><path class="eca7818d-1eb8-480f-b903-07082c8bd209" d="M81.69,569.63a14.5,14.5,0,1,1,14.5-14.5,14.52,14.52,0,0,1-14.5,14.5m0-26.77A12.27,12.27,0,1,0,94,555.13a12.28,12.28,0,0,0-12.27-12.27"/></clipPath><clipPath id="a647d1a9-b258-4c3e-8298-247126ff5a95"><path class="eca7818d-1eb8-480f-b903-07082c8bd209" d="M86.87,555.89a1,1,0,0,0-1.51,0l-2.73,2.87v-10a1.08,1.08,0,1,0-2.15,0v9.72L78,555.89a1,1,0,0,0-1.52,0,1.17,1.17,0,0,0,0,1.6l4,4.24a1.09,1.09,0,0,0,.27.56,1,1,0,0,0,.76.34s.08,0,.13,0,.08,0,.13,0a1.07,1.07,0,0,0,.76-.34,1.17,1.17,0,0,0,.27-.56l4-4.24a1.17,1.17,0,0,0,0-1.6"/></clipPath></defs><title>icon</title><path class="a3dba48d-2b0b-4bb5-9c9d-13ea2168f233" d="M58.21,12.08,37.32.13a1,1,0,0,0-1.15.14,1.1,1.1,0,0,0-.2.28H1.63A1.6,1.6,0,0,0,.48,1,1.64,1.64,0,0,0,0,2.18V75.4a1.69,1.69,0,0,0,.48,1.16A1.64,1.64,0,0,0,1.63,77H56.44a1.61,1.61,0,0,0,1.63-1.63l0-61.51.07,0a1,1,0,0,0,.55-.87A1,1,0,0,0,58.21,12.08Zm-3.4,61.69H3.27v-70H37.08l7.4,15.66a1,1,0,0,0,.88.57.9.9,0,0,0,.42-.1l9-4.44Z"/><path class="a3dba48d-2b0b-4bb5-9c9d-13ea2168f233" d="M10.42,28.19V61.33a2.37,2.37,0,0,0,2.36,2.37H45.93a2.37,2.37,0,0,0,2.37-2.37V28.19a2.37,2.37,0,0,0-2.37-2.37H12.78A2.37,2.37,0,0,0,10.42,28.19Zm7.1,33.14H12.78V56.6h4.74Zm9.47,0H22.25V56.6H27Zm9.47,0H31.73V56.6h4.73Zm9.47,0H41.2V56.6h4.73Zm0-26V54.23H13.11V35.29Zm-4.73-7.1h4.73v4.73H41.2Zm-9.47,0h4.73v4.73H31.73Zm-9.48,0H27v4.73H22.25Zm-4.73,4.73H12.78V28.19h4.74Z"/><polygon class="a3dba48d-2b0b-4bb5-9c9d-13ea2168f233" points="26.97 37.48 26.97 50.02 36.38 43.75 26.97 37.48"/></svg>