<svg id="f6dabc94-b018-454a-879a-d5933c937fc3" data-name="圖層 1" xmlns="http://www.w3.org/2000/svg" xmlns:xlink="http://www.w3.org/1999/xlink" viewBox="0 0 58.71 77.03"><defs><style>.aff8a280-302c-4620-be4c-4e9afd4de73c{fill:none;clip-rule:evenodd;}.a2a05119-4bed-4bd8-affa-c42f65e43a7d,.e31dcc2c-5bfe-4921-a440-bda2205b8e25{fill:#84be98;}.a2a05119-4bed-4bd8-affa-c42f65e43a7d{fill-rule:evenodd;}.bc1486f8-c5bc-4642-b3ea-c91b7d929961{clip-path:url(#a384e3b6-53bb-42c1-befa-78c53e88e80a);}.a488278f-1698-41ca-8b8c-9d899550f0da{clip-path:url(#b77b3622-05a4-4cf1-b6a6-d1c60ad8874c);}.ffbc6f86-2ea3-41e0-9d96-c78976e84fb8{clip-path:url(#b25ff280-f8cd-4759-8f97-7bb0272fb0f9);}</style><clipPath id="a384e3b6-53bb-42c1-befa-78c53e88e80a"><path class="aff8a280-302c-4620-be4c-4e9afd4de73c" d="M-251.59,555.63a13,13,0,0,1-13,13,13,13,0,0,1-13-13,13,13,0,0,1,13-13,13,13,0,0,1,13,13"/></clipPath><clipPath id="b77b3622-05a4-4cf1-b6a6-d1c60ad8874c"><path class="aff8a280-302c-4620-be4c-4e9afd4de73c" d="M-265.09,569.63a14.52,14.52,0,0,1-14.5-14.5,14.51,14.51,0,0,1,14.5-14.5,14.52,14.52,0,0,1,14.5,14.5,14.52,14.52,0,0,1-14.5,14.5m0-26.77a12.28,12.28,0,0,0-12.27,12.27,12.28,12.28,0,0,0,12.27,12.26,12.28,12.28,0,0,0,12.27-12.26,12.28,12.28,0,0,0-12.27-12.27"/></clipPath><clipPath id="b25ff280-f8cd-4759-8f97-7bb0272fb0f9"><path class="aff8a280-302c-4620-be4c-4e9afd4de73c" d="M-259.9,555.89a1,1,0,0,0-1.52,0l-2.73,2.87v-10a1.1,1.1,0,0,0-1.07-1.13,1.11,1.11,0,0,0-1.08,1.13v9.72l-2.46-2.59a1,1,0,0,0-1.52,0,1.19,1.19,0,0,0,0,1.6l4,4.24a1.09,1.09,0,0,0,.27.56,1,1,0,0,0,.76.34s.08,0,.13,0l.13,0a1.07,1.07,0,0,0,.76-.34,1.17,1.17,0,0,0,.27-.56l4-4.24a1.19,1.19,0,0,0,0-1.6"/></clipPath></defs><title>icon</title><path class="a2a05119-4bed-4bd8-affa-c42f65e43a7d" d="M43.24,53.06h-4.3v2.77h4.3a.22.22,0,0,1,.21.21v8.61a.22.22,0,0,1-.21.21h-28a.22.22,0,0,1-.21-.21V56a.22.22,0,0,1,.21-.21h4.3V53.06H15.2a3,3,0,0,0-3,3v8.61a3,3,0,0,0,3,3h28a3,3,0,0,0,3-3V56A3,3,0,0,0,43.24,53.06Z"/><polygon class="a2a05119-4bed-4bd8-affa-c42f65e43a7d" points="15.94 32.03 11.09 32.03 11.09 29.98 15.5 29.98 15.5 28.36 11.09 28.36 11.09 26.47 15.82 26.47 15.82 24.86 9.12 24.86 9.12 33.56 15.94 33.56 15.94 32.03"/><path class="a2a05119-4bed-4bd8-affa-c42f65e43a7d" d="M18.53,33.56l1.74-2.76a4.86,4.86,0,0,0,.31-.59l.12.2q.16.29.24.39l1.73,2.76h2.45l-3.2-4.33,2.88-4.37H22.48l-1.42,2.6c-.16.31-.29.56-.4.74a2,2,0,0,1-.19-.35l-.24-.35-1.46-2.64H16.41l2.91,4.37-3.07,4.33Z"/><path class="a2a05119-4bed-4bd8-affa-c42f65e43a7d" d="M29.68,33.68a3.48,3.48,0,0,0,3.79-2.91l-1.89-.6c-.19,1.27-.82,1.91-1.9,1.94C28.34,32,27.63,31,27.56,29.23s.78-2.72,2.12-2.8a1.85,1.85,0,0,1,1.82,1.42l1.89-.43a3.73,3.73,0,0,0-3.71-2.68q-4,.23-4.21,4.49Q25.67,33.49,29.68,33.68Z"/><polygon class="a2a05119-4bed-4bd8-affa-c42f65e43a7d" points="41.27 32.03 36.42 32.03 36.42 29.98 40.84 29.98 40.84 28.36 36.42 28.36 36.42 26.47 41.15 26.47 41.15 24.86 34.45 24.86 34.45 33.56 41.27 33.56 41.27 32.03"/><polygon class="a2a05119-4bed-4bd8-affa-c42f65e43a7d" points="44.22 24.86 42.26 24.86 42.26 33.56 48.68 33.56 48.68 32.03 44.22 32.03 44.22 24.86"/><path class="a2a05119-4bed-4bd8-affa-c42f65e43a7d" d="M58.21,12.08,37.32.13a1,1,0,0,0-1.15.14,1.1,1.1,0,0,0-.2.28H1.63A1.6,1.6,0,0,0,.48,1,1.64,1.64,0,0,0,0,2.18V75.4a1.69,1.69,0,0,0,.48,1.16A1.64,1.64,0,0,0,1.63,77H56.44a1.61,1.61,0,0,0,1.63-1.63l0-61.51.07,0a1,1,0,0,0,.55-.87A1,1,0,0,0,58.21,12.08Zm-3.4,61.69H3.27v-70H37.08l7.4,15.66a1,1,0,0,0,.88.57.9.9,0,0,0,.42-.1l9-4.44Z"/><rect class="e31dcc2c-5bfe-4921-a440-bda2205b8e25" x="26.77" y="43.53" width="16.01" height="8" transform="translate(-23.42 38.51) rotate(-45)"/><polygon class="a2a05119-4bed-4bd8-affa-c42f65e43a7d" points="21.57 60.73 36.66 60.73 26.29 50.36 21.57 45.64 21.57 60.73"/></svg>