<svg id="bfcb364a-5b87-49fc-bf82-098bc6feda5f" data-name="圖層 1" xmlns="http://www.w3.org/2000/svg" xmlns:xlink="http://www.w3.org/1999/xlink" viewBox="0 0 58.71 77.03"><defs><style>.a3457e1a-5faa-4f0e-9287-d8d6cac5b5e4{fill:none;clip-rule:evenodd;}.b7570f42-2e43-4ce6-8643-814bcc7dfa48{fill:#84be98;}.bd9fc05f-34ee-4404-9930-1b142c852492{clip-path:url(#bf9f911e-68e5-4de5-8e4c-45298ddd6eeb);}.f3edb444-a5ec-4eb3-9023-e4e9a884137f{clip-path:url(#b98c4cb1-6ede-482a-a529-d7642c149be6);}.b2f3c73a-ac58-4a11-910d-14ea5d3743ea{clip-path:url(#f7313159-fe79-4a26-9fe3-d167755741da);}</style><clipPath id="bf9f911e-68e5-4de5-8e4c-45298ddd6eeb"><path class="a3457e1a-5faa-4f0e-9287-d8d6cac5b5e4" d="M-251.67,656.05a13,13,0,0,1-13,13,13,13,0,0,1-13-13,13,13,0,0,1,13-13,13,13,0,0,1,13,13"/></clipPath><clipPath id="b98c4cb1-6ede-482a-a529-d7642c149be6"><path class="a3457e1a-5faa-4f0e-9287-d8d6cac5b5e4" d="M-265.17,670.05a14.51,14.51,0,0,1-14.5-14.5,14.52,14.52,0,0,1,14.5-14.5,14.52,14.52,0,0,1,14.5,14.5,14.52,14.52,0,0,1-14.5,14.5m0-26.76a12.28,12.28,0,0,0-12.27,12.26,12.28,12.28,0,0,0,12.27,12.27,12.28,12.28,0,0,0,12.27-12.27,12.28,12.28,0,0,0-12.27-12.26"/></clipPath><clipPath id="f7313159-fe79-4a26-9fe3-d167755741da"><path class="a3457e1a-5faa-4f0e-9287-d8d6cac5b5e4" d="M-260,656.31a1,1,0,0,0-1.52,0l-2.72,2.88v-10a1.11,1.11,0,0,0-1.07-1.14,1.11,1.11,0,0,0-1.08,1.14v9.72l-2.46-2.6a1,1,0,0,0-1.52,0,1.19,1.19,0,0,0,0,1.61l4,4.24a1.09,1.09,0,0,0,.27.56,1,1,0,0,0,.76.33l.13,0,.13,0a1.06,1.06,0,0,0,.76-.33,1.17,1.17,0,0,0,.27-.56l4-4.24a1.19,1.19,0,0,0,0-1.61"/></clipPath></defs><title>icon</title><path class="b7570f42-2e43-4ce6-8643-814bcc7dfa48" d="M58.21,12.08,37.32.13a1,1,0,0,0-1.15.14,1.1,1.1,0,0,0-.2.28H1.63A1.6,1.6,0,0,0,.48,1,1.64,1.64,0,0,0,0,2.18V75.4a1.69,1.69,0,0,0,.48,1.16A1.64,1.64,0,0,0,1.63,77H56.44a1.61,1.61,0,0,0,1.63-1.63l0-61.51.07,0a1,1,0,0,0,.55-.87A1,1,0,0,0,58.21,12.08Zm-3.4,61.69H3.27v-70H37.08l7.4,15.66a1,1,0,0,0,.88.57.9.9,0,0,0,.42-.1l9-4.44Z"/><polygon class="b7570f42-2e43-4ce6-8643-814bcc7dfa48" points="25.83 34.04 25.83 30.75 11.33 30.75 11.33 34.12 20.7 34.12 10.44 45.42 10.44 48.46 26.23 48.46 26.23 45.33 15.33 45.33 25.83 34.04"/><rect class="b7570f42-2e43-4ce6-8643-814bcc7dfa48" x="28" y="30.75" width="4.09" height="17.71"/><path class="b7570f42-2e43-4ce6-8643-814bcc7dfa48" d="M34.65,30.75V48.46h4V42.21h3q7.13,0,7.05-5.85-.24-5.45-6.65-5.61Zm9.85,5.77c0,1.71-1.12,2.59-3.2,2.64H38.65V33.88H41.3C43.38,33.93,44.45,34.81,44.5,36.52Z"/></svg>