<svg id="ba06dd09-16dc-4ee1-8c12-d0ae5b2dc43b" data-name="圖層 1" xmlns="http://www.w3.org/2000/svg" xmlns:xlink="http://www.w3.org/1999/xlink" viewBox="0 0 58.71 77.03"><defs><style>.a58d9fb7-c5b6-4743-a3c2-717090136304{fill:none;clip-rule:evenodd;}.bbca5b82-2735-43db-a35b-bd211799f5ba{fill:#84be98;}.ab7478f5-3786-414f-acaa-7b0dd2c94b2f{clip-path:url(#a3f3a031-5ffb-45ae-9a20-82179362da02);}.beb18cb2-bed4-4e76-a23b-aac73e9e7525{clip-path:url(#b0b2b709-2f9b-4111-b21d-7bc19e9d56fa);}.aa47b15b-7b83-4152-a61b-743c793c3085{clip-path:url(#a834fda3-0595-45f5-bfc6-56de25e45fdf);}</style><clipPath id="a3f3a031-5ffb-45ae-9a20-82179362da02"><path class="a58d9fb7-c5b6-4743-a3c2-717090136304" d="M24.4,555.63a13,13,0,1,1-13-13,13,13,0,0,1,13,13"/></clipPath><clipPath id="b0b2b709-2f9b-4111-b21d-7bc19e9d56fa"><path class="a58d9fb7-c5b6-4743-a3c2-717090136304" d="M10.9,569.63a14.5,14.5,0,1,1,14.5-14.5,14.52,14.52,0,0,1-14.5,14.5m0-26.77a12.27,12.27,0,1,0,12.27,12.27A12.28,12.28,0,0,0,10.9,542.86"/></clipPath><clipPath id="a834fda3-0595-45f5-bfc6-56de25e45fdf"><path class="a58d9fb7-c5b6-4743-a3c2-717090136304" d="M16.09,555.89a1,1,0,0,0-1.52,0l-2.73,2.87v-10a1.07,1.07,0,1,0-2.14,0v9.72l-2.47-2.59a1,1,0,0,0-1.52,0,1.19,1.19,0,0,0,0,1.6l4,4.24a1.09,1.09,0,0,0,.27.56,1,1,0,0,0,.76.34l.13,0,.13,0a1.07,1.07,0,0,0,.76-.34,1.09,1.09,0,0,0,.27-.56l4-4.24a1.17,1.17,0,0,0,0-1.6"/></clipPath></defs><title>icon</title><path class="bbca5b82-2735-43db-a35b-bd211799f5ba" d="M58.21,12.08,37.32.13a1,1,0,0,0-1.15.14,1.1,1.1,0,0,0-.2.28H1.63A1.6,1.6,0,0,0,.48,1,1.64,1.64,0,0,0,0,2.18V75.4a1.69,1.69,0,0,0,.48,1.16A1.64,1.64,0,0,0,1.63,77H56.44a1.61,1.61,0,0,0,1.63-1.63l0-61.51.07,0a1,1,0,0,0,.55-.87A1,1,0,0,0,58.21,12.08Zm-3.4,61.69H3.27v-70H37.08l7.4,15.66a1,1,0,0,0,.88.57.9.9,0,0,0,.42-.1l9-4.44Z"/><path class="bbca5b82-2735-43db-a35b-bd211799f5ba" d="M44.64,29.22l-8.55,2.62a2.67,2.67,0,0,0-1.87,2.41v9a3,3,0,0,0-2-.22c-2,.29-3.67,1.84-3.67,3.47s1.64,2.63,3.67,2.34a3.79,3.79,0,0,0,3.51-3.42v-7.7c0-.72.87-1,.87-1l7.56-2.37s.83-.28.83.5V41h0a3.64,3.64,0,0,0-2.15-.28c-2,.25-3.67,1.77-3.67,3.4s1.65,2.66,3.67,2.42,3.67-1.77,3.67-3.4V30.56A1.37,1.37,0,0,0,44.64,29.22Z"/><path class="bbca5b82-2735-43db-a35b-bd211799f5ba" d="M21.81,33.79,14,41.64H8.75V54.13H14L21.81,62c.83.83,1.51.55,1.51-.63V34.42C23.32,33.24,22.64,33,21.81,33.79Z"/></svg>