<svg id="ae647a39-762c-4fc0-bced-10b7c39a1a93" data-name="圖層 1" xmlns="http://www.w3.org/2000/svg" xmlns:xlink="http://www.w3.org/1999/xlink" viewBox="0 0 58.71 77.03"><defs><style>.b3f93230-cf6d-4054-b5f8-d2e532bcdbf9{fill:none;clip-rule:evenodd;}.ee05fc70-ab46-461a-9288-92e20375ed0c{fill:#84be98;}.a0a13ed9-9ecf-48cf-a971-88a01530fe49{clip-path:url(#f3b002bf-6a6a-4de2-9102-110ed3a3cc2e);}.e6953ae7-6587-45e1-ad49-dd84a1e6995d{clip-path:url(#ad53b939-e268-46ba-a930-3c0f52f04d34);}.a83f4826-0f10-471c-8ba1-eadd6b98ae1a{clip-path:url(#b6bf8eee-0b42-424f-a84d-3e0b9ce04b43);}</style><clipPath id="f3b002bf-6a6a-4de2-9102-110ed3a3cc2e"><path class="b3f93230-cf6d-4054-b5f8-d2e532bcdbf9" d="M-184.06,555.63a13,13,0,0,1-13,13,13,13,0,0,1-13-13,13,13,0,0,1,13-13,13,13,0,0,1,13,13"/></clipPath><clipPath id="ad53b939-e268-46ba-a930-3c0f52f04d34"><path class="b3f93230-cf6d-4054-b5f8-d2e532bcdbf9" d="M-197.56,569.63a14.52,14.52,0,0,1-14.5-14.5,14.51,14.51,0,0,1,14.5-14.5,14.52,14.52,0,0,1,14.5,14.5,14.52,14.52,0,0,1-14.5,14.5m0-26.77a12.28,12.28,0,0,0-12.27,12.27,12.28,12.28,0,0,0,12.27,12.26,12.28,12.28,0,0,0,12.27-12.26,12.28,12.28,0,0,0-12.27-12.27"/></clipPath><clipPath id="b6bf8eee-0b42-424f-a84d-3e0b9ce04b43"><path class="b3f93230-cf6d-4054-b5f8-d2e532bcdbf9" d="M-192.38,555.89a1,1,0,0,0-1.52,0l-2.72,2.87v-10a1.1,1.1,0,0,0-1.07-1.13,1.1,1.1,0,0,0-1.08,1.13v9.72l-2.46-2.59a1,1,0,0,0-1.52,0,1.17,1.17,0,0,0,0,1.6l4,4.24a1.09,1.09,0,0,0,.27.56,1,1,0,0,0,.76.34s.08,0,.13,0,.08,0,.13,0a1.07,1.07,0,0,0,.76-.34,1.17,1.17,0,0,0,.27-.56l4-4.24a1.17,1.17,0,0,0,0-1.6"/></clipPath></defs><title>icon</title><path class="ee05fc70-ab46-461a-9288-92e20375ed0c" d="M58.21,12.08,37.32.13a1,1,0,0,0-1.15.14,1.1,1.1,0,0,0-.2.28H1.63A1.6,1.6,0,0,0,.48,1,1.64,1.64,0,0,0,0,2.18V75.4a1.69,1.69,0,0,0,.48,1.16A1.64,1.64,0,0,0,1.63,77H56.44a1.61,1.61,0,0,0,1.63-1.63l0-61.51.07,0a1,1,0,0,0,.55-.87A1,1,0,0,0,58.21,12.08Zm-3.4,61.69H3.27v-70H37.08l7.4,15.66a1,1,0,0,0,.88.57.9.9,0,0,0,.42-.1l9-4.44Z"/><path class="ee05fc70-ab46-461a-9288-92e20375ed0c" d="M20.48,57.07H16.74v9h2V62.89h1.5q3.63,0,3.58-3Q23.74,57.15,20.48,57.07Zm-.36,4.27H18.78V58.66h1.34c1.06,0,1.6.47,1.63,1.34S21.18,61.32,20.12,61.34Z"/><path class="ee05fc70-ab46-461a-9288-92e20375ed0c" d="M28.66,57.07H24.92v9h2V62.89h1.5q3.63,0,3.58-3Q31.92,57.15,28.66,57.07Zm-.36,4.27H27V58.66H28.3c1.06,0,1.6.47,1.63,1.34S29.36,61.32,28.3,61.34Z"/><polygon class="ee05fc70-ab46-461a-9288-92e20375ed0c" points="32.81 58.74 35.74 58.74 35.74 66.06 37.82 66.06 37.82 58.74 40.71 58.74 40.71 57.07 32.81 57.07 32.81 58.74"/><path class="ee05fc70-ab46-461a-9288-92e20375ed0c" d="M27,43.45h3.72q9,0,8.85-7.34-.3-6.83-8.35-7H21.92V51.3h5ZM27,33h3.32c2.61.06,3.95,1.17,4,3.31s-1.41,3.26-4,3.32H27Z"/></svg>