<svg id="f511a2c8-e0b9-480e-9712-3288077f9d14" data-name="圖層 1" xmlns="http://www.w3.org/2000/svg" viewBox="0 0 58.71 77.03"><defs><style>.e819ebd1-9aca-4deb-ac2f-757541e68daa{fill:#c87d86;}</style></defs><title>icon</title><path class="e819ebd1-9aca-4deb-ac2f-757541e68daa" d="M58.21,12.08,37.32.13a1,1,0,0,0-1.15.14,1.1,1.1,0,0,0-.2.28H1.63A1.6,1.6,0,0,0,.48,1,1.64,1.64,0,0,0,0,2.18V75.4a1.69,1.69,0,0,0,.48,1.16A1.64,1.64,0,0,0,1.63,77H56.44a1.61,1.61,0,0,0,1.63-1.63l0-61.51.07,0a1,1,0,0,0,.55-.87A1,1,0,0,0,58.21,12.08Zm-3.4,61.69H3.27v-70H37.08l7.4,15.66a1,1,0,0,0,.88.57.9.9,0,0,0,.42-.1l9-4.44Z"/><path class="e819ebd1-9aca-4deb-ac2f-757541e68daa" d="M20.48,57.07H16.74v9h2V62.89h1.5q3.63,0,3.58-3Q23.74,57.15,20.48,57.07Zm-.36,4.27H18.78V58.66h1.34c1.06,0,1.6.47,1.63,1.34S21.18,61.32,20.12,61.34Z"/><path class="e819ebd1-9aca-4deb-ac2f-757541e68daa" d="M28.66,57.07H24.92v9h2V62.89h1.5q3.63,0,3.58-3Q31.92,57.15,28.66,57.07Zm-.36,4.27H27V58.66H28.3c1.06,0,1.6.47,1.63,1.34S29.36,61.32,28.3,61.34Z"/><polygon class="e819ebd1-9aca-4deb-ac2f-757541e68daa" points="32.81 58.74 35.74 58.74 35.74 66.06 37.82 66.06 37.82 58.74 40.71 58.74 40.71 57.07 32.81 57.07 32.81 58.74"/><path class="e819ebd1-9aca-4deb-ac2f-757541e68daa" d="M27,43.45h3.72q9,0,8.85-7.34-.3-6.83-8.35-7H21.92V51.3h5ZM27,33h3.32c2.61.06,3.95,1.17,4,3.31s-1.41,3.26-4,3.32H27Z"/></svg>