<svg id="ffccea24-8b62-4579-aaf4-fcb4a555018e" data-name="圖層 1" xmlns="http://www.w3.org/2000/svg" xmlns:xlink="http://www.w3.org/1999/xlink" viewBox="0 0 58.71 77.03"><defs><style>.e6b6efdb-f4a0-4d39-8607-cd12971a96b6{fill:none;clip-rule:evenodd;}.b1876c08-c353-4468-b6c7-b6d9ce0acc7d{fill:#81b6c8;}.f32dbc2c-9c18-411c-afdc-7675e86b1fa3{clip-path:url(#b4469a9d-1425-4232-b852-20d56f6ae384);}.fee37b7e-645e-48e8-a3ec-80c64cbca71f{clip-path:url(#bdab4d6d-13c6-4331-a8ca-ca558ad339ae);}.e26bf510-0b00-4654-8c3c-4b2279a468ab{clip-path:url(#acf2bbff-2acc-4709-ae04-f2610dd31551);}</style><clipPath id="b4469a9d-1425-4232-b852-20d56f6ae384"><path class="e6b6efdb-f4a0-4d39-8607-cd12971a96b6" d="M-110.1,407.05a13,13,0,0,1-13,13,13,13,0,0,1-13-13,13,13,0,0,1,13-13,13,13,0,0,1,13,13"/></clipPath><clipPath id="bdab4d6d-13c6-4331-a8ca-ca558ad339ae"><path class="e6b6efdb-f4a0-4d39-8607-cd12971a96b6" d="M-123.6,421.05a14.52,14.52,0,0,1-14.5-14.5,14.52,14.52,0,0,1,14.5-14.5,14.52,14.52,0,0,1,14.5,14.5,14.51,14.51,0,0,1-14.5,14.5m0-26.76a12.28,12.28,0,0,0-12.27,12.26,12.28,12.28,0,0,0,12.27,12.27,12.28,12.28,0,0,0,12.27-12.27,12.28,12.28,0,0,0-12.27-12.26"/></clipPath><clipPath id="acf2bbff-2acc-4709-ae04-f2610dd31551"><path class="e6b6efdb-f4a0-4d39-8607-cd12971a96b6" d="M-118.41,407.31a1,1,0,0,0-1.52,0l-2.72,2.88v-10a1.11,1.11,0,0,0-1.08-1.14,1.11,1.11,0,0,0-1.07,1.14v9.72l-2.46-2.6a1,1,0,0,0-1.52,0,1.19,1.19,0,0,0,0,1.61l4,4.24a1.17,1.17,0,0,0,.27.56,1.06,1.06,0,0,0,.76.33l.13,0,.13,0a1,1,0,0,0,.76-.33,1.09,1.09,0,0,0,.27-.56l4-4.24a1.19,1.19,0,0,0,0-1.61"/></clipPath></defs><title>icon</title><path class="b1876c08-c353-4468-b6c7-b6d9ce0acc7d" d="M58.21,12.08,37.32.13a1,1,0,0,0-1.15.14,1.1,1.1,0,0,0-.2.28H1.63A1.6,1.6,0,0,0,.48,1,1.64,1.64,0,0,0,0,2.18V75.4a1.69,1.69,0,0,0,.48,1.16A1.64,1.64,0,0,0,1.63,77H56.44a1.61,1.61,0,0,0,1.63-1.63l0-61.51.07,0a1,1,0,0,0,.55-.87A1,1,0,0,0,58.21,12.08Zm-3.4,61.69H3.27v-70H37.08l7.4,15.66a1,1,0,0,0,.88.57.9.9,0,0,0,.42-.1l9-4.44Z"/><path class="b1876c08-c353-4468-b6c7-b6d9ce0acc7d" d="M22.7,30.75H15.33V48.46h4V42.21h3q7.14,0,7.05-5.85Q29.11,30.91,22.7,30.75ZM22,39.16H19.34V33.88H22c2.09,0,3.15.93,3.21,2.64S24.07,39.11,22,39.16Z"/><path class="b1876c08-c353-4468-b6c7-b6d9ce0acc7d" d="M42.9,39a16,16,0,0,0-4.17-1.44c-2.19-.48-3.23-1.23-3.12-2.24s.93-1.63,2.48-1.68c1.92,0,3,.88,3.29,2.64l3.92-.8q-1.12-5.05-7.37-5c-4,.21-6.17,1.82-6.49,4.81q-.17,4,4.73,5c1.06.26,2.24.61,3.52,1a2.41,2.41,0,0,1,1.85,2.24c-.11,1.34-1,2-2.81,2.09-2.35,0-3.68-1.21-4-3.61l-3.92.72q1.2,6,8,5.93t7-5.29A4.9,4.9,0,0,0,42.9,39Z"/></svg>