<svg id="ed0cd882-99c3-4f42-81ad-07b7101727c5" data-name="圖層 1" xmlns="http://www.w3.org/2000/svg" viewBox="0 0 58.71 77.03"><defs><style>.b8cb55e1-8b7d-44c2-a90f-d68e069f6f7d{fill:#c87d86;}</style></defs><title>icon</title><path class="b8cb55e1-8b7d-44c2-a90f-d68e069f6f7d" d="M58.21,12.08,37.32.13a1,1,0,0,0-1.15.14,1.1,1.1,0,0,0-.2.28H1.63A1.6,1.6,0,0,0,.48,1,1.64,1.64,0,0,0,0,2.18V75.4a1.69,1.69,0,0,0,.48,1.16A1.64,1.64,0,0,0,1.63,77H56.44a1.61,1.61,0,0,0,1.63-1.63l0-61.51.07,0a1,1,0,0,0,.55-.87A1,1,0,0,0,58.21,12.08Zm-3.4,61.69H3.27v-70H37.08l7.4,15.66a1,1,0,0,0,.88.57.9.9,0,0,0,.42-.1l9-4.44Z"/><path class="b8cb55e1-8b7d-44c2-a90f-d68e069f6f7d" d="M13.66,41.33q.08,4.17-2.65,4.09c-1.82,0-2.75-1.18-2.81-3.69l-3.92,1q1,6.09,7,6,6.5.07,6.41-7.21V30.75h-4Z"/><path class="b8cb55e1-8b7d-44c2-a90f-d68e069f6f7d" d="M27.68,30.75H20.31V48.46h4V42.21h3q7.13,0,7-5.85Q34.09,30.91,27.68,30.75ZM27,39.16H24.31V33.88H27c2.08,0,3.15.93,3.2,2.64S29,39.11,27,39.16Z"/><path class="b8cb55e1-8b7d-44c2-a90f-d68e069f6f7d" d="M35.78,39.56q.31,8.82,8.73,9.14,6.26,0,8.09-3.85V38.28H43.71v3.21h5.21v2.16q-1.2,1.85-4.25,1.84Q40.19,45.1,40,39.65q.33-5.3,4.33-5.7a4.6,4.6,0,0,1,4.41,2.41L52.45,35q-2.1-4.5-8.18-4.49C38.93,30.83,36.09,33.85,35.78,39.56Z"/></svg>