<svg id="f81d3dd0-59b5-4cd3-8ca8-1ea068977f28" data-name="圖層 1" xmlns="http://www.w3.org/2000/svg" xmlns:xlink="http://www.w3.org/1999/xlink" viewBox="0 0 58.71 77.03"><defs><style>.ae1986df-c8e2-4410-b691-8cb14976d9ba{fill:none;clip-rule:evenodd;}.bb16a7d4-3ef7-4b41-80c2-dd599386f671{fill:#84be98;}.b0679c30-9ba7-470d-afce-10314321da30{clip-path:url(#b80c123a-be78-4629-803e-20e8de6d06b1);}.afc6fcff-78cb-43a9-b45f-e6cc8535a47e{clip-path:url(#a669f3c3-3035-43c6-92ec-25279dd4f27c);}.b74f4eab-c94a-4e1c-899f-7dfb016f5c45{clip-path:url(#e87111a4-2f70-45db-85b7-6bb45b82063f);}</style><clipPath id="b80c123a-be78-4629-803e-20e8de6d06b1"><path class="ae1986df-c8e2-4410-b691-8cb14976d9ba" d="M94.67,657.89a13,13,0,1,1-13-13,13,13,0,0,1,13,13"/></clipPath><clipPath id="a669f3c3-3035-43c6-92ec-25279dd4f27c"><path class="ae1986df-c8e2-4410-b691-8cb14976d9ba" d="M81.17,671.89a14.5,14.5,0,1,1,14.5-14.5,14.52,14.52,0,0,1-14.5,14.5m0-26.77a12.27,12.27,0,1,0,12.27,12.27,12.29,12.29,0,0,0-12.27-12.27"/></clipPath><clipPath id="e87111a4-2f70-45db-85b7-6bb45b82063f"><path class="ae1986df-c8e2-4410-b691-8cb14976d9ba" d="M86.36,658.15a1,1,0,0,0-1.52,0L82.11,661V651A1.08,1.08,0,1,0,80,651v9.73l-2.46-2.6a1,1,0,0,0-1.52,0,1.19,1.19,0,0,0,0,1.6L80,664a1.13,1.13,0,0,0,.27.56,1,1,0,0,0,.76.33l.13,0,.13,0a1.06,1.06,0,0,0,.76-.33,1.22,1.22,0,0,0,.27-.56l4-4.25a1.19,1.19,0,0,0,0-1.6"/></clipPath></defs><title>icon</title><path class="bb16a7d4-3ef7-4b41-80c2-dd599386f671" d="M58.21,12.08,37.32.13a1,1,0,0,0-1.15.14,1.1,1.1,0,0,0-.2.28H1.63A1.6,1.6,0,0,0,.48,1,1.64,1.64,0,0,0,0,2.18V75.4a1.69,1.69,0,0,0,.48,1.16A1.64,1.64,0,0,0,1.63,77H56.44a1.61,1.61,0,0,0,1.63-1.63l0-61.51.07,0a1,1,0,0,0,.55-.87A1,1,0,0,0,58.21,12.08Zm-3.4,61.69H3.27v-70H37.08l7.4,15.66a1,1,0,0,0,.88.57.9.9,0,0,0,.42-.1l9-4.44Z"/><path class="bb16a7d4-3ef7-4b41-80c2-dd599386f671" d="M13.72,30.12H6V48.56h4.17V42.05H13.3q7.43,0,7.34-6.09Q20.4,30.29,13.72,30.12ZM13,38.88H10.21v-5.5H13q3.26.07,3.34,2.75Q16.22,38.8,13,38.88Z"/><path class="bb16a7d4-3ef7-4b41-80c2-dd599386f671" d="M28.57,30.12H22.81V48.56h6q10.17.33,9.84-9.34Q38.49,30.21,28.57,30.12Zm-.08,15.19H27.07V33.54h1.42q5.58.09,5.75,5.68Q34.33,45.39,28.49,45.31Z"/><polygon class="bb16a7d4-3ef7-4b41-80c2-dd599386f671" points="40.75 48.56 44.92 48.56 44.92 41.38 52.76 41.38 52.76 37.96 44.92 37.96 44.92 33.54 53.93 33.54 53.93 30.12 40.75 30.12 40.75 48.56"/></svg>