<svg id="b7a0c0f9-8fdb-4cbe-b8c3-638437823b94" data-name="圖層 1" xmlns="http://www.w3.org/2000/svg" viewBox="0 0 58.71 77.03"><defs><style>.a282526e-6068-495c-abcf-74874cca101c{fill:#c87d86;}</style></defs><title>icon</title><path class="a282526e-6068-495c-abcf-74874cca101c" d="M58.21,12.08,37.32.13a1,1,0,0,0-1.15.14,1.1,1.1,0,0,0-.2.28H1.63A1.6,1.6,0,0,0,.48,1,1.64,1.64,0,0,0,0,2.18V75.4a1.69,1.69,0,0,0,.48,1.16A1.64,1.64,0,0,0,1.63,77H56.44a1.61,1.61,0,0,0,1.63-1.63l0-61.51.07,0a1,1,0,0,0,.55-.87A1,1,0,0,0,58.21,12.08Zm-3.4,61.69H3.27v-70H37.08l7.4,15.66a1,1,0,0,0,.88.57.9.9,0,0,0,.42-.1l9-4.44Z"/><path class="a282526e-6068-495c-abcf-74874cca101c" d="M22.7,30.75H15.33V48.46h4V42.21h3q7.14,0,7.05-5.85Q29.11,30.91,22.7,30.75ZM22,39.16H19.34V33.88H22c2.09,0,3.15.93,3.21,2.64S24.07,39.11,22,39.16Z"/><path class="a282526e-6068-495c-abcf-74874cca101c" d="M42.9,39a16,16,0,0,0-4.17-1.44c-2.19-.48-3.23-1.23-3.12-2.24s.93-1.63,2.48-1.68c1.92,0,3,.88,3.29,2.64l3.92-.8q-1.12-5.05-7.37-5c-4,.21-6.17,1.82-6.49,4.81q-.17,4,4.73,5c1.06.26,2.24.61,3.52,1a2.41,2.41,0,0,1,1.85,2.24c-.11,1.34-1,2-2.81,2.09-2.35,0-3.68-1.21-4-3.61l-3.92.72q1.2,6,8,5.93t7-5.29A4.9,4.9,0,0,0,42.9,39Z"/></svg>