<svg id="b8156fd1-7244-491f-ac0b-09d4ecf564f8" data-name="圖層 1" xmlns="http://www.w3.org/2000/svg" xmlns:xlink="http://www.w3.org/1999/xlink" viewBox="0 0 58.71 77.03"><defs><style>.f6107b33-2177-4003-b818-1b3f421f006f{fill:none;clip-rule:evenodd;}.bcf6ae96-58dd-428d-9f01-242405cd0786{fill:#81b6c8;}.e721817c-3ab9-4c1a-ae12-8b0ab8d934d5{clip-path:url(#afd24723-f06e-45bf-8e51-07bfff92962f);}.ab81fe64-c6fe-465d-b025-b87db7527fae{clip-path:url(#a46698dd-2cbe-4e00-8910-c7cedbbdd8a6);}.a8778d85-206f-42c7-879c-6c120ead16df{clip-path:url(#ab8b6712-2ef7-4b35-9370-749e626c8507);}</style><clipPath id="afd24723-f06e-45bf-8e51-07bfff92962f"><path class="f6107b33-2177-4003-b818-1b3f421f006f" d="M23.15,407.05a13,13,0,1,1-13-13,13,13,0,0,1,13,13"/></clipPath><clipPath id="a46698dd-2cbe-4e00-8910-c7cedbbdd8a6"><path class="f6107b33-2177-4003-b818-1b3f421f006f" d="M9.65,421.05a14.5,14.5,0,1,1,14.5-14.5,14.52,14.52,0,0,1-14.5,14.5m0-26.76a12.27,12.27,0,1,0,12.27,12.26A12.28,12.28,0,0,0,9.65,394.29"/></clipPath><clipPath id="ab8b6712-2ef7-4b35-9370-749e626c8507"><path class="f6107b33-2177-4003-b818-1b3f421f006f" d="M14.84,407.31a1,1,0,0,0-1.52,0l-2.73,2.88v-10a1.07,1.07,0,1,0-2.14,0v9.72L6,407.31a1,1,0,0,0-1.51,0,1.19,1.19,0,0,0,0,1.61l4,4.24a1.09,1.09,0,0,0,.27.56,1.06,1.06,0,0,0,.76.33l.13,0,.13,0a1,1,0,0,0,.76-.33,1.09,1.09,0,0,0,.27-.56l4-4.24a1.19,1.19,0,0,0,0-1.61"/></clipPath></defs><title>icon</title><path class="bcf6ae96-58dd-428d-9f01-242405cd0786" d="M58.21,12.08,37.32.13a1,1,0,0,0-1.15.14,1.1,1.1,0,0,0-.2.28H1.63A1.6,1.6,0,0,0,.48,1,1.64,1.64,0,0,0,0,2.18V75.4a1.69,1.69,0,0,0,.48,1.16A1.64,1.64,0,0,0,1.63,77H56.44a1.61,1.61,0,0,0,1.63-1.63l0-61.51.07,0a1,1,0,0,0,.55-.87A1,1,0,0,0,58.21,12.08Zm-3.4,61.69H3.27v-70H37.08l7.4,15.66a1,1,0,0,0,.88.57.9.9,0,0,0,.42-.1l9-4.44Z"/><path class="bcf6ae96-58dd-428d-9f01-242405cd0786" d="M18.46,41.49h5.21v2.16q-1.2,1.85-4.25,1.84-4.49-.39-4.65-5.84.33-5.3,4.33-5.7a4.6,4.6,0,0,1,4.41,2.41L27.19,35Q25.11,30.5,19,30.51q-8,.48-8.5,9.05.33,8.82,8.74,9.14,6.25,0,8.09-3.85V38.28H18.46Z"/><rect class="bcf6ae96-58dd-428d-9f01-242405cd0786" x="29.44" y="30.75" width="4.09" height="17.71"/><polygon class="bcf6ae96-58dd-428d-9f01-242405cd0786" points="36.09 48.46 40.1 48.46 40.1 41.57 47.63 41.57 47.63 38.28 40.1 38.28 40.1 34.04 48.75 34.04 48.75 30.75 36.09 30.75 36.09 48.46"/></svg>