<svg id="b9a3b882-3c42-4d78-9d89-ba69559cddef" data-name="圖層 1" xmlns="http://www.w3.org/2000/svg" xmlns:xlink="http://www.w3.org/1999/xlink" viewBox="0 0 58.71 77.03"><defs><style>.a5862d1f-3e8e-47bf-a193-d94df2a6f150{fill:none;clip-rule:evenodd;}.ba5e4c94-b186-47ec-87f2-346f49b8b693,.f03054ef-af81-468e-814a-e6cca3f2860c{fill:#81b6c8;}.ba5e4c94-b186-47ec-87f2-346f49b8b693{fill-rule:evenodd;}.bd7961bc-8ddc-430f-958e-3fbcbf1d5b34{clip-path:url(#f5fc093a-43b4-46c7-ac51-ba828dc9c03d);}.e8ee82c0-a447-41ed-af1d-42c61b9cdc6c{clip-path:url(#fced6c22-95aa-4a8a-98a8-05dd97ebd672);}.bca140dd-2fd2-4691-8c5b-edd31f793527{clip-path:url(#bf99fcab-d47f-435f-97a7-4b333c842ea9);}</style><clipPath id="f5fc093a-43b4-46c7-ac51-ba828dc9c03d"><path class="a5862d1f-3e8e-47bf-a193-d94df2a6f150" d="M-251.59,306.63a13,13,0,0,1-13,13,13,13,0,0,1-13-13,13,13,0,0,1,13-13,13,13,0,0,1,13,13"/></clipPath><clipPath id="fced6c22-95aa-4a8a-98a8-05dd97ebd672"><path class="a5862d1f-3e8e-47bf-a193-d94df2a6f150" d="M-265.09,320.63a14.52,14.52,0,0,1-14.5-14.5,14.51,14.51,0,0,1,14.5-14.5,14.52,14.52,0,0,1,14.5,14.5,14.52,14.52,0,0,1-14.5,14.5m0-26.77a12.28,12.28,0,0,0-12.27,12.27,12.28,12.28,0,0,0,12.27,12.26,12.28,12.28,0,0,0,12.27-12.26,12.28,12.28,0,0,0-12.27-12.27"/></clipPath><clipPath id="bf99fcab-d47f-435f-97a7-4b333c842ea9"><path class="a5862d1f-3e8e-47bf-a193-d94df2a6f150" d="M-259.9,306.89a1,1,0,0,0-1.52,0l-2.73,2.87v-10a1.1,1.1,0,0,0-1.07-1.13,1.11,1.11,0,0,0-1.08,1.13v9.72l-2.46-2.59a1,1,0,0,0-1.52,0,1.19,1.19,0,0,0,0,1.6l4,4.24a1.09,1.09,0,0,0,.27.56,1,1,0,0,0,.76.34s.08,0,.13,0l.13,0a1.07,1.07,0,0,0,.76-.34,1.17,1.17,0,0,0,.27-.56l4-4.24a1.19,1.19,0,0,0,0-1.6"/></clipPath></defs><title>icon</title><path class="ba5e4c94-b186-47ec-87f2-346f49b8b693" d="M43.24,53.06h-4.3v2.77h4.3a.22.22,0,0,1,.21.21v8.61a.22.22,0,0,1-.21.21h-28a.22.22,0,0,1-.21-.21V56a.22.22,0,0,1,.21-.21h4.3V53.06H15.2a3,3,0,0,0-3,3v8.61a3,3,0,0,0,3,3h28a3,3,0,0,0,3-3V56A3,3,0,0,0,43.24,53.06Z"/><polygon class="ba5e4c94-b186-47ec-87f2-346f49b8b693" points="15.94 32.03 11.09 32.03 11.09 29.98 15.5 29.98 15.5 28.36 11.09 28.36 11.09 26.47 15.82 26.47 15.82 24.86 9.12 24.86 9.12 33.56 15.94 33.56 15.94 32.03"/><path class="ba5e4c94-b186-47ec-87f2-346f49b8b693" d="M18.53,33.56l1.74-2.76a4.86,4.86,0,0,0,.31-.59l.12.2q.16.29.24.39l1.73,2.76h2.45l-3.2-4.33,2.88-4.37H22.48l-1.42,2.6c-.16.31-.29.56-.4.74a2,2,0,0,1-.19-.35l-.24-.35-1.46-2.64H16.41l2.91,4.37-3.07,4.33Z"/><path class="ba5e4c94-b186-47ec-87f2-346f49b8b693" d="M29.68,33.68a3.48,3.48,0,0,0,3.79-2.91l-1.89-.6c-.19,1.27-.82,1.91-1.9,1.94C28.34,32,27.63,31,27.56,29.23s.78-2.72,2.12-2.8a1.85,1.85,0,0,1,1.82,1.42l1.89-.43a3.73,3.73,0,0,0-3.71-2.68q-4,.23-4.21,4.49Q25.67,33.49,29.68,33.68Z"/><polygon class="ba5e4c94-b186-47ec-87f2-346f49b8b693" points="41.27 32.03 36.42 32.03 36.42 29.98 40.84 29.98 40.84 28.36 36.42 28.36 36.42 26.47 41.15 26.47 41.15 24.86 34.45 24.86 34.45 33.56 41.27 33.56 41.27 32.03"/><polygon class="ba5e4c94-b186-47ec-87f2-346f49b8b693" points="44.22 24.86 42.26 24.86 42.26 33.56 48.68 33.56 48.68 32.03 44.22 32.03 44.22 24.86"/><path class="ba5e4c94-b186-47ec-87f2-346f49b8b693" d="M58.21,12.08,37.32.13a1,1,0,0,0-1.15.14,1.1,1.1,0,0,0-.2.28H1.63A1.6,1.6,0,0,0,.48,1,1.64,1.64,0,0,0,0,2.18V75.4a1.69,1.69,0,0,0,.48,1.16A1.64,1.64,0,0,0,1.63,77H56.44a1.61,1.61,0,0,0,1.63-1.63l0-61.51.07,0a1,1,0,0,0,.55-.87A1,1,0,0,0,58.21,12.08Zm-3.4,61.69H3.27v-70H37.08l7.4,15.66a1,1,0,0,0,.88.57.9.9,0,0,0,.42-.1l9-4.44Z"/><rect class="f03054ef-af81-468e-814a-e6cca3f2860c" x="26.77" y="43.53" width="16.01" height="8" transform="translate(-23.42 38.51) rotate(-45)"/><polygon class="ba5e4c94-b186-47ec-87f2-346f49b8b693" points="21.57 60.73 36.66 60.73 26.29 50.36 21.57 45.64 21.57 60.73"/></svg>