<svg id="eb540fc4-6e1f-44aa-8b76-0867bf5e7e0f" data-name="圖層 1" xmlns="http://www.w3.org/2000/svg" viewBox="0 0 58.71 77.03"><defs><style>.b9a87f92-0fc5-42de-a54b-d9b8d9b8e1c9{fill:#81b6c8;}</style></defs><title>icon</title><path class="b9a87f92-0fc5-42de-a54b-d9b8d9b8e1c9" d="M58.21,12.08,37.32.13a1,1,0,0,0-1.15.14,1.1,1.1,0,0,0-.2.28H1.63A1.6,1.6,0,0,0,.48,1,1.64,1.64,0,0,0,0,2.18V75.4a1.69,1.69,0,0,0,.48,1.16A1.64,1.64,0,0,0,1.63,77H56.44a1.61,1.61,0,0,0,1.63-1.63l0-61.51.07,0a1,1,0,0,0,.55-.87A1,1,0,0,0,58.21,12.08Zm-3.4,61.69H3.27v-70H37.08l7.4,15.66a1,1,0,0,0,.88.57.9.9,0,0,0,.42-.1l9-4.44Z"/><path class="b9a87f92-0fc5-42de-a54b-d9b8d9b8e1c9" d="M15.39,37.45a3.49,3.49,0,1,0,3.49,3.49A3.5,3.5,0,0,0,15.39,37.45Z"/><path class="b9a87f92-0fc5-42de-a54b-d9b8d9b8e1c9" d="M29.36,37.45a3.49,3.49,0,1,0,3.49,3.49A3.5,3.5,0,0,0,29.36,37.45Z"/><path class="b9a87f92-0fc5-42de-a54b-d9b8d9b8e1c9" d="M39.84,40.94a3.49,3.49,0,1,0,3.49-3.49A3.49,3.49,0,0,0,39.84,40.94Z"/></svg>