<svg id="b6d79ab4-4202-4dd4-94f7-f041ba8dc224" data-name="圖層 1" xmlns="http://www.w3.org/2000/svg" viewBox="0 0 58.71 77.03"><defs><style>.b6601a1d-b1dc-4a7f-9604-f57da699b30a{fill:#c87d86;}</style></defs><title>icon</title><path class="b6601a1d-b1dc-4a7f-9604-f57da699b30a" d="M23.13,50.3l4.17-6.64c.12-.19.38-.66.76-1.41a4,4,0,0,0,.28.47c.25.44.44.75.57.94l4.17,6.64H39L31.28,39.88l6.91-10.52H32.6l-3.41,6.25c-.37.76-.69,1.36-.94,1.8a7.55,7.55,0,0,1-.48-.85l-.57-.85-3.5-6.35H18l7,10.52L17.64,50.3Z"/><polygon class="b6601a1d-b1dc-4a7f-9604-f57da699b30a" points="11.77 62.58 16.19 62.58 16.19 60.96 11.77 60.96 11.77 59.07 16.5 59.07 16.5 57.46 9.8 57.46 9.8 66.16 16.62 66.16 16.62 64.63 11.77 64.63 11.77 62.58"/><path class="b6601a1d-b1dc-4a7f-9604-f57da699b30a" d="M25.49,57.46H23.16l-1.42,2.6-.39.74a2.83,2.83,0,0,1-.2-.35,3.26,3.26,0,0,0-.24-.35l-1.45-2.64H17.09L20,61.83l-3.07,4.33h2.28L21,63.4a4.38,4.38,0,0,0,.32-.59,1.16,1.16,0,0,0,.12.2,3.65,3.65,0,0,0,.23.39l1.74,2.76H25.8l-3.19-4.33Z"/><path class="b6601a1d-b1dc-4a7f-9604-f57da699b30a" d="M30.37,64.71c-1.34-.14-2.05-1.09-2.13-2.88.08-1.79.79-2.72,2.13-2.8a1.83,1.83,0,0,1,1.81,1.42L34.07,60a3.71,3.71,0,0,0-3.7-2.68q-4,.22-4.22,4.49c.13,2.83,1.54,4.32,4.22,4.45a3.48,3.48,0,0,0,3.78-2.91l-1.89-.6C32.08,64,31.45,64.68,30.37,64.71Z"/><polygon class="b6601a1d-b1dc-4a7f-9604-f57da699b30a" points="37.11 62.58 41.52 62.58 41.52 60.96 37.11 60.96 37.11 59.07 41.84 59.07 41.84 57.46 35.14 57.46 35.14 66.16 41.95 66.16 41.95 64.63 37.11 64.63 37.11 62.58"/><polygon class="b6601a1d-b1dc-4a7f-9604-f57da699b30a" points="44.91 57.46 42.94 57.46 42.94 66.16 49.36 66.16 49.36 64.63 44.91 64.63 44.91 57.46"/><path class="b6601a1d-b1dc-4a7f-9604-f57da699b30a" d="M58.21,12.08,37.32.13a1,1,0,0,0-1.15.14,1.1,1.1,0,0,0-.2.28H1.63A1.6,1.6,0,0,0,.48,1,1.64,1.64,0,0,0,0,2.18V75.4a1.69,1.69,0,0,0,.48,1.16A1.64,1.64,0,0,0,1.63,77H56.44a1.61,1.61,0,0,0,1.63-1.63l0-61.51.07,0a1,1,0,0,0,.55-.87A1,1,0,0,0,58.21,12.08Zm-3.4,61.69H3.27v-70H37.08l7.4,15.66a1,1,0,0,0,.88.57.9.9,0,0,0,.42-.1l9-4.44Z"/></svg>