<svg id="f44438e8-bddb-4cdf-965e-41000621ba56" data-name="圖層 1" xmlns="http://www.w3.org/2000/svg" viewBox="0 0 58.71 77.03"><defs><style>.b8383ab4-ed14-4d7c-a94f-70bd294a8ab9{fill:#84be98;}</style></defs><title>icon</title><path class="b8383ab4-ed14-4d7c-a94f-70bd294a8ab9" d="M58.21,12.08,37.32.13a1,1,0,0,0-1.15.14,1.1,1.1,0,0,0-.2.28H1.63A1.6,1.6,0,0,0,.48,1,1.64,1.64,0,0,0,0,2.18V75.4a1.69,1.69,0,0,0,.48,1.16A1.64,1.64,0,0,0,1.63,77H56.44a1.61,1.61,0,0,0,1.63-1.63l0-61.51.07,0a1,1,0,0,0,.55-.87A1,1,0,0,0,58.21,12.08Zm-3.4,61.69H3.27v-70H37.08l7.4,15.66a1,1,0,0,0,.88.57.9.9,0,0,0,.42-.1l9-4.44Z"/><path class="b8383ab4-ed14-4d7c-a94f-70bd294a8ab9" d="M15.39,37.45a3.49,3.49,0,1,0,3.49,3.49A3.5,3.5,0,0,0,15.39,37.45Z"/><path class="b8383ab4-ed14-4d7c-a94f-70bd294a8ab9" d="M29.36,37.45a3.49,3.49,0,1,0,3.49,3.49A3.5,3.5,0,0,0,29.36,37.45Z"/><path class="b8383ab4-ed14-4d7c-a94f-70bd294a8ab9" d="M39.84,40.94a3.49,3.49,0,1,0,3.49-3.49A3.49,3.49,0,0,0,39.84,40.94Z"/></svg>