<svg id="a337a055-2231-45d8-81a4-de70524e0304" data-name="圖層 1" xmlns="http://www.w3.org/2000/svg" xmlns:xlink="http://www.w3.org/1999/xlink" viewBox="0 0 58.71 77.03"><defs><style>.b5127725-6c1c-42aa-82cd-77b90c06eb2e{fill:none;clip-rule:evenodd;}.f7a40233-1746-4d96-ae65-b7c8a2edefba{fill:#84be98;}.e9536869-5216-4383-8bfd-73f7626ad1ae{clip-path:url(#ae785865-0bb7-4e0a-b36c-7f3c1d3354ce);}.a47bb842-67fb-4570-8894-d0a314c42f27{clip-path:url(#a00b527a-3f92-44b4-8fe4-5de284087ea0);}.ab0eeb29-f68d-4fea-83f3-27dc897d52c6{clip-path:url(#b10d4607-573a-4df3-8a16-c0a4c528d7de);}</style><clipPath id="ae785865-0bb7-4e0a-b36c-7f3c1d3354ce"><path class="b5127725-6c1c-42aa-82cd-77b90c06eb2e" d="M-180.88,656.05a13,13,0,0,1-13,13,13,13,0,0,1-13-13,13,13,0,0,1,13-13,13,13,0,0,1,13,13"/></clipPath><clipPath id="a00b527a-3f92-44b4-8fe4-5de284087ea0"><path class="b5127725-6c1c-42aa-82cd-77b90c06eb2e" d="M-194.38,670.05a14.51,14.51,0,0,1-14.5-14.5,14.52,14.52,0,0,1,14.5-14.5,14.52,14.52,0,0,1,14.5,14.5,14.52,14.52,0,0,1-14.5,14.5m0-26.76a12.28,12.28,0,0,0-12.27,12.26,12.28,12.28,0,0,0,12.27,12.27,12.28,12.28,0,0,0,12.26-12.27,12.27,12.27,0,0,0-12.26-12.26"/></clipPath><clipPath id="b10d4607-573a-4df3-8a16-c0a4c528d7de"><path class="b5127725-6c1c-42aa-82cd-77b90c06eb2e" d="M-189.2,656.31a1,1,0,0,0-1.52,0l-2.72,2.88v-10a1.11,1.11,0,0,0-1.08-1.14,1.11,1.11,0,0,0-1.07,1.14v9.72l-2.46-2.6a1,1,0,0,0-1.52,0,1.19,1.19,0,0,0,0,1.61l4,4.24a1.09,1.09,0,0,0,.27.56,1,1,0,0,0,.75.33l.14,0,.12,0a1,1,0,0,0,.76-.33,1.1,1.1,0,0,0,.28-.56l4-4.24a1.19,1.19,0,0,0,0-1.61"/></clipPath></defs><title>icon</title><path class="f7a40233-1746-4d96-ae65-b7c8a2edefba" d="M58.21,12.08,37.32.13a1,1,0,0,0-1.15.14,1.1,1.1,0,0,0-.2.28H1.63A1.6,1.6,0,0,0,.48,1,1.64,1.64,0,0,0,0,2.18V75.4a1.69,1.69,0,0,0,.48,1.16A1.64,1.64,0,0,0,1.63,77H56.44a1.61,1.61,0,0,0,1.63-1.63l0-61.51.07,0a1,1,0,0,0,.55-.87A1,1,0,0,0,58.21,12.08Zm-3.4,61.69H3.27v-70H37.08l7.4,15.66a1,1,0,0,0,.88.57.9.9,0,0,0,.42-.1l9-4.44Z"/><path class="f7a40233-1746-4d96-ae65-b7c8a2edefba" d="M22.62,30.75,16.05,48.46h4.33l1.28-3.85h6.73l1.28,3.85h4.41L27.43,30.75Zm-.08,10.82,2-6a8,8,0,0,0,.4-1.61H25c.1.49.24,1,.4,1.53l2.24,6.09Z"/><rect class="f7a40233-1746-4d96-ae65-b7c8a2edefba" x="35.36" y="30.75" width="4.09" height="17.71"/></svg>