<svg id="a4607a4b-dc9e-48e5-b8b3-641413009046" data-name="圖層 1" xmlns="http://www.w3.org/2000/svg" viewBox="0 0 58.71 77.03"><defs><style>.fcb775a7-8b53-4e40-92e0-b483309060b3{fill:#c87d86;}</style></defs><title>icon</title><path class="fcb775a7-8b53-4e40-92e0-b483309060b3" d="M58.21,12.08,37.32.13a1,1,0,0,0-1.15.14,1.1,1.1,0,0,0-.2.28H1.63A1.6,1.6,0,0,0,.48,1,1.64,1.64,0,0,0,0,2.18V75.4a1.69,1.69,0,0,0,.48,1.16A1.64,1.64,0,0,0,1.63,77H56.44a1.61,1.61,0,0,0,1.63-1.63l0-61.51.07,0a1,1,0,0,0,.55-.87A1,1,0,0,0,58.21,12.08Zm-3.4,61.69H3.27v-70H37.08l7.4,15.66a1,1,0,0,0,.88.57.9.9,0,0,0,.42-.1l9-4.44Z"/><path class="fcb775a7-8b53-4e40-92e0-b483309060b3" d="M44.64,29.22l-8.55,2.62a2.67,2.67,0,0,0-1.87,2.41v9a3,3,0,0,0-2-.22c-2,.29-3.67,1.84-3.67,3.47s1.64,2.63,3.67,2.34a3.79,3.79,0,0,0,3.51-3.42v-7.7c0-.72.87-1,.87-1l7.56-2.37s.83-.28.83.5V41h0a3.64,3.64,0,0,0-2.15-.28c-2,.25-3.67,1.77-3.67,3.4s1.65,2.66,3.67,2.42,3.67-1.77,3.67-3.4V30.56A1.37,1.37,0,0,0,44.64,29.22Z"/><path class="fcb775a7-8b53-4e40-92e0-b483309060b3" d="M21.81,33.79,14,41.64H8.75V54.13H14L21.81,62c.83.83,1.51.55,1.51-.63V34.42C23.32,33.24,22.64,33,21.81,33.79Z"/></svg>