<svg id="ac195dea-40ea-4d42-81b4-239cd5ed488d" data-name="圖層 1" xmlns="http://www.w3.org/2000/svg" xmlns:xlink="http://www.w3.org/1999/xlink" viewBox="0 0 58.71 77.03"><defs><style>.b618e14c-2223-45c2-a838-63b146ab41ed{fill:none;clip-rule:evenodd;}.a05e745d-f17e-4bc4-80e4-a79cb6939eb5{fill:#81b6c8;}.f4e1b2a1-ff46-484e-bfaf-35f6d9976d6f{clip-path:url(#a170ddf3-2d61-4df8-a4cf-6d462883bdf7);}.b6dbf49a-8d56-4ec1-a585-bffae028fccc{clip-path:url(#f2eb5a31-ac15-4aca-b289-f97404401b05);}.a51b122c-d45e-446b-9194-143a8f3e2117{clip-path:url(#b85f4867-1798-4b66-a611-b361dc5983f6);}</style><clipPath id="a170ddf3-2d61-4df8-a4cf-6d462883bdf7"><path class="b618e14c-2223-45c2-a838-63b146ab41ed" d="M-180.88,407.05a13,13,0,0,1-13,13,13,13,0,0,1-13-13,13,13,0,0,1,13-13,13,13,0,0,1,13,13"/></clipPath><clipPath id="f2eb5a31-ac15-4aca-b289-f97404401b05"><path class="b618e14c-2223-45c2-a838-63b146ab41ed" d="M-194.38,421.05a14.51,14.51,0,0,1-14.5-14.5,14.52,14.52,0,0,1,14.5-14.5,14.52,14.52,0,0,1,14.5,14.5,14.52,14.52,0,0,1-14.5,14.5m0-26.76a12.28,12.28,0,0,0-12.27,12.26,12.28,12.28,0,0,0,12.27,12.27,12.28,12.28,0,0,0,12.26-12.27,12.27,12.27,0,0,0-12.26-12.26"/></clipPath><clipPath id="b85f4867-1798-4b66-a611-b361dc5983f6"><path class="b618e14c-2223-45c2-a838-63b146ab41ed" d="M-189.2,407.31a1,1,0,0,0-1.52,0l-2.72,2.88v-10a1.11,1.11,0,0,0-1.08-1.14,1.11,1.11,0,0,0-1.07,1.14v9.72l-2.46-2.6a1,1,0,0,0-1.52,0,1.19,1.19,0,0,0,0,1.61l4,4.24a1.09,1.09,0,0,0,.27.56,1,1,0,0,0,.75.33l.14,0,.12,0a1,1,0,0,0,.76-.33,1.1,1.1,0,0,0,.28-.56l4-4.24a1.19,1.19,0,0,0,0-1.61"/></clipPath></defs><title>icon</title><path class="a05e745d-f17e-4bc4-80e4-a79cb6939eb5" d="M58.21,12.08,37.32.13a1,1,0,0,0-1.15.14,1.1,1.1,0,0,0-.2.28H1.63A1.6,1.6,0,0,0,.48,1,1.64,1.64,0,0,0,0,2.18V75.4a1.69,1.69,0,0,0,.48,1.16A1.64,1.64,0,0,0,1.63,77H56.44a1.61,1.61,0,0,0,1.63-1.63l0-61.51.07,0a1,1,0,0,0,.55-.87A1,1,0,0,0,58.21,12.08Zm-3.4,61.69H3.27v-70H37.08l7.4,15.66a1,1,0,0,0,.88.57.9.9,0,0,0,.42-.1l9-4.44Z"/><path class="a05e745d-f17e-4bc4-80e4-a79cb6939eb5" d="M22.62,30.75,16.05,48.46h4.33l1.28-3.85h6.73l1.28,3.85h4.41L27.43,30.75Zm-.08,10.82,2-6a8,8,0,0,0,.4-1.61H25c.1.49.24,1,.4,1.53l2.24,6.09Z"/><rect class="a05e745d-f17e-4bc4-80e4-a79cb6939eb5" x="35.36" y="30.75" width="4.09" height="17.71"/></svg>