<svg id="e48e5551-994d-430c-b37f-cdb310a54266" data-name="圖層 1" xmlns="http://www.w3.org/2000/svg" viewBox="0 0 58.71 77.03"><defs><style>.f1701f57-057c-45cb-8041-90b630c27550{fill:#c87d86;}</style></defs><title>icon</title><path class="f1701f57-057c-45cb-8041-90b630c27550" d="M58.21,12.08,37.32.13a1,1,0,0,0-1.15.14,1.1,1.1,0,0,0-.2.28H1.63A1.6,1.6,0,0,0,.48,1,1.64,1.64,0,0,0,0,2.18V75.4a1.69,1.69,0,0,0,.48,1.16A1.64,1.64,0,0,0,1.63,77H56.44a1.61,1.61,0,0,0,1.63-1.63l0-61.51.07,0a1,1,0,0,0,.55-.87A1,1,0,0,0,58.21,12.08Zm-3.4,61.69H3.27v-70H37.08l7.4,15.66a1,1,0,0,0,.88.57.9.9,0,0,0,.42-.1l9-4.44Z"/><path class="f1701f57-057c-45cb-8041-90b630c27550" d="M13.72,30.12H6V48.56h4.17V42.05H13.3q7.43,0,7.34-6.09Q20.4,30.29,13.72,30.12ZM13,38.88H10.21v-5.5H13q3.26.07,3.34,2.75Q16.22,38.8,13,38.88Z"/><path class="f1701f57-057c-45cb-8041-90b630c27550" d="M28.57,30.12H22.81V48.56h6q10.17.33,9.84-9.34Q38.49,30.21,28.57,30.12Zm-.08,15.19H27.07V33.54h1.42q5.58.09,5.75,5.68Q34.33,45.39,28.49,45.31Z"/><polygon class="f1701f57-057c-45cb-8041-90b630c27550" points="40.75 48.56 44.92 48.56 44.92 41.38 52.76 41.38 52.76 37.96 44.92 37.96 44.92 33.54 53.93 33.54 53.93 30.12 40.75 30.12 40.75 48.56"/></svg>