<svg id="aaeaafcf-5127-4c00-8c57-d7f6f45c7783" data-name="圖層 1" xmlns="http://www.w3.org/2000/svg" xmlns:xlink="http://www.w3.org/1999/xlink" viewBox="0 0 58.71 77.03"><defs><style>.faf344a7-00d1-4f41-b3fa-e0d16511ece5{fill:none;clip-rule:evenodd;}.fe345ff1-c8e1-43ac-b7d2-9f779e1ff080{fill:#81b6c8;}.fc964af8-03be-4f09-a356-6292fb44173b{clip-path:url(#b138d2f0-bc67-407d-b969-a429bbb4ae76);}.bcf68da8-b06e-41d2-a38d-2338acabaa54{clip-path:url(#a7490845-e262-469a-af64-a654e8e4a23b);}.fd8de26d-c9f2-4529-97c4-78ae7d4e5a20{clip-path:url(#a2985423-79bc-4d35-975b-0f63a8a78ff3);}</style><clipPath id="b138d2f0-bc67-407d-b969-a429bbb4ae76"><path class="faf344a7-00d1-4f41-b3fa-e0d16511ece5" d="M-111.19,306.63a13,13,0,0,1-13,13,13,13,0,0,1-13-13,13,13,0,0,1,13-13,13,13,0,0,1,13,13"/></clipPath><clipPath id="a7490845-e262-469a-af64-a654e8e4a23b"><path class="faf344a7-00d1-4f41-b3fa-e0d16511ece5" d="M-124.69,320.63a14.52,14.52,0,0,1-14.5-14.5,14.51,14.51,0,0,1,14.5-14.5,14.52,14.52,0,0,1,14.5,14.5,14.52,14.52,0,0,1-14.5,14.5m0-26.77A12.28,12.28,0,0,0-137,306.13a12.28,12.28,0,0,0,12.27,12.26,12.28,12.28,0,0,0,12.27-12.26,12.28,12.28,0,0,0-12.27-12.27"/></clipPath><clipPath id="a2985423-79bc-4d35-975b-0f63a8a78ff3"><path class="faf344a7-00d1-4f41-b3fa-e0d16511ece5" d="M-119.51,306.89a1,1,0,0,0-1.52,0l-2.72,2.87v-10a1.1,1.1,0,0,0-1.07-1.13,1.1,1.1,0,0,0-1.08,1.13v9.72l-2.46-2.59a1,1,0,0,0-1.52,0,1.17,1.17,0,0,0,0,1.6l4,4.24a1.09,1.09,0,0,0,.27.56,1,1,0,0,0,.76.34s.08,0,.13,0,.08,0,.13,0a1.07,1.07,0,0,0,.76-.34,1.17,1.17,0,0,0,.27-.56l4-4.24a1.17,1.17,0,0,0,0-1.6"/></clipPath></defs><title>icon</title><path class="fe345ff1-c8e1-43ac-b7d2-9f779e1ff080" d="M23.13,50.3l4.17-6.64c.12-.19.38-.66.76-1.41a4,4,0,0,0,.28.47c.25.44.44.75.57.94l4.17,6.64H39L31.28,39.88l6.91-10.52H32.6l-3.41,6.25c-.37.76-.69,1.36-.94,1.8a7.55,7.55,0,0,1-.48-.85l-.57-.85-3.5-6.35H18l7,10.52L17.64,50.3Z"/><polygon class="fe345ff1-c8e1-43ac-b7d2-9f779e1ff080" points="11.77 62.58 16.19 62.58 16.19 60.96 11.77 60.96 11.77 59.07 16.5 59.07 16.5 57.46 9.8 57.46 9.8 66.16 16.62 66.16 16.62 64.63 11.77 64.63 11.77 62.58"/><path class="fe345ff1-c8e1-43ac-b7d2-9f779e1ff080" d="M25.49,57.46H23.16l-1.42,2.6-.39.74a2.83,2.83,0,0,1-.2-.35,3.26,3.26,0,0,0-.24-.35l-1.45-2.64H17.09L20,61.83l-3.07,4.33h2.28L21,63.4a4.38,4.38,0,0,0,.32-.59,1.16,1.16,0,0,0,.12.2,3.65,3.65,0,0,0,.23.39l1.74,2.76H25.8l-3.19-4.33Z"/><path class="fe345ff1-c8e1-43ac-b7d2-9f779e1ff080" d="M30.37,64.71c-1.34-.14-2.05-1.09-2.13-2.88.08-1.79.79-2.72,2.13-2.8a1.83,1.83,0,0,1,1.81,1.42L34.07,60a3.71,3.71,0,0,0-3.7-2.68q-4,.22-4.22,4.49c.13,2.83,1.54,4.32,4.22,4.45a3.48,3.48,0,0,0,3.78-2.91l-1.89-.6C32.08,64,31.45,64.68,30.37,64.71Z"/><polygon class="fe345ff1-c8e1-43ac-b7d2-9f779e1ff080" points="37.11 62.58 41.52 62.58 41.52 60.96 37.11 60.96 37.11 59.07 41.84 59.07 41.84 57.46 35.14 57.46 35.14 66.16 41.95 66.16 41.95 64.63 37.11 64.63 37.11 62.58"/><polygon class="fe345ff1-c8e1-43ac-b7d2-9f779e1ff080" points="44.91 57.46 42.94 57.46 42.94 66.16 49.36 66.16 49.36 64.63 44.91 64.63 44.91 57.46"/><path class="fe345ff1-c8e1-43ac-b7d2-9f779e1ff080" d="M58.21,12.08,37.32.13a1,1,0,0,0-1.15.14,1.1,1.1,0,0,0-.2.28H1.63A1.6,1.6,0,0,0,.48,1,1.64,1.64,0,0,0,0,2.18V75.4a1.69,1.69,0,0,0,.48,1.16A1.64,1.64,0,0,0,1.63,77H56.44a1.61,1.61,0,0,0,1.63-1.63l0-61.51.07,0a1,1,0,0,0,.55-.87A1,1,0,0,0,58.21,12.08Zm-3.4,61.69H3.27v-70H37.08l7.4,15.66a1,1,0,0,0,.88.57.9.9,0,0,0,.42-.1l9-4.44Z"/></svg>