<svg id="f2a7c749-30b6-4b38-af65-2443c08b8ed7" data-name="圖層 1" xmlns="http://www.w3.org/2000/svg" xmlns:xlink="http://www.w3.org/1999/xlink" viewBox="0 0 58.71 77.03"><defs><style>.a62d4101-c77b-41e3-872c-26f932b69259{fill:none;clip-rule:evenodd;}.fe796fc7-0e30-4f89-bf2f-8be7ee575231{fill:#84be98;}.b0feb1d7-b6a5-48cc-ba49-05ca2df080ac{clip-path:url(#a4bcd67f-52aa-4691-a20f-3ab1584e37e2);}.a9363bb0-bb8f-425c-bf35-0f7d3dd1e949{clip-path:url(#f5cba53c-7680-40e1-8e7b-db108ffc76cb);}.a351e9bf-8e38-4ae3-bfd5-833c3fee2d85{clip-path:url(#edcb521f-8caa-4471-b4e8-3a5a6af6a751);}</style><clipPath id="a4bcd67f-52aa-4691-a20f-3ab1584e37e2"><path class="a62d4101-c77b-41e3-872c-26f932b69259" d="M-41.73,555.63a13,13,0,0,1-13,13,13,13,0,0,1-13-13,13,13,0,0,1,13-13,13,13,0,0,1,13,13"/></clipPath><clipPath id="f5cba53c-7680-40e1-8e7b-db108ffc76cb"><path class="a62d4101-c77b-41e3-872c-26f932b69259" d="M-55.23,569.63a14.52,14.52,0,0,1-14.5-14.5,14.51,14.51,0,0,1,14.5-14.5,14.52,14.52,0,0,1,14.5,14.5,14.52,14.52,0,0,1-14.5,14.5m0-26.77A12.28,12.28,0,0,0-67.5,555.13a12.28,12.28,0,0,0,12.27,12.26A12.28,12.28,0,0,0-43,555.13a12.28,12.28,0,0,0-12.27-12.27"/></clipPath><clipPath id="edcb521f-8caa-4471-b4e8-3a5a6af6a751"><path class="a62d4101-c77b-41e3-872c-26f932b69259" d="M-50,555.89a1,1,0,0,0-1.52,0l-2.73,2.87v-10a1.1,1.1,0,0,0-1.07-1.13,1.11,1.11,0,0,0-1.08,1.13v9.72l-2.46-2.59a1,1,0,0,0-1.52,0,1.17,1.17,0,0,0,0,1.6l4,4.24a1.09,1.09,0,0,0,.27.56,1,1,0,0,0,.76.34s.08,0,.13,0l.13,0a1.07,1.07,0,0,0,.76-.34,1.17,1.17,0,0,0,.27-.56l4-4.24a1.19,1.19,0,0,0,0-1.6"/></clipPath></defs><title>icon</title><path class="fe796fc7-0e30-4f89-bf2f-8be7ee575231" d="M25.13,51.3l3.62-14.18a10.42,10.42,0,0,0,.41-2.51,12.68,12.68,0,0,0,.4,2.51L33,51.3h5.63l4.82-22.22h-5L36,44.06c-.13.87-.23,1.71-.3,2.51h-.1a13.24,13.24,0,0,0-.2-2,1.46,1.46,0,0,1-.1-.4L31.67,29.08H26.34L22.92,44c-.13.74-.27,1.61-.4,2.61h-.1c-.07-.67-.1-.9-.1-.7-.07-.94-.14-1.57-.2-1.91L19.6,29.08H14.48L19.3,51.3Z"/><path class="fe796fc7-0e30-4f89-bf2f-8be7ee575231" d="M18.85,63.24c-.05.34-.09.68-.12,1h0a4.3,4.3,0,0,0-.08-.8,1.17,1.17,0,0,1,0-.16l-1.43-6H15L13.67,63.2c-.06.29-.11.64-.17,1h0c0-.27,0-.36,0-.28,0-.38-.06-.63-.08-.76l-1-5.91h-2l1.92,8.82h2.31L16,60.48a4.15,4.15,0,0,0,.16-1,5.39,5.39,0,0,0,.16,1l1.36,5.63h2.23l1.92-8.82h-2Z"/><path class="fe796fc7-0e30-4f89-bf2f-8be7ee575231" d="M26.6,57.17q-4.2.16-4.39,4.59.24,4.27,4.39,4.51Q30.71,66,31,61.76,30.67,57.41,26.6,57.17Zm-.08,7.42c-1.44-.07-2.18-1-2.24-2.83s.84-2.79,2.28-2.87c1.41.08,2.14,1,2.19,2.87S28,64.54,26.52,64.59Z"/><path class="fe796fc7-0e30-4f89-bf2f-8be7ee575231" d="M39.37,59.93c-.08-1.71-1.2-2.59-3.35-2.64H32v8.82h2V62.68h1.16l2.15,3.39h2.52l-2.6-3.51A2.39,2.39,0,0,0,39.37,59.93ZM35.7,61.2H34V58.85H35.7c1.09,0,1.61.37,1.55,1.19S36.76,61.2,35.7,61.2Z"/><path class="fe796fc7-0e30-4f89-bf2f-8be7ee575231" d="M40.45,57.29v8.82h2.87q4.88.17,4.71-4.47-.08-4.3-4.83-4.35Zm5.46,4.35c0,2-.89,2.94-2.75,2.92h-.68V58.93h.68A2.48,2.48,0,0,1,45.91,61.64Z"/><path class="fe796fc7-0e30-4f89-bf2f-8be7ee575231" d="M58.21,12.08,37.32.13a1,1,0,0,0-1.15.14,1.1,1.1,0,0,0-.2.28H1.63A1.6,1.6,0,0,0,.48,1,1.64,1.64,0,0,0,0,2.18V75.4a1.69,1.69,0,0,0,.48,1.16A1.64,1.64,0,0,0,1.63,77H56.44a1.61,1.61,0,0,0,1.63-1.63l0-61.51.07,0a1,1,0,0,0,.55-.87A1,1,0,0,0,58.21,12.08Zm-3.4,61.69H3.27v-70H37.08l7.4,15.66a1,1,0,0,0,.88.57.9.9,0,0,0,.42-.1l9-4.44Z"/></svg>