<svg id="a0baeaaf-a431-4dd2-b531-ff8ff86a13f3" data-name="圖層 1" xmlns="http://www.w3.org/2000/svg" viewBox="0 0 58.71 77.03"><defs><style>.bd6e8cbf-7195-472d-9c62-09718d4fa670{fill:#c87d86;}</style></defs><title>icon</title><path class="bd6e8cbf-7195-472d-9c62-09718d4fa670" d="M58.21,12.08,37.32.13a1,1,0,0,0-1.15.14,1.1,1.1,0,0,0-.2.28H1.63A1.6,1.6,0,0,0,.48,1,1.64,1.64,0,0,0,0,2.18V75.4a1.69,1.69,0,0,0,.48,1.16A1.64,1.64,0,0,0,1.63,77H56.44a1.61,1.61,0,0,0,1.63-1.63l0-61.51.07,0a1,1,0,0,0,.55-.87A1,1,0,0,0,58.21,12.08Zm-3.4,61.69H3.27v-70H37.08l7.4,15.66a1,1,0,0,0,.88.57.9.9,0,0,0,.42-.1l9-4.44Z"/><polygon class="bd6e8cbf-7195-472d-9c62-09718d4fa670" points="25.83 34.04 25.83 30.75 11.33 30.75 11.33 34.12 20.7 34.12 10.44 45.42 10.44 48.46 26.23 48.46 26.23 45.33 15.33 45.33 25.83 34.04"/><rect class="bd6e8cbf-7195-472d-9c62-09718d4fa670" x="28" y="30.75" width="4.09" height="17.71"/><path class="bd6e8cbf-7195-472d-9c62-09718d4fa670" d="M34.65,30.75V48.46h4V42.21h3q7.13,0,7.05-5.85-.24-5.45-6.65-5.61Zm9.85,5.77c0,1.71-1.12,2.59-3.2,2.64H38.65V33.88H41.3C43.38,33.93,44.45,34.81,44.5,36.52Z"/></svg>