<?xml version="1.0" encoding="utf-8"?>
<!-- Generator: Adobe Illustrator 23.0.6, SVG Export Plug-In . SVG Version: 6.00 Build 0)  -->
<svg version="1.1" id="f18bd7a7-dc16-4402-a57f-e918e1cb619f"
	 xmlns="http://www.w3.org/2000/svg" xmlns:xlink="http://www.w3.org/1999/xlink" x="0px" y="0px" width="58.71px" height="77.03px"
	 viewBox="0 0 58.71 77.03" style="enable-background:new 0 0 58.71 77.03;" xml:space="preserve">
<style type="text/css">
	.st0{fill:#D1E0E5;}
</style>
<title>icon</title>
<g>
	<g>
		<path class="st0" d="M47.53,45.78c-0.57-0.14-1.13-0.35-1.64-0.62c-0.04-0.02-0.08-0.02-0.12,0c-0.04,0.02-0.06,0.06-0.07,0.1
			c-0.08,0.93-0.21,1.86-0.4,2.78c-0.04,0.35-0.16,0.53-0.36,0.53c-0.22,0-0.49-0.2-0.76-0.56c-0.09-0.2-0.17-0.41-0.24-0.64
			c-0.25-0.5-0.42-0.87-0.53-1.13c1.31-2.1,2.43-4.34,3.32-6.66c0.03-0.06-0.01-0.13-0.07-0.16l-1.75-0.72
			c-0.03-0.01-0.07-0.01-0.1,0s-0.06,0.04-0.07,0.07c-0.55,1.52-1.21,3.01-1.96,4.43c-0.26-1.83-0.4-3.69-0.42-5.54h4.97
			c0.07,0,0.13-0.06,0.13-0.13v-1.51c0-0.07-0.06-0.13-0.13-0.13h-5.05v-3.94c0-0.07-0.06-0.13-0.13-0.13h-1.99
			c-0.07,0-0.13,0.06-0.13,0.13v3.94H35.2v-0.95h3.7c0.07,0,0.13-0.06,0.13-0.13v-1.35c0-0.07-0.06-0.13-0.13-0.13h-3.7v-1.39
			c0-0.07-0.06-0.13-0.13-0.13h-1.99c-0.07,0-0.13,0.06-0.13,0.13v1.39H29.1c-0.07,0-0.13,0.06-0.13,0.13v1.35
			c0,0.07,0.06,0.13,0.13,0.13h3.85v0.95h-4.73c-0.07,0-0.13,0.06-0.13,0.13v1.51c0,0.07,0.06,0.13,0.13,0.13h11.9
			c0.03,2.78,0.35,5.57,0.95,8.29c-0.5,0.73-1.06,1.44-1.65,2.09v-0.08c0-0.07-0.06-0.13-0.13-0.13h-4.25v-0.78h3.78
			c0.07,0,0.13-0.06,0.13-0.13v-5.71c0-0.07-0.06-0.13-0.13-0.13h-3.78v-0.71h4.25c0.07,0,0.13-0.06,0.13-0.13v-1.35
			c0-0.07-0.06-0.13-0.13-0.13h-4.25v-0.75c0-0.07-0.06-0.13-0.13-0.13h-1.83c-0.07,0-0.13,0.06-0.13,0.13v0.75h-4.41
			c-0.07,0-0.13,0.06-0.13,0.13v1.36c0,0.07,0.06,0.13,0.13,0.13h4.41v0.71h-3.77c-0.07,0-0.13,0.06-0.13,0.13v5.73
			c0,0.07,0.06,0.13,0.13,0.13h3.78v0.78H28.3c-0.07,0-0.13,0.06-0.13,0.13v1.28c0,0.07,0.06,0.13,0.13,0.13h4.65v1.55
			c0,0.07,0.06,0.13,0.13,0.13h1.83c0.07,0,0.13-0.06,0.13-0.13V49.4h3.02c0,0.01,0,0.01,0.01,0.02c0.09,0.16,0.21,0.31,0.34,0.42
			c0.32,0.34,0.61,0.71,0.86,1.1c0.02,0.03,0.05,0.05,0.09,0.06c0.04,0.01,0.07-0.01,0.1-0.04c0.86-0.86,1.68-1.72,2.43-2.57
			c0.01,0.01,0.02,0.02,0.03,0.03c0.02,0.02,0.03,0.05,0.04,0.08c0,0.01,0,0.03,0.01,0.04c0.74,1.69,1.71,2.54,2.87,2.54l0,0h0.11
			c1.07,0,1.75-0.62,2.03-1.84c0.35-1.07,0.57-2.18,0.64-3.29C47.63,45.85,47.59,45.79,47.53,45.78z M35.04,42.6h2.06v0.78h-2.06
			V42.6z M35.04,44.76h2.06v0.87h-2.06V44.76z M32.96,45.62H30.9v-0.87h2.06V45.62z M32.96,43.39H30.9v-0.78h2.06V43.39z
			 M45.09,35.8c0.02,0.03,0.06,0.04,0.09,0.04s0.06-0.01,0.08-0.03l1.43-1.19c0.03-0.02,0.04-0.06,0.04-0.09
			c0-0.04-0.01-0.07-0.04-0.1c-1.01-0.9-1.87-1.63-2.55-2.15c-0.05-0.04-0.11-0.03-0.16,0l-1.19,1.03
			c-0.03,0.02-0.04,0.06-0.04,0.09s0.01,0.07,0.04,0.09C43.6,34.25,44.37,35.02,45.09,35.8z M26.87,33.12H7.92
			c-0.07,0-0.13,0.06-0.13,0.13v2.15c0,0.07,0.06,0.13,0.13,0.13h7.28v15.32c0,0.07,0.06,0.13,0.13,0.13h2.47
			c0.07,0,0.13-0.06,0.13-0.13v-10.2c0.47,0.32,1.12,0.78,1.95,1.38l4.54,3.03c0.06,0.04,0.13,0.02,0.17-0.03l1.51-1.99
			c0.02-0.03,0.03-0.06,0.02-0.1c-0.01-0.03-0.03-0.06-0.05-0.08c-2.48-1.63-4.81-3.08-6.93-4.3c-0.05-0.03-0.12-0.02-0.16,0.03
			l-1.05,1.31v-4.38h8.95c0.07,0,0.13-0.06,0.13-0.13v-2.15C27,33.17,26.94,33.12,26.87,33.12z M58.21,12.08L37.32,0.13
			c-0.37-0.2-0.84-0.15-1.15,0.14c-0.08,0.08-0.15,0.18-0.2,0.28H1.63C1.2,0.54,0.79,0.7,0.48,1C0.17,1.31-0.01,1.74,0,2.18V75.4
			c0.01,0.43,0.18,0.85,0.48,1.16C0.79,76.85,1.2,77.01,1.63,77h54.81c0.89,0.01,1.62-0.7,1.63-1.59c0-0.01,0-0.03,0-0.04V13.86
			h0.07c0.33-0.17,0.54-0.5,0.55-0.87C58.71,12.62,58.53,12.27,58.21,12.08z M3.27,73.77v-70h33.81l7.4,15.66
			c0.16,0.34,0.5,0.56,0.88,0.57c0.15,0,0.29-0.03,0.42-0.1l9-4.44l0.03,58.31H3.27z"/>
	</g>
</g>
</svg>
