<svg id="Group_5" data-name="Group 5" xmlns="http://www.w3.org/2000/svg" width="16" height="16" viewBox="0 0 16 16">
  <path id="Fill_1" data-name="Fill 1" d="M16,8A8,8,0,1,1,8,0a8,8,0,0,1,8,8" fill="#84be98"/>
  <path id="Fill_3" data-name="Fill 3" d="M4.667,10a.924.924,0,0,1-.681-.3L.235,5.6A.891.891,0,0,1,.3,4.33.926.926,0,0,1,1.6,4.4L4.549,7.622,9.315.411A.926.926,0,0,1,10.583.146a.893.893,0,0,1,.269,1.247l-5.417,8.2a.916.916,0,0,1-.7.408.714.714,0,0,1-.072,0" transform="translate(2 3)" fill="#fff"/>
</svg>
