<svg xmlns="http://www.w3.org/2000/svg" xmlns:xlink="http://www.w3.org/1999/xlink" width="40.842" height="54" viewBox="0 0 40.842 54">
  <defs>
    <clipPath id="clip-path">
      <path id="Clip_5" data-name="Clip 5" d="M0,0H40.408V53.616H0Z" transform="translate(0.001 0.384)" fill="none"/>
    </clipPath>
    <clipPath id="clip-path-2">
      <path id="Clip_10" data-name="Clip 10" d="M0,0H15.895V14.048H0Z" transform="translate(0.327)" fill="none"/>
    </clipPath>
  </defs>
  <g id="Group_13" data-name="Group 13" transform="translate(-0.001 -0.293)">
    <path id="Fill_1" data-name="Fill 1" d="M0,0V51H38V7.286L24.846,0Z" transform="translate(1 1.293)" fill="#fff"/>
    <g id="Group_12" data-name="Group 12" transform="translate(0 0.293)">
      <path id="Fill_2" data-name="Fill 2" d="M11.268,8.306,11.34,1.54A1.52,1.52,0,0,0,10.909.458,1.506,1.506,0,0,0,8.758.445a1.523,1.523,0,0,0-.445,1.062L8.241,8.274,1.528,8.2a1.5,1.5,0,0,0-1.086.445A1.529,1.529,0,0,0,0,9.708,1.519,1.519,0,0,0,1.5,11.25l6.713.073-.072,6.765a1.515,1.515,0,0,0,.432,1.083,1.5,1.5,0,0,0,2.151.012,1.526,1.526,0,0,0,.445-1.061l.072-6.765,6.711.073a1.491,1.491,0,0,0,1.086-.448,1.532,1.532,0,0,0,.012-2.144,1.49,1.49,0,0,0-1.064-.458Z" transform="translate(10.683 20.548)" fill="#81b6c8"/>
      <g id="Group_6" data-name="Group 6">
        <path id="Clip_5-2" data-name="Clip 5" d="M0,0H40.408V53.616H0Z" transform="translate(0.001 0.384)" fill="none"/>
        <g id="Group_6-2" data-name="Group 6" clip-path="url(#clip-path)">
          <path id="Fill_4" data-name="Fill 4" d="M38.123,8.852V51.326H2.272V2.29H28.3L25.926,0H1.135a1.141,1.141,0,0,0-.8.334A1.168,1.168,0,0,0,0,1.144V52.472a1.162,1.162,0,0,0,.332.809,1.136,1.136,0,0,0,.8.336H39.258a1.139,1.139,0,0,0,.805-.336,1.154,1.154,0,0,0,.33-.809l.014-44.1Z" transform="translate(0.001 0.384)" fill="#81b6c8"/>
        </g>
      </g>
      <path id="Fill_7" data-name="Fill 7" d="M0,0,5.923,12.642l8.607-4.263Z" transform="translate(25.63 0.703)" fill="#81b6c8"/>
      <g id="Group_11" data-name="Group 11" transform="translate(24.621)">
        <path id="Clip_10-2" data-name="Clip 10" d="M0,0H15.895V14.048H0Z" transform="translate(0.327)" fill="none"/>
        <g id="Group_11-2" data-name="Group 11" clip-path="url(#clip-path-2)">
          <path id="Fill_9" data-name="Fill 9" d="M6.606,14.048a.685.685,0,0,1-.616-.4L.068,1.006A.711.711,0,0,1,.214.191a.666.666,0,0,1,.8-.1l14.53,8.379a.71.71,0,0,1-.037,1.245L6.9,13.978A.666.666,0,0,1,6.606,14.048ZM2.236,2.4,6.923,12.409l6.813-3.374Z" transform="translate(0.327 0)" fill="#81b6c8"/>
        </g>
      </g>
    </g>
  </g>
</svg>
